<ttFont>
    <TTGlyph name="A" xMin="41" yMin="0" xMax="1431" yMax="1456">
      <contour>
        <pt x="41" y="175" on="1"/>
        <pt x="145" y="190" on="1"/>
        <pt x="588" y="1456" on="1"/>
        <pt x="887" y="1456" on="1"/>
        <pt x="1327" y="190" on="1"/>
        <pt x="1431" y="175" on="1"/>
        <pt x="1431" y="0" on="1"/>
        <pt x="935" y="0" on="1"/>
        <pt x="935" y="175" on="1"/>
        <pt x="1036" y="193" on="1"/>
        <pt x="972" y="393" on="1"/>
        <pt x="500" y="393" on="1"/>
        <pt x="436" y="193" on="1"/>
        <pt x="537" y="175" on="1"/>
        <pt x="537" y="0" on="1"/>
        <pt x="41" y="0" on="1"/>
      </contour>
      <contour>
        <pt x="569" y="608" on="1"/>
        <pt x="903" y="608" on="1"/>
        <pt x="739" y="1121" on="1"/>
        <pt x="733" y="1121" on="1"/>
      </contour>
    </TTGlyph>
    <TTGlyph name="A.smcp" xMin="45" yMin="0" xMax="1280" yMax="1165">
      <contour>
        <pt x="45" y="175" on="1"/>
        <pt x="126" y="188" on="1"/>
        <pt x="504" y="1165" on="1"/>
        <pt x="820" y="1165" on="1"/>
        <pt x="1197" y="189" on="1"/>
        <pt x="1280" y="175" on="1"/>
        <pt x="1280" y="0" on="1"/>
        <pt x="830" y="0" on="1"/>
        <pt x="830" y="162" on="1"/>
        <pt x="900" y="178" on="1"/>
        <pt x="858" y="298" on="1"/>
        <pt x="465" y="298" on="1"/>
        <pt x="423" y="178" on="1"/>
        <pt x="494" y="162" on="1"/>
        <pt x="494" y="0" on="1"/>
        <pt x="45" y="0" on="1"/>
      </contour>
      <contour>
        <pt x="535" y="496" on="1"/>
        <pt x="788" y="496" on="1"/>
        <pt x="664" y="846" on="1"/>
        <pt x="658" y="846" on="1"/>
      </contour>
    </TTGlyph>
    <TTGlyph name="AE" xMin="66" yMin="0" xMax="1958" yMax="1456">
      <contour>
        <pt x="66" y="175" on="1"/>
        <pt x="202" y="195" on="1"/>
        <pt x="880" y="1456" on="1"/>
        <pt x="1897" y="1456" on="1"/>
        <pt x="1897" y="1087" on="1"/>
        <pt x="1674" y="1087" on="1"/>
        <pt x="1663" y="1228" on="1"/>
        <pt x="1301" y="1228" on="1"/>
        <pt x="1317" y="862" on="1"/>
        <pt x="1816" y="862" on="1"/>
        <pt x="1816" y="635" on="1"/>
        <pt x="1326" y="635" on="1"/>
        <pt x="1343" y="227" on="1"/>
        <pt x="1724" y="227" on="1"/>
        <pt x="1736" y="368" on="1"/>
        <pt x="1958" y="368" on="1"/>
        <pt x="1958" y="0" on="1"/>
        <pt x="906" y="0" on="1"/>
        <pt x="906" y="175" on="1"/>
        <pt x="1052" y="203" on="1"/>
        <pt x="1046" y="354" on="1"/>
        <pt x="616" y="354" on="1"/>
        <pt x="533" y="189" on="1"/>
        <pt x="617" y="175" on="1"/>
        <pt x="617" y="0" on="1"/>
        <pt x="66" y="0" on="1"/>
      </contour>
      <contour>
        <pt x="730" y="582" on="1"/>
        <pt x="1036" y="582" on="1"/>
        <pt x="1013" y="1136" on="1"/>
        <pt x="1008" y="1137" on="1"/>
      </contour>
    </TTGlyph>
    <TTGlyph name="AEacute" xMin="66" yMin="0" xMax="1958" yMax="1825">
      <component glyphName="AE" x="0" y="0" flags="0x204"/>
      <component glyphName="acute" x="844" y="347" flags="0x4"/>
    </TTGlyph>
    <TTGlyph name="Aacute" xMin="41" yMin="0" xMax="1431" yMax="1826">
      <component glyphName="A" x="0" y="0" flags="0x204"/>
      <component glyphName="acute" x="473" y="348" flags="0x4"/>
    </TTGlyph>
    <TTGlyph name="Aacute.smcp" xMin="45" yMin="0" xMax="1280" yMax="1505">
      <component glyphName="A.smcp" x="0" y="0" flags="0x204"/>
      <component glyphName="acute" x="407" y="27" flags="0x4"/>
    </TTGlyph>
    <TTGlyph name="Abreve" xMin="41" yMin="0" xMax="1431" yMax="1883">
      <component glyphName="A" x="0" y="0" flags="0x204"/>
      <component glyphName="breve" x="277" y="427" flags="0x4"/>
    </TTGlyph>
    <TTGlyph name="Abreve.smcp" xMin="45" yMin="0" xMax="1280" yMax="1562">
      <component glyphName="A.smcp" x="0" y="0" flags="0x204"/>
      <component glyphName="breve" x="211" y="106" flags="0x4"/>
    </TTGlyph>
    <TTGlyph name="Acircumflex" xMin="41" yMin="0" xMax="1431" yMax="1847">
      <component glyphName="A" x="0" y="0" flags="0x204"/>
      <component glyphName="circumflex" x="274" y="329" flags="0x4"/>
    </TTGlyph>
    <TTGlyph name="Acircumflex.smcp" xMin="45" yMin="0" xMax="1280" yMax="1526">
      <component glyphName="A.smcp" x="0" y="0" flags="0x204"/>
      <component glyphName="circumflex" x="208" y="8" flags="0x4"/>
    </TTGlyph>
    <TTGlyph name="Adieresis" xMin="41" yMin="0" xMax="1431" yMax="1805">
      <component glyphName="A" x="0" y="0" flags="0x204"/>
      <component glyphName="dieresis" x="190" y="349" flags="0x4"/>
    </TTGlyph>
    <TTGlyph name="Adieresis.smcp" xMin="45" yMin="0" xMax="1280" yMax="1484">
      <component glyphName="A.smcp" x="0" y="0" flags="0x204"/>
      <component glyphName="dieresis" x="124" y="28" flags="0x4"/>
    </TTGlyph>
    <TTGlyph name="Agrave" xMin="41" yMin="0" xMax="1431" yMax="1834">
      <component glyphName="A" x="0" y="0" flags="0x204"/>
      <component glyphName="grave" x="312" y="356" flags="0x4"/>
    </TTGlyph>
    <TTGlyph name="Agrave.smcp" xMin="45" yMin="0" xMax="1280" yMax="1513">
      <component glyphName="A.smcp" x="0" y="0" flags="0x204"/>
      <component glyphName="grave" x="246" y="35" flags="0x4"/>
    </TTGlyph>
    <TTGlyph name="Alpha" xMin="41" yMin="0" xMax="1431" yMax="1456">
      <component glyphName="A" x="0" y="0" flags="0x204"/>
    </TTGlyph>
    <TTGlyph name="Alphatonos" xMin="41" yMin="0" xMax="1431" yMax="1634">
      <component glyphName="A" x="0" y="0" flags="0x204"/>
      <component glyphName="tonos" x="19" y="0" flags="0x4"/>
    </TTGlyph>
    <TTGlyph name="Amacron" xMin="41" yMin="0" xMax="1431" yMax="1782">
      <component glyphName="A" x="0" y="0" flags="0x204"/>
      <component glyphName="macron" x="207" y="325" flags="0x4"/>
    </TTGlyph>
    <TTGlyph name="Amacron.smcp" xMin="45" yMin="0" xMax="1280" yMax="1461">
      <component glyphName="A.smcp" x="0" y="0" flags="0x204"/>
      <component glyphName="macron" x="141" y="4" flags="0x4"/>
    </TTGlyph>
    <TTGlyph name="Aogonek" xMin="41" yMin="-424" xMax="1543" yMax="1456">
      <component glyphName="A" x="0" y="0" flags="0x204"/>
      <component glyphName="ogonek" x="1070" y="0" flags="0x4"/>
    </TTGlyph>
    <TTGlyph name="Aogonek.smcp" xMin="45" yMin="-424" xMax="1391" yMax="1165">
      <component glyphName="A.smcp" x="0" y="0" flags="0x204"/>
      <component glyphName="ogonek" x="918" y="0" flags="0x4"/>
    </TTGlyph>
    <TTGlyph name="Aring" xMin="41" yMin="0" xMax="1431" yMax="1941">
      <component glyphName="A" x="0" y="0" flags="0x204"/>
      <component glyphName="ring" x="405" y="447" flags="0x4"/>
    </TTGlyph>
    <TTGlyph name="Aring.smcp" xMin="45" yMin="0" xMax="1280" yMax="1620">
      <component glyphName="A.smcp" x="0" y="0" flags="0x204"/>
      <component glyphName="ring" x="339" y="126" flags="0x4"/>
    </TTGlyph>
    <TTGlyph name="Aringacute" xMin="41" yMin="0" xMax="1431" yMax="2014">
      <component glyphName="A" x="0" y="0" flags="0x204"/>
      <component glyphName="ringacute" x="409" y="294" flags="0x4"/>
    </TTGlyph>
    <TTGlyph name="Aringacute.smcp" xMin="45" yMin="0" xMax="1280" yMax="1694">
      <component glyphName="A.smcp" x="0" y="0" flags="0x204"/>
      <component glyphName="ringacute" x="343" y="-26" flags="0x4"/>
    </TTGlyph>
    <TTGlyph name="Atilde" xMin="41" yMin="0" xMax="1431" yMax="1881">
      <component glyphName="A" x="0" y="0" flags="0x204"/>
      <component glyphName="tilde" x="238" y="352" flags="0x4"/>
    </TTGlyph>
    <TTGlyph name="Atilde.smcp" xMin="45" yMin="0" xMax="1280" yMax="1560">
      <component glyphName="A.smcp" x="0" y="0" flags="0x204"/>
      <component glyphName="tilde" x="172" y="31" flags="0x4"/>
    </TTGlyph>
    <TTGlyph name="B" xMin="56" yMin="0" xMax="1301" yMax="1456">
      <contour>
        <pt x="703" y="1456" on="1"/>
        <pt x="960" y="1456" on="0"/>
        <pt x="1248" y="1256" on="0"/>
        <pt x="1248" y="1057" on="1"/>
        <pt x="1248" y="956" on="0"/>
        <pt x="1141" y="797" on="0"/>
        <pt x="1039" y="757" on="1"/>
        <pt x="1170" y="729" on="0"/>
        <pt x="1301" y="545" on="0"/>
        <pt x="1301" y="424" on="1"/>
        <pt x="1301" y="215" on="0"/>
        <pt x="1025" y="0" on="0"/>
        <pt x="772" y="0" on="1"/>
        <pt x="56" y="0" on="1"/>
        <pt x="56" y="175" on="1"/>
        <pt x="211" y="205" on="1"/>
        <pt x="211" y="1250" on="1"/>
        <pt x="56" y="1280" on="1"/>
        <pt x="56" y="1456" on="1"/>
        <pt x="211" y="1456" on="1"/>
      </contour>
      <contour>
        <pt x="503" y="644" on="1"/>
        <pt x="503" y="224" on="1"/>
        <pt x="772" y="224" on="1"/>
        <pt x="888" y="224" on="0"/>
        <pt x="1010" y="325" on="0"/>
        <pt x="1010" y="424" on="1"/>
        <pt x="1010" y="531" on="0"/>
        <pt x="906" y="644" on="0"/>
        <pt x="794" y="644" on="1"/>
      </contour>
      <contour>
        <pt x="503" y="846" on="1"/>
        <pt x="713" y="846" on="1"/>
        <pt x="830" y="846" on="0"/>
        <pt x="956" y="942" on="0"/>
        <pt x="956" y="1034" on="1"/>
        <pt x="956" y="1135" on="0"/>
        <pt x="829" y="1231" on="0"/>
        <pt x="703" y="1231" on="1"/>
        <pt x="503" y="1231" on="1"/>
      </contour>
    </TTGlyph>
    <TTGlyph name="B.smcp" xMin="43" yMin="0" xMax="1175" yMax="1165">
      <contour>
        <pt x="663" y="1165" on="1"/>
        <pt x="879" y="1165" on="0"/>
        <pt x="1120" y="1002" on="0"/>
        <pt x="1120" y="843" on="1"/>
        <pt x="1120" y="760" on="0"/>
        <pt x="1016" y="630" on="0"/>
        <pt x="920" y="596" on="1"/>
        <pt x="1045" y="572" on="0"/>
        <pt x="1175" y="428" on="0"/>
        <pt x="1175" y="330" on="1"/>
        <pt x="1175" y="167" on="0"/>
        <pt x="946" y="0" on="0"/>
        <pt x="732" y="0" on="1"/>
        <pt x="43" y="0" on="1"/>
        <pt x="43" y="175" on="1"/>
        <pt x="199" y="205" on="1"/>
        <pt x="199" y="959" on="1"/>
        <pt x="43" y="989" on="1"/>
        <pt x="43" y="1165" on="1"/>
        <pt x="199" y="1165" on="1"/>
      </contour>
      <contour>
        <pt x="490" y="495" on="1"/>
        <pt x="490" y="222" on="1"/>
        <pt x="732" y="222" on="1"/>
        <pt x="813" y="222" on="0"/>
        <pt x="884" y="285" on="0"/>
        <pt x="884" y="350" on="1"/>
        <pt x="884" y="422" on="0"/>
        <pt x="813" y="495" on="0"/>
        <pt x="732" y="495" on="1"/>
      </contour>
      <contour>
        <pt x="490" y="681" on="1"/>
        <pt x="663" y="681" on="1"/>
        <pt x="745" y="681" on="0"/>
        <pt x="829" y="744" on="0"/>
        <pt x="829" y="804" on="1"/>
        <pt x="829" y="873" on="0"/>
        <pt x="748" y="934" on="0"/>
        <pt x="663" y="934" on="1"/>
        <pt x="490" y="934" on="1"/>
      </contour>
    </TTGlyph>
    <TTGlyph name="Beta" xMin="56" yMin="0" xMax="1301" yMax="1456">
      <component glyphName="B" x="0" y="0" flags="0x204"/>
    </TTGlyph>
    <TTGlyph name="C" xMin="52" yMin="-21" xMax="1249" yMax="1477">
      <contour>
        <pt x="1249" y="965" on="1"/>
        <pt x="1032" y="965" on="1"/>
        <pt x="1002" y="1159" on="1"/>
        <pt x="959" y="1202" on="0"/>
        <pt x="828" y="1252" on="0"/>
        <pt x="739" y="1252" on="1"/>
        <pt x="549" y="1252" on="0"/>
        <pt x="344" y="976" on="0"/>
        <pt x="344" y="754" on="1"/>
        <pt x="344" y="703" on="1"/>
        <pt x="344" y="481" on="0"/>
        <pt x="548" y="203" on="0"/>
        <pt x="734" y="203" on="1"/>
        <pt x="820" y="203" on="0"/>
        <pt x="963" y="253" on="0"/>
        <pt x="1002" y="296" on="1"/>
        <pt x="1032" y="490" on="1"/>
        <pt x="1249" y="490" on="1"/>
        <pt x="1249" y="202" on="1"/>
        <pt x="1161" y="100" on="0"/>
        <pt x="888" y="-21" on="0"/>
        <pt x="719" y="-21" on="1"/>
        <pt x="426" y="-21" on="0"/>
        <pt x="52" y="385" on="0"/>
        <pt x="52" y="703" on="1"/>
        <pt x="52" y="752" on="1"/>
        <pt x="52" y="1069" on="0"/>
        <pt x="424" y="1477" on="0"/>
        <pt x="719" y="1477" on="1"/>
        <pt x="888" y="1477" on="0"/>
        <pt x="1160" y="1354" on="0"/>
        <pt x="1249" y="1253" on="1"/>
      </contour>
    </TTGlyph>
    <TTGlyph name="C.smcp" xMin="99" yMin="-17" xMax="1081" yMax="1181">
      <contour>
        <pt x="1077" y="397" on="1"/>
        <pt x="1079" y="391" on="1"/>
        <pt x="1073" y="191" on="0"/>
        <pt x="822" y="-17" on="0"/>
        <pt x="607" y="-17" on="1"/>
        <pt x="378" y="-17" on="0"/>
        <pt x="99" y="261" on="0"/>
        <pt x="99" y="496" on="1"/>
        <pt x="99" y="661" on="1"/>
        <pt x="99" y="898" on="0"/>
        <pt x="378" y="1181" on="0"/>
        <pt x="607" y="1181" on="1"/>
        <pt x="824" y="1181" on="0"/>
        <pt x="1075" y="973" on="0"/>
        <pt x="1081" y="775" on="1"/>
        <pt x="1079" y="769" on="1"/>
        <pt x="797" y="769" on="1"/>
        <pt x="785" y="865" on="0"/>
        <pt x="695" y="958" on="0"/>
        <pt x="607" y="958" on="1"/>
        <pt x="502" y="958" on="0"/>
        <pt x="390" y="799" on="0"/>
        <pt x="390" y="662" on="1"/>
        <pt x="390" y="496" on="1"/>
        <pt x="390" y="362" on="0"/>
        <pt x="503" y="205" on="0"/>
        <pt x="607" y="205" on="1"/>
        <pt x="702" y="205" on="0"/>
        <pt x="783" y="292" on="0"/>
        <pt x="795" y="397" on="1"/>
      </contour>
    </TTGlyph>
    <TTGlyph name="C.ss03" xMin="89" yMin="-21" xMax="1221" yMax="1477">
      <contour>
        <pt x="1221" y="912" on="1"/>
        <pt x="1000" y="912" on="1"/>
        <pt x="933" y="1178" on="1"/>
        <pt x="895" y="1211" on="0"/>
        <pt x="781" y="1252" on="0"/>
        <pt x="705" y="1252" on="1"/>
        <pt x="555" y="1252" on="0"/>
        <pt x="380" y="1039" on="0"/>
        <pt x="380" y="874" on="1"/>
        <pt x="380" y="583" on="1"/>
        <pt x="380" y="415" on="0"/>
        <pt x="546" y="203" on="0"/>
        <pt x="695" y="203" on="1"/>
        <pt x="769" y="203" on="0"/>
        <pt x="894" y="240" on="0"/>
        <pt x="928" y="270" on="1"/>
        <pt x="994" y="523" on="1"/>
        <pt x="1210" y="523" on="1"/>
        <pt x="1210" y="202" on="1"/>
        <pt x="1122" y="100" on="0"/>
        <pt x="849" y="-21" on="0"/>
        <pt x="680" y="-21" on="1"/>
        <pt x="417" y="-21" on="0"/>
        <pt x="89" y="317" on="0"/>
        <pt x="89" y="583" on="1"/>
        <pt x="89" y="872" on="1"/>
        <pt x="89" y="1137" on="0"/>
        <pt x="420" y="1477" on="0"/>
        <pt x="685" y="1477" on="1"/>
        <pt x="856" y="1477" on="0"/>
        <pt x="1130" y="1354" on="0"/>
        <pt x="1220" y="1253" on="1"/>
      </contour>
    </TTGlyph>
    <TTGlyph name="C.ss04" xMin="89" yMin="-21" xMax="1235" yMax="1477">
      <contour>
        <pt x="1231" y="495" on="1"/>
        <pt x="1233" y="489" on="1"/>
        <pt x="1220" y="250" on="0"/>
        <pt x="938" y="-21" on="0"/>
        <pt x="680" y="-21" on="1"/>
        <pt x="417" y="-21" on="0"/>
        <pt x="89" y="317" on="0"/>
        <pt x="89" y="583" on="1"/>
        <pt x="89" y="872" on="1"/>
        <pt x="89" y="1137" on="0"/>
        <pt x="409" y="1477" on="0"/>
        <pt x="665" y="1477" on="1"/>
        <pt x="930" y="1477" on="0"/>
        <pt x="1216" y="1206" on="0"/>
        <pt x="1235" y="961" on="1"/>
        <pt x="1233" y="955" on="1"/>
        <pt x="949" y="955" on="1"/>
        <pt x="937" y="1103" on="0"/>
        <pt x="808" y="1252" on="0"/>
        <pt x="665" y="1252" on="1"/>
        <pt x="534" y="1252" on="0"/>
        <pt x="380" y="1039" on="0"/>
        <pt x="380" y="874" on="1"/>
        <pt x="380" y="583" on="1"/>
        <pt x="380" y="416" on="0"/>
        <pt x="542" y="203" on="0"/>
        <pt x="680" y="203" on="1"/>
        <pt x="814" y="203" on="0"/>
        <pt x="936" y="346" on="0"/>
        <pt x="948" y="495" on="1"/>
      </contour>
    </TTGlyph>
    <TTGlyph name="Cacute" xMin="52" yMin="-21" xMax="1249" yMax="1833">
      <component glyphName="C" x="0" y="0" flags="0x204"/>
      <component glyphName="acute" x="460" y="355" flags="0x4"/>
    </TTGlyph>
    <TTGlyph name="Cacute.smcp" xMin="99" yMin="-17" xMax="1081" yMax="1511">
      <component glyphName="C.smcp" x="0" y="0" flags="0x204"/>
      <component glyphName="acute" x="339" y="33" flags="0x4"/>
    </TTGlyph>
    <TTGlyph name="Ccaron" xMin="52" yMin="-21" xMax="1249" yMax="1874">
      <component glyphName="C" x="0" y="0" flags="0x204"/>
      <component glyphName="caron" x="249" y="350" flags="0x4"/>
    </TTGlyph>
    <TTGlyph name="Ccaron.smcp" xMin="99" yMin="-17" xMax="1081" yMax="1552">
      <component glyphName="C.smcp" x="0" y="0" flags="0x204"/>
      <component glyphName="caron" x="128" y="28" flags="0x4"/>
    </TTGlyph>
    <TTGlyph name="Ccedilla" xMin="52" yMin="-461" xMax="1249" yMax="1477">
      <component glyphName="C" x="0" y="0" flags="0x204"/>
      <component glyphName="cedilla" x="476" y="-2" flags="0x4"/>
    </TTGlyph>
    <TTGlyph name="Ccedilla.smcp" xMin="99" yMin="-460" xMax="1081" yMax="1181">
      <component glyphName="C.smcp" x="0" y="0" flags="0x204"/>
      <component glyphName="cedilla" x="363" y="-1" flags="0x4"/>
    </TTGlyph>
    <TTGlyph name="Ccircumflex" xMin="52" yMin="-21" xMax="1249" yMax="1854">
      <component glyphName="C" x="0" y="0" flags="0x204"/>
      <component glyphName="circumflex" x="261" y="336" flags="0x4"/>
    </TTGlyph>
    <TTGlyph name="Ccircumflex.smcp" xMin="99" yMin="-17" xMax="1081" yMax="1532">
      <component glyphName="C.smcp" x="0" y="0" flags="0x204"/>
      <component glyphName="circumflex" x="140" y="14" flags="0x4"/>
    </TTGlyph>
    <TTGlyph name="Chi" xMin="33" yMin="0" xMax="1404" yMax="1456">
      <component glyphName="X" x="0" y="0" flags="0x204"/>
    </TTGlyph>
    <TTGlyph name="D" xMin="56" yMin="0" xMax="1324" yMax="1456">
      <contour>
        <pt x="711" y="1456" on="1"/>
        <pt x="978" y="1456" on="0"/>
        <pt x="1324" y="1115" on="0"/>
        <pt x="1324" y="848" on="1"/>
        <pt x="1324" y="607" on="1"/>
        <pt x="1324" y="339" on="0"/>
        <pt x="978" y="0" on="0"/>
        <pt x="711" y="0" on="1"/>
        <pt x="56" y="0" on="1"/>
        <pt x="56" y="175" on="1"/>
        <pt x="211" y="205" on="1"/>
        <pt x="211" y="1250" on="1"/>
        <pt x="56" y="1280" on="1"/>
        <pt x="56" y="1456" on="1"/>
        <pt x="211" y="1456" on="1"/>
      </contour>
      <contour>
        <pt x="503" y="1231" on="1"/>
        <pt x="503" y="224" on="1"/>
        <pt x="696" y="224" on="1"/>
        <pt x="853" y="224" on="0"/>
        <pt x="1031" y="436" on="0"/>
        <pt x="1031" y="607" on="1"/>
        <pt x="1031" y="850" on="1"/>
        <pt x="1031" y="1019" on="0"/>
        <pt x="853" y="1231" on="0"/>
        <pt x="696" y="1231" on="1"/>
      </contour>
    </TTGlyph>
    <TTGlyph name="D.smcp" xMin="43" yMin="0" xMax="1176" yMax="1165">
      <contour>
        <pt x="657" y="1165" on="1"/>
        <pt x="882" y="1165" on="0"/>
        <pt x="1176" y="897" on="0"/>
        <pt x="1176" y="687" on="1"/>
        <pt x="1176" y="477" on="1"/>
        <pt x="1176" y="266" on="0"/>
        <pt x="882" y="0" on="0"/>
        <pt x="657" y="0" on="1"/>
        <pt x="43" y="0" on="1"/>
        <pt x="43" y="175" on="1"/>
        <pt x="199" y="205" on="1"/>
        <pt x="199" y="959" on="1"/>
        <pt x="43" y="989" on="1"/>
        <pt x="43" y="1165" on="1"/>
        <pt x="199" y="1165" on="1"/>
      </contour>
      <contour>
        <pt x="490" y="942" on="1"/>
        <pt x="490" y="222" on="1"/>
        <pt x="657" y="222" on="1"/>
        <pt x="758" y="222" on="0"/>
        <pt x="884" y="365" on="0"/>
        <pt x="884" y="477" on="1"/>
        <pt x="884" y="688" on="1"/>
        <pt x="884" y="799" on="0"/>
        <pt x="758" y="942" on="0"/>
        <pt x="657" y="942" on="1"/>
      </contour>
    </TTGlyph>
    <TTGlyph name="Dcaron" xMin="56" yMin="0" xMax="1324" yMax="1867">
      <component glyphName="D" x="0" y="0" flags="0x204"/>
      <component glyphName="caron" x="160" y="343" flags="0x4"/>
    </TTGlyph>
    <TTGlyph name="Dcaron.smcp" xMin="43" yMin="0" xMax="1176" yMax="1546">
      <component glyphName="D.smcp" x="0" y="0" flags="0x204"/>
      <component glyphName="caron" x="47" y="22" flags="0x4"/>
    </TTGlyph>
    <TTGlyph name="Dcroat" xMin="46" yMin="0" xMax="1354" yMax="1456">
      <contour>
        <pt x="741" y="1456" on="1"/>
        <pt x="1008" y="1456" on="0"/>
        <pt x="1354" y="1115" on="0"/>
        <pt x="1354" y="848" on="1"/>
        <pt x="1354" y="607" on="1"/>
        <pt x="1354" y="339" on="0"/>
        <pt x="1008" y="0" on="0"/>
        <pt x="741" y="0" on="1"/>
        <pt x="86" y="0" on="1"/>
        <pt x="86" y="175" on="1"/>
        <pt x="241" y="205" on="1"/>
        <pt x="241" y="665" on="1"/>
        <pt x="46" y="665" on="1"/>
        <pt x="46" y="820" on="1"/>
        <pt x="241" y="820" on="1"/>
        <pt x="241" y="1250" on="1"/>
        <pt x="86" y="1280" on="1"/>
        <pt x="86" y="1456" on="1"/>
      </contour>
      <contour>
        <pt x="747" y="665" on="1"/>
        <pt x="533" y="665" on="1"/>
        <pt x="533" y="224" on="1"/>
        <pt x="726" y="224" on="1"/>
        <pt x="883" y="224" on="0"/>
        <pt x="1061" y="436" on="0"/>
        <pt x="1061" y="607" on="1"/>
        <pt x="1061" y="850" on="1"/>
        <pt x="1061" y="1019" on="0"/>
        <pt x="883" y="1231" on="0"/>
        <pt x="726" y="1231" on="1"/>
        <pt x="533" y="1231" on="1"/>
        <pt x="533" y="820" on="1"/>
        <pt x="747" y="820" on="1"/>
      </contour>
    </TTGlyph>
    <TTGlyph name="Dcroat.smcp" xMin="-2" yMin="0" xMax="1176" yMax="1165">
      <component glyphName="D.smcp" x="0" y="0" flags="0x204"/>
      <component glyphName="crossbar" x="-137" y="-151" flags="0x4"/>
    </TTGlyph>
    <TTGlyph name="Delta" xMin="12" yMin="0" xMax="1467" yMax="1456">
      <contour>
        <pt x="595" y="1456" on="1"/>
        <pt x="894" y="1456" on="1"/>
        <pt x="1467" y="0" on="1"/>
        <pt x="12" y="0" on="1"/>
      </contour>
      <contour>
        <pt x="402" y="224" on="1"/>
        <pt x="1078" y="224" on="1"/>
        <pt x="746" y="1110" on="1"/>
        <pt x="740" y="1110" on="1"/>
      </contour>
    </TTGlyph>
    <TTGlyph name="E" xMin="56" yMin="0" xMax="1208" yMax="1456">
      <contour>
        <pt x="996" y="640" on="1"/>
        <pt x="503" y="640" on="1"/>
        <pt x="503" y="224" on="1"/>
        <pt x="973" y="224" on="1"/>
        <pt x="986" y="398" on="1"/>
        <pt x="1208" y="398" on="1"/>
        <pt x="1208" y="0" on="1"/>
        <pt x="56" y="0" on="1"/>
        <pt x="56" y="175" on="1"/>
        <pt x="211" y="205" on="1"/>
        <pt x="211" y="1250" on="1"/>
        <pt x="56" y="1280" on="1"/>
        <pt x="56" y="1456" on="1"/>
        <pt x="211" y="1456" on="1"/>
        <pt x="1206" y="1456" on="1"/>
        <pt x="1206" y="1057" on="1"/>
        <pt x="982" y="1057" on="1"/>
        <pt x="969" y="1231" on="1"/>
        <pt x="503" y="1231" on="1"/>
        <pt x="503" y="865" on="1"/>
        <pt x="996" y="865" on="1"/>
      </contour>
    </TTGlyph>
    <TTGlyph name="E.smcp" xMin="67" yMin="0" xMax="1075" yMax="1165">
      <contour>
        <pt x="67" y="0" on="1"/>
        <pt x="67" y="175" on="1"/>
        <pt x="223" y="205" on="1"/>
        <pt x="223" y="959" on="1"/>
        <pt x="67" y="989" on="1"/>
        <pt x="67" y="1165" on="1"/>
        <pt x="223" y="1165" on="1"/>
        <pt x="1075" y="1165" on="1"/>
        <pt x="1075" y="809" on="1"/>
        <pt x="851" y="809" on="1"/>
        <pt x="840" y="942" on="1"/>
        <pt x="514" y="942" on="1"/>
        <pt x="514" y="686" on="1"/>
        <pt x="973" y="686" on="1"/>
        <pt x="973" y="501" on="1"/>
        <pt x="514" y="501" on="1"/>
        <pt x="514" y="222" on="1"/>
        <pt x="841" y="222" on="1"/>
        <pt x="852" y="355" on="1"/>
        <pt x="1075" y="355" on="1"/>
        <pt x="1075" y="0" on="1"/>
      </contour>
    </TTGlyph>
    <TTGlyph name="Eacute" xMin="56" yMin="0" xMax="1208" yMax="1826">
      <component glyphName="E" x="0" y="0" flags="0x204"/>
      <component glyphName="acute" x="384" y="348" flags="0x4"/>
    </TTGlyph>
    <TTGlyph name="Eacute.smcp" xMin="67" yMin="0" xMax="1075" yMax="1505">
      <component glyphName="E.smcp" x="0" y="0" flags="0x204"/>
      <component glyphName="acute" x="357" y="27" flags="0x4"/>
    </TTGlyph>
    <TTGlyph name="Ebreve" xMin="56" yMin="0" xMax="1208" yMax="1883">
      <component glyphName="E" x="0" y="0" flags="0x204"/>
      <component glyphName="breve" x="188" y="427" flags="0x4"/>
    </TTGlyph>
    <TTGlyph name="Ebreve.smcp" xMin="67" yMin="0" xMax="1075" yMax="1562">
      <component glyphName="E.smcp" x="0" y="0" flags="0x204"/>
      <component glyphName="breve" x="161" y="106" flags="0x4"/>
    </TTGlyph>
    <TTGlyph name="Ecaron" xMin="56" yMin="0" xMax="1208" yMax="1867">
      <component glyphName="E" x="0" y="0" flags="0x204"/>
      <component glyphName="caron" x="173" y="343" flags="0x4"/>
    </TTGlyph>
    <TTGlyph name="Ecaron.smcp" xMin="67" yMin="0" xMax="1075" yMax="1546">
      <component glyphName="E.smcp" x="0" y="0" flags="0x204"/>
      <component glyphName="caron" x="146" y="22" flags="0x4"/>
    </TTGlyph>
    <TTGlyph name="Ecircumflex" xMin="56" yMin="0" xMax="1208" yMax="1847">
      <component glyphName="E" x="0" y="0" flags="0x204"/>
      <component glyphName="circumflex" x="185" y="329" flags="0x4"/>
    </TTGlyph>
    <TTGlyph name="Ecircumflex.smcp" xMin="67" yMin="0" xMax="1075" yMax="1526">
      <component glyphName="E.smcp" x="0" y="0" flags="0x204"/>
      <component glyphName="circumflex" x="158" y="8" flags="0x4"/>
    </TTGlyph>
    <TTGlyph name="Edieresis" xMin="56" yMin="0" xMax="1208" yMax="1805">
      <component glyphName="E" x="0" y="0" flags="0x204"/>
      <component glyphName="dieresis" x="101" y="349" flags="0x4"/>
    </TTGlyph>
    <TTGlyph name="Edieresis.smcp" xMin="67" yMin="0" xMax="1075" yMax="1484">
      <component glyphName="E.smcp" x="0" y="0" flags="0x204"/>
      <component glyphName="dieresis" x="74" y="28" flags="0x4"/>
    </TTGlyph>
    <TTGlyph name="Edotaccent" xMin="56" yMin="0" xMax="1208" yMax="1842">
      <component glyphName="E" x="0" y="0" flags="0x204"/>
      <component glyphName="dotaccent" x="339" y="374" flags="0x4"/>
    </TTGlyph>
    <TTGlyph name="Edotaccent.smcp" xMin="67" yMin="0" xMax="1075" yMax="1521">
      <component glyphName="E.smcp" x="0" y="0" flags="0x204"/>
      <component glyphName="dotaccent" x="312" y="53" flags="0x4"/>
    </TTGlyph>
    <TTGlyph name="Egrave" xMin="56" yMin="0" xMax="1208" yMax="1834">
      <component glyphName="E" x="0" y="0" flags="0x204"/>
      <component glyphName="grave" x="223" y="356" flags="0x4"/>
    </TTGlyph>
    <TTGlyph name="Egrave.smcp" xMin="67" yMin="0" xMax="1075" yMax="1513">
      <component glyphName="E.smcp" x="0" y="0" flags="0x204"/>
      <component glyphName="grave" x="196" y="35" flags="0x4"/>
    </TTGlyph>
    <TTGlyph name="Emacron" xMin="56" yMin="0" xMax="1208" yMax="1782">
      <component glyphName="E" x="0" y="0" flags="0x204"/>
      <component glyphName="macron" x="118" y="325" flags="0x4"/>
    </TTGlyph>
    <TTGlyph name="Emacron.smcp" xMin="67" yMin="0" xMax="1075" yMax="1461">
      <component glyphName="E.smcp" x="0" y="0" flags="0x204"/>
      <component glyphName="macron" x="91" y="4" flags="0x4"/>
    </TTGlyph>
    <TTGlyph name="Eng" xMin="68" yMin="-437" xMax="1556" yMax="1456">
      <contour>
        <pt x="68" y="1280" on="1"/>
        <pt x="68" y="1456" on="1"/>
        <pt x="516" y="1456" on="1"/>
        <pt x="1103" y="475" on="1"/>
        <pt x="1109" y="476" on="1"/>
        <pt x="1109" y="1250" on="1"/>
        <pt x="954" y="1280" on="1"/>
        <pt x="954" y="1456" on="1"/>
        <pt x="1109" y="1456" on="1"/>
        <pt x="1556" y="1456" on="1"/>
        <pt x="1556" y="1280" on="1"/>
        <pt x="1401" y="1250" on="1"/>
        <pt x="1401" y="-40" on="1"/>
        <pt x="1401" y="-230" on="0"/>
        <pt x="1199" y="-437" on="0"/>
        <pt x="1019" y="-437" on="1"/>
        <pt x="978" y="-437" on="0"/>
        <pt x="912" y="-429" on="0"/>
        <pt x="875" y="-420" on="1"/>
        <pt x="889" y="-199" on="1"/>
        <pt x="912" y="-205" on="0"/>
        <pt x="961" y="-212" on="0"/>
        <pt x="988" y="-212" on="1"/>
        <pt x="1045" y="-212" on="0"/>
        <pt x="1109" y="-122" on="0"/>
        <pt x="1109" y="-40" on="1"/>
        <pt x="1109" y="0" on="1"/>
        <pt x="522" y="982" on="1"/>
        <pt x="516" y="981" on="1"/>
        <pt x="516" y="205" on="1"/>
        <pt x="671" y="175" on="1"/>
        <pt x="671" y="0" on="1"/>
        <pt x="68" y="0" on="1"/>
        <pt x="68" y="175" on="1"/>
        <pt x="224" y="205" on="1"/>
        <pt x="224" y="1250" on="1"/>
      </contour>
    </TTGlyph>
    <TTGlyph name="Eogonek" xMin="56" yMin="-414" xMax="1208" yMax="1456">
      <component glyphName="E" x="0" y="0" flags="0x204"/>
      <component glyphName="ogonek" x="382" y="10" flags="0x4"/>
    </TTGlyph>
    <TTGlyph name="Eogonek.smcp" xMin="67" yMin="-416" xMax="1075" yMax="1165">
      <component glyphName="E.smcp" x="0" y="0" flags="0x204"/>
      <component glyphName="ogonek" x="304" y="8" flags="0x4"/>
    </TTGlyph>
    <TTGlyph name="Epsilon" xMin="56" yMin="0" xMax="1208" yMax="1456">
      <component glyphName="E" x="0" y="0" flags="0x204"/>
    </TTGlyph>
    <TTGlyph name="Epsilontonos" xMin="-168" yMin="0" xMax="1308" yMax="1636">
      <component glyphName="E" x="100" y="0" flags="0x4"/>
      <component glyphName="tonos" x="-297" y="2" flags="0x4"/>
    </TTGlyph>
    <TTGlyph name="Eta" xMin="56" yMin="0" xMax="1544" yMax="1456">
      <component glyphName="H" x="0" y="0" flags="0x204"/>
    </TTGlyph>
    <TTGlyph name="Etatonos" xMin="-163" yMin="0" xMax="1644" yMax="1635">
      <component glyphName="H" x="100" y="0" flags="0x4"/>
      <component glyphName="tonos" x="-292" y="1" flags="0x4"/>
    </TTGlyph>
    <TTGlyph name="Eth" xMin="46" yMin="0" xMax="1354" yMax="1456">
      <contour>
        <pt x="741" y="1456" on="1"/>
        <pt x="1008" y="1456" on="0"/>
        <pt x="1354" y="1115" on="0"/>
        <pt x="1354" y="848" on="1"/>
        <pt x="1354" y="607" on="1"/>
        <pt x="1354" y="339" on="0"/>
        <pt x="1008" y="0" on="0"/>
        <pt x="741" y="0" on="1"/>
        <pt x="86" y="0" on="1"/>
        <pt x="86" y="175" on="1"/>
        <pt x="241" y="205" on="1"/>
        <pt x="241" y="665" on="1"/>
        <pt x="46" y="665" on="1"/>
        <pt x="46" y="820" on="1"/>
        <pt x="241" y="820" on="1"/>
        <pt x="241" y="1250" on="1"/>
        <pt x="86" y="1280" on="1"/>
        <pt x="86" y="1456" on="1"/>
      </contour>
      <contour>
        <pt x="747" y="665" on="1"/>
        <pt x="533" y="665" on="1"/>
        <pt x="533" y="224" on="1"/>
        <pt x="726" y="224" on="1"/>
        <pt x="883" y="224" on="0"/>
        <pt x="1061" y="436" on="0"/>
        <pt x="1061" y="607" on="1"/>
        <pt x="1061" y="850" on="1"/>
        <pt x="1061" y="1019" on="0"/>
        <pt x="883" y="1231" on="0"/>
        <pt x="726" y="1231" on="1"/>
        <pt x="533" y="1231" on="1"/>
        <pt x="533" y="820" on="1"/>
        <pt x="747" y="820" on="1"/>
      </contour>
    </TTGlyph>
    <TTGlyph name="Eth.smcp" xMin="-2" yMin="0" xMax="1176" yMax="1165">
      <component glyphName="D.smcp" x="0" y="0" flags="0x204"/>
      <component glyphName="crossbar" x="-137" y="-151" flags="0x4"/>
    </TTGlyph>
    <TTGlyph name="Euro" xMin="58" yMin="-21" xMax="992" yMax="1477">
      <contour>
        <pt x="924" y="485" on="1"/>
        <pt x="496" y="485" on="1"/>
        <pt x="496" y="477" on="1"/>
        <pt x="496" y="345" on="0"/>
        <pt x="631" y="203" on="0"/>
        <pt x="751" y="203" on="1"/>
        <pt x="809" y="203" on="0"/>
        <pt x="920" y="220" on="0"/>
        <pt x="971" y="237" on="1"/>
        <pt x="992" y="10" on="1"/>
        <pt x="935" y="-5" on="0"/>
        <pt x="813" y="-21" on="0"/>
        <pt x="751" y="-21" on="1"/>
        <pt x="506" y="-21" on="0"/>
        <pt x="204" y="249" on="0"/>
        <pt x="204" y="477" on="1"/>
        <pt x="204" y="485" on="1"/>
        <pt x="58" y="485" on="1"/>
        <pt x="58" y="638" on="1"/>
        <pt x="204" y="638" on="1"/>
        <pt x="204" y="788" on="1"/>
        <pt x="58" y="788" on="1"/>
        <pt x="58" y="941" on="1"/>
        <pt x="204" y="941" on="1"/>
        <pt x="204" y="954" on="1"/>
        <pt x="204" y="1192" on="0"/>
        <pt x="505" y="1477" on="0"/>
        <pt x="749" y="1477" on="1"/>
        <pt x="809" y="1477" on="0"/>
        <pt x="924" y="1461" on="0"/>
        <pt x="992" y="1446" on="1"/>
        <pt x="971" y="1217" on="1"/>
        <pt x="918" y="1233" on="0"/>
        <pt x="805" y="1252" on="0"/>
        <pt x="749" y="1252" on="1"/>
        <pt x="631" y="1252" on="0"/>
        <pt x="496" y="1094" on="0"/>
        <pt x="496" y="956" on="1"/>
        <pt x="496" y="941" on="1"/>
        <pt x="924" y="941" on="1"/>
        <pt x="924" y="788" on="1"/>
        <pt x="496" y="788" on="1"/>
        <pt x="496" y="638" on="1"/>
        <pt x="924" y="638" on="1"/>
      </contour>
    </TTGlyph>
    <TTGlyph name="F" xMin="56" yMin="0" xMax="1215" yMax="1456">
      <contour>
        <pt x="56" y="175" on="1"/>
        <pt x="211" y="205" on="1"/>
        <pt x="211" y="1250" on="1"/>
        <pt x="56" y="1280" on="1"/>
        <pt x="56" y="1456" on="1"/>
        <pt x="1215" y="1456" on="1"/>
        <pt x="1215" y="1057" on="1"/>
        <pt x="991" y="1057" on="1"/>
        <pt x="978" y="1231" on="1"/>
        <pt x="503" y="1231" on="1"/>
        <pt x="503" y="830" on="1"/>
        <pt x="1013" y="830" on="1"/>
        <pt x="1013" y="605" on="1"/>
        <pt x="503" y="605" on="1"/>
        <pt x="503" y="205" on="1"/>
        <pt x="659" y="175" on="1"/>
        <pt x="659" y="0" on="1"/>
        <pt x="56" y="0" on="1"/>
      </contour>
    </TTGlyph>
    <TTGlyph name="F.smcp" xMin="67" yMin="0" xMax="1096" yMax="1165">
      <contour>
        <pt x="67" y="175" on="1"/>
        <pt x="223" y="205" on="1"/>
        <pt x="223" y="959" on="1"/>
        <pt x="67" y="989" on="1"/>
        <pt x="67" y="1165" on="1"/>
        <pt x="1096" y="1165" on="1"/>
        <pt x="1096" y="796" on="1"/>
        <pt x="873" y="796" on="1"/>
        <pt x="861" y="942" on="1"/>
        <pt x="514" y="942" on="1"/>
        <pt x="514" y="666" on="1"/>
        <pt x="994" y="666" on="1"/>
        <pt x="994" y="455" on="1"/>
        <pt x="514" y="455" on="1"/>
        <pt x="514" y="205" on="1"/>
        <pt x="670" y="175" on="1"/>
        <pt x="670" y="0" on="1"/>
        <pt x="67" y="0" on="1"/>
      </contour>
    </TTGlyph>
    <TTGlyph name="G" xMin="47" yMin="-21" xMax="1263" yMax="1477">
      <contour>
        <pt x="1263" y="162" on="1"/>
        <pt x="1192" y="92" on="0"/>
        <pt x="920" y="-21" on="0"/>
        <pt x="712" y="-21" on="1"/>
        <pt x="417" y="-21" on="0"/>
        <pt x="47" y="374" on="0"/>
        <pt x="47" y="690" on="1"/>
        <pt x="47" y="740" on="1"/>
        <pt x="47" y="1067" on="0"/>
        <pt x="412" y="1477" on="0"/>
        <pt x="706" y="1477" on="1"/>
        <pt x="877" y="1477" on="0"/>
        <pt x="1160" y="1368" on="0"/>
        <pt x="1254" y="1275" on="1"/>
        <pt x="1254" y="982" on="1"/>
        <pt x="1038" y="982" on="1"/>
        <pt x="997" y="1177" on="1"/>
        <pt x="957" y="1211" on="0"/>
        <pt x="826" y="1252" on="0"/>
        <pt x="741" y="1252" on="1"/>
        <pt x="550" y="1252" on="0"/>
        <pt x="338" y="970" on="0"/>
        <pt x="338" y="742" on="1"/>
        <pt x="338" y="690" on="1"/>
        <pt x="338" y="468" on="0"/>
        <pt x="546" y="203" on="0"/>
        <pt x="742" y="203" on="1"/>
        <pt x="830" y="203" on="0"/>
        <pt x="939" y="233" on="0"/>
        <pt x="970" y="253" on="1"/>
        <pt x="970" y="500" on="1"/>
        <pt x="762" y="516" on="1"/>
        <pt x="762" y="721" on="1"/>
        <pt x="1263" y="721" on="1"/>
      </contour>
    </TTGlyph>
    <TTGlyph name="G.smcp" xMin="99" yMin="-17" xMax="1144" yMax="1181">
      <contour>
        <pt x="1144" y="161" on="1"/>
        <pt x="1077" y="86" on="0"/>
        <pt x="832" y="-17" on="0"/>
        <pt x="637" y="-17" on="1"/>
        <pt x="398" y="-17" on="0"/>
        <pt x="99" y="264" on="0"/>
        <pt x="99" y="489" on="1"/>
        <pt x="99" y="675" on="1"/>
        <pt x="99" y="899" on="0"/>
        <pt x="390" y="1181" on="0"/>
        <pt x="618" y="1181" on="1"/>
        <pt x="846" y="1181" on="0"/>
        <pt x="1103" y="986" on="0"/>
        <pt x="1115" y="806" on="1"/>
        <pt x="1114" y="800" on="1"/>
        <pt x="831" y="800" on="1"/>
        <pt x="819" y="882" on="0"/>
        <pt x="716" y="958" on="0"/>
        <pt x="618" y="958" on="1"/>
        <pt x="513" y="958" on="0"/>
        <pt x="390" y="800" on="0"/>
        <pt x="390" y="676" on="1"/>
        <pt x="390" y="489" on="1"/>
        <pt x="390" y="364" on="0"/>
        <pt x="522" y="205" on="0"/>
        <pt x="637" y="205" on="1"/>
        <pt x="724" y="205" on="0"/>
        <pt x="822" y="229" on="0"/>
        <pt x="852" y="250" on="1"/>
        <pt x="852" y="431" on="1"/>
        <pt x="634" y="431" on="1"/>
        <pt x="634" y="624" on="1"/>
        <pt x="1144" y="624" on="1"/>
      </contour>
    </TTGlyph>
    <TTGlyph name="G.ss03" xMin="89" yMin="-21" xMax="1245" yMax="1477">
      <contour>
        <pt x="1245" y="173" on="1"/>
        <pt x="1178" y="97" on="0"/>
        <pt x="904" y="-21" on="0"/>
        <pt x="694" y="-21" on="1"/>
        <pt x="427" y="-21" on="0"/>
        <pt x="89" y="311" on="0"/>
        <pt x="89" y="576" on="1"/>
        <pt x="89" y="880" on="1"/>
        <pt x="89" y="1144" on="0"/>
        <pt x="420" y="1477" on="0"/>
        <pt x="683" y="1477" on="1"/>
        <pt x="852" y="1477" on="0"/>
        <pt x="1128" y="1367" on="0"/>
        <pt x="1218" y="1268" on="1"/>
        <pt x="1241" y="962" on="1"/>
        <pt x="990" y="962" on="1"/>
        <pt x="909" y="1193" on="1"/>
        <pt x="877" y="1220" on="0"/>
        <pt x="772" y="1252" on="0"/>
        <pt x="703" y="1252" on="1"/>
        <pt x="558" y="1252" on="0"/>
        <pt x="380" y="1045" on="0"/>
        <pt x="380" y="882" on="1"/>
        <pt x="380" y="576" on="1"/>
        <pt x="380" y="411" on="0"/>
        <pt x="551" y="203" on="0"/>
        <pt x="694" y="203" on="1"/>
        <pt x="796" y="203" on="0"/>
        <pt x="919" y="238" on="0"/>
        <pt x="952" y="263" on="1"/>
        <pt x="952" y="493" on="1"/>
        <pt x="744" y="510" on="1"/>
        <pt x="744" y="715" on="1"/>
        <pt x="1245" y="715" on="1"/>
      </contour>
    </TTGlyph>
    <TTGlyph name="G.ss04" xMin="89" yMin="-21" xMax="1245" yMax="1477">
      <contour>
        <pt x="1245" y="173" on="1"/>
        <pt x="1178" y="97" on="0"/>
        <pt x="904" y="-21" on="0"/>
        <pt x="694" y="-21" on="1"/>
        <pt x="427" y="-21" on="0"/>
        <pt x="89" y="311" on="0"/>
        <pt x="89" y="576" on="1"/>
        <pt x="89" y="880" on="1"/>
        <pt x="89" y="1144" on="0"/>
        <pt x="415" y="1477" on="0"/>
        <pt x="671" y="1477" on="1"/>
        <pt x="940" y="1477" on="0"/>
        <pt x="1216" y="1223" on="0"/>
        <pt x="1237" y="1007" on="1"/>
        <pt x="1235" y="1001" on="1"/>
        <pt x="960" y="1001" on="1"/>
        <pt x="940" y="1121" on="0"/>
        <pt x="810" y="1252" on="0"/>
        <pt x="678" y="1252" on="1"/>
        <pt x="544" y="1252" on="0"/>
        <pt x="380" y="1045" on="0"/>
        <pt x="380" y="882" on="1"/>
        <pt x="380" y="576" on="1"/>
        <pt x="380" y="411" on="0"/>
        <pt x="551" y="203" on="0"/>
        <pt x="694" y="203" on="1"/>
        <pt x="796" y="203" on="0"/>
        <pt x="919" y="238" on="0"/>
        <pt x="952" y="263" on="1"/>
        <pt x="952" y="519" on="1"/>
        <pt x="766" y="536" on="1"/>
        <pt x="766" y="721" on="1"/>
        <pt x="1245" y="721" on="1"/>
      </contour>
    </TTGlyph>
    <TTGlyph name="Gamma" xMin="65" yMin="0" xMax="1169" yMax="1456">
      <contour>
        <pt x="65" y="175" on="1"/>
        <pt x="220" y="205" on="1"/>
        <pt x="220" y="1250" on="1"/>
        <pt x="65" y="1280" on="1"/>
        <pt x="65" y="1456" on="1"/>
        <pt x="1169" y="1456" on="1"/>
        <pt x="1169" y="1087" on="1"/>
        <pt x="945" y="1087" on="1"/>
        <pt x="933" y="1231" on="1"/>
        <pt x="512" y="1231" on="1"/>
        <pt x="512" y="205" on="1"/>
        <pt x="668" y="175" on="1"/>
        <pt x="668" y="0" on="1"/>
        <pt x="65" y="0" on="1"/>
      </contour>
    </TTGlyph>
    <TTGlyph name="Gbreve" xMin="47" yMin="-21" xMax="1263" yMax="1882">
      <component glyphName="G" x="0" y="0" flags="0x204"/>
      <component glyphName="breve" x="255" y="426" flags="0x4"/>
    </TTGlyph>
    <TTGlyph name="Gbreve.smcp" xMin="99" yMin="-17" xMax="1144" yMax="1568">
      <component glyphName="G.smcp" x="0" y="0" flags="0x204"/>
      <component glyphName="breve" x="163" y="112" flags="0x4"/>
    </TTGlyph>
    <TTGlyph name="Gcircumflex" xMin="47" yMin="-21" xMax="1263" yMax="1846">
      <component glyphName="G" x="0" y="0" flags="0x204"/>
      <component glyphName="circumflex" x="252" y="328" flags="0x4"/>
    </TTGlyph>
    <TTGlyph name="Gcircumflex.smcp" xMin="99" yMin="-17" xMax="1144" yMax="1532">
      <component glyphName="G.smcp" x="0" y="0" flags="0x204"/>
      <component glyphName="circumflex" x="160" y="14" flags="0x4"/>
    </TTGlyph>
    <TTGlyph name="Gcommaaccent" xMin="47" yMin="-614" xMax="1263" yMax="1477">
      <component glyphName="G" x="0" y="0" flags="0x204"/>
      <component glyphName="commaaccent" x="435" y="-370" flags="0x4"/>
    </TTGlyph>
    <TTGlyph name="Gcommaaccent.smcp" xMin="99" yMin="-613" xMax="1144" yMax="1181">
      <component glyphName="G.smcp" x="0" y="0" flags="0x204"/>
      <component glyphName="commaaccent" x="357" y="-369" flags="0x4"/>
    </TTGlyph>
    <TTGlyph name="H" xMin="56" yMin="0" xMax="1544" yMax="1456">
      <contour>
        <pt x="56" y="1280" on="1"/>
        <pt x="56" y="1456" on="1"/>
        <pt x="659" y="1456" on="1"/>
        <pt x="659" y="1280" on="1"/>
        <pt x="503" y="1250" on="1"/>
        <pt x="503" y="830" on="1"/>
        <pt x="1097" y="830" on="1"/>
        <pt x="1097" y="1250" on="1"/>
        <pt x="941" y="1280" on="1"/>
        <pt x="941" y="1456" on="1"/>
        <pt x="1097" y="1456" on="1"/>
        <pt x="1388" y="1456" on="1"/>
        <pt x="1544" y="1456" on="1"/>
        <pt x="1544" y="1280" on="1"/>
        <pt x="1388" y="1250" on="1"/>
        <pt x="1388" y="205" on="1"/>
        <pt x="1544" y="175" on="1"/>
        <pt x="1544" y="0" on="1"/>
        <pt x="941" y="0" on="1"/>
        <pt x="941" y="175" on="1"/>
        <pt x="1097" y="205" on="1"/>
        <pt x="1097" y="605" on="1"/>
        <pt x="503" y="605" on="1"/>
        <pt x="503" y="205" on="1"/>
        <pt x="659" y="175" on="1"/>
        <pt x="659" y="0" on="1"/>
        <pt x="56" y="0" on="1"/>
        <pt x="56" y="175" on="1"/>
        <pt x="211" y="205" on="1"/>
        <pt x="211" y="1250" on="1"/>
      </contour>
    </TTGlyph>
    <TTGlyph name="H.smcp" xMin="67" yMin="0" xMax="1429" yMax="1165">
      <contour>
        <pt x="67" y="989" on="1"/>
        <pt x="67" y="1165" on="1"/>
        <pt x="670" y="1165" on="1"/>
        <pt x="670" y="989" on="1"/>
        <pt x="514" y="959" on="1"/>
        <pt x="514" y="682" on="1"/>
        <pt x="981" y="682" on="1"/>
        <pt x="981" y="959" on="1"/>
        <pt x="825" y="989" on="1"/>
        <pt x="825" y="1165" on="1"/>
        <pt x="981" y="1165" on="1"/>
        <pt x="1273" y="1165" on="1"/>
        <pt x="1429" y="1165" on="1"/>
        <pt x="1429" y="989" on="1"/>
        <pt x="1273" y="959" on="1"/>
        <pt x="1273" y="205" on="1"/>
        <pt x="1429" y="175" on="1"/>
        <pt x="1429" y="0" on="1"/>
        <pt x="825" y="0" on="1"/>
        <pt x="825" y="175" on="1"/>
        <pt x="981" y="205" on="1"/>
        <pt x="981" y="458" on="1"/>
        <pt x="514" y="458" on="1"/>
        <pt x="514" y="205" on="1"/>
        <pt x="670" y="175" on="1"/>
        <pt x="670" y="0" on="1"/>
        <pt x="67" y="0" on="1"/>
        <pt x="67" y="175" on="1"/>
        <pt x="223" y="205" on="1"/>
        <pt x="223" y="959" on="1"/>
      </contour>
    </TTGlyph>
    <TTGlyph name="Hbar" xMin="38" yMin="0" xMax="1526" yMax="1456">
      <contour>
        <pt x="1526" y="1456" on="1"/>
        <pt x="1526" y="1280" on="1"/>
        <pt x="1370" y="1250" on="1"/>
        <pt x="1370" y="1110" on="1"/>
        <pt x="1493" y="1110" on="1"/>
        <pt x="1493" y="958" on="1"/>
        <pt x="1370" y="958" on="1"/>
        <pt x="1370" y="205" on="1"/>
        <pt x="1526" y="175" on="1"/>
        <pt x="1526" y="0" on="1"/>
        <pt x="923" y="0" on="1"/>
        <pt x="923" y="175" on="1"/>
        <pt x="1079" y="205" on="1"/>
        <pt x="1079" y="605" on="1"/>
        <pt x="485" y="605" on="1"/>
        <pt x="485" y="205" on="1"/>
        <pt x="641" y="175" on="1"/>
        <pt x="641" y="0" on="1"/>
        <pt x="38" y="0" on="1"/>
        <pt x="38" y="175" on="1"/>
        <pt x="193" y="205" on="1"/>
        <pt x="193" y="958" on="1"/>
        <pt x="71" y="958" on="1"/>
        <pt x="71" y="1110" on="1"/>
        <pt x="193" y="1110" on="1"/>
        <pt x="193" y="1250" on="1"/>
        <pt x="38" y="1280" on="1"/>
        <pt x="38" y="1456" on="1"/>
        <pt x="641" y="1456" on="1"/>
        <pt x="641" y="1280" on="1"/>
        <pt x="485" y="1250" on="1"/>
        <pt x="485" y="1110" on="1"/>
        <pt x="1079" y="1110" on="1"/>
        <pt x="1079" y="1250" on="1"/>
        <pt x="923" y="1280" on="1"/>
        <pt x="923" y="1456" on="1"/>
        <pt x="1079" y="1456" on="1"/>
        <pt x="1370" y="1456" on="1"/>
      </contour>
      <contour>
        <pt x="485" y="830" on="1"/>
        <pt x="1079" y="830" on="1"/>
        <pt x="1079" y="958" on="1"/>
        <pt x="485" y="958" on="1"/>
      </contour>
    </TTGlyph>
    <TTGlyph name="Hcircumflex" xMin="56" yMin="0" xMax="1544" yMax="1846">
      <component glyphName="H" x="0" y="0" flags="0x204"/>
      <component glyphName="circumflex" x="344" y="328" flags="0x4"/>
    </TTGlyph>
    <TTGlyph name="Hcircumflex.smcp" xMin="67" yMin="0" xMax="1429" yMax="1526">
      <component glyphName="H.smcp" x="0" y="0" flags="0x204"/>
      <component glyphName="circumflex" x="288" y="8" flags="0x4"/>
    </TTGlyph>
    <TTGlyph name="I" xMin="55" yMin="0" xMax="658" yMax="1456">
      <contour>
        <pt x="55" y="1280" on="1"/>
        <pt x="55" y="1456" on="1"/>
        <pt x="658" y="1456" on="1"/>
        <pt x="658" y="1280" on="1"/>
        <pt x="502" y="1250" on="1"/>
        <pt x="502" y="205" on="1"/>
        <pt x="658" y="175" on="1"/>
        <pt x="658" y="0" on="1"/>
        <pt x="55" y="0" on="1"/>
        <pt x="55" y="175" on="1"/>
        <pt x="211" y="205" on="1"/>
        <pt x="211" y="1250" on="1"/>
      </contour>
    </TTGlyph>
    <TTGlyph name="I.smcp" xMin="67" yMin="0" xMax="670" yMax="1165">
      <contour>
        <pt x="67" y="989" on="1"/>
        <pt x="67" y="1165" on="1"/>
        <pt x="670" y="1165" on="1"/>
        <pt x="670" y="989" on="1"/>
        <pt x="515" y="959" on="1"/>
        <pt x="515" y="205" on="1"/>
        <pt x="670" y="175" on="1"/>
        <pt x="670" y="0" on="1"/>
        <pt x="67" y="0" on="1"/>
        <pt x="67" y="175" on="1"/>
        <pt x="223" y="205" on="1"/>
        <pt x="223" y="959" on="1"/>
      </contour>
    </TTGlyph>
    <TTGlyph name="IJ" xMin="55" yMin="-21" xMax="1878" yMax="1456">
      <component glyphName="I" x="0" y="0" flags="0x4"/>
      <component glyphName="J" x="713" y="0" flags="0x4"/>
    </TTGlyph>
    <TTGlyph name="Iacute" xMin="55" yMin="0" xMax="674" yMax="1825">
      <component glyphName="I" x="0" y="0" flags="0x204"/>
      <component glyphName="acute" x="82" y="347" flags="0x4"/>
    </TTGlyph>
    <TTGlyph name="Iacute.smcp" xMin="67" yMin="0" xMax="702" yMax="1505">
      <component glyphName="I.smcp" x="0" y="0" flags="0x204"/>
      <component glyphName="acute" x="110" y="27" flags="0x4"/>
    </TTGlyph>
    <TTGlyph name="Ibreve" xMin="-13" yMin="0" xMax="679" yMax="1882">
      <component glyphName="I" x="0" y="0" flags="0x204"/>
      <component glyphName="breve" x="-113" y="426" flags="0x4"/>
    </TTGlyph>
    <TTGlyph name="Ibreve.smcp" xMin="15" yMin="0" xMax="707" yMax="1562">
      <component glyphName="I.smcp" x="0" y="0" flags="0x204"/>
      <component glyphName="breve" x="-85" y="106" flags="0x4"/>
    </TTGlyph>
    <TTGlyph name="Icircumflex" xMin="-26" yMin="0" xMax="712" yMax="1846">
      <component glyphName="I" x="0" y="0" flags="0x204"/>
      <component glyphName="circumflex" x="-116" y="328" flags="0x4"/>
    </TTGlyph>
    <TTGlyph name="Icircumflex.smcp" xMin="2" yMin="0" xMax="740" yMax="1526">
      <component glyphName="I.smcp" x="0" y="0" flags="0x204"/>
      <component glyphName="circumflex" x="-88" y="8" flags="0x4"/>
    </TTGlyph>
    <TTGlyph name="Idieresis" xMin="-56" yMin="0" xMax="711" yMax="1804">
      <component glyphName="I" x="0" y="0" flags="0x204"/>
      <component glyphName="dieresis" x="-200" y="348" flags="0x4"/>
    </TTGlyph>
    <TTGlyph name="Idieresis.smcp" xMin="-28" yMin="0" xMax="739" yMax="1484">
      <component glyphName="I.smcp" x="0" y="0" flags="0x204"/>
      <component glyphName="dieresis" x="-172" y="28" flags="0x4"/>
    </TTGlyph>
    <TTGlyph name="Idotaccent" xMin="55" yMin="0" xMax="658" yMax="1841">
      <component glyphName="I" x="0" y="0" flags="0x204"/>
      <component glyphName="dotaccent" x="37" y="373" flags="0x4"/>
    </TTGlyph>
    <TTGlyph name="Idotaccent.smcp" xMin="67" yMin="0" xMax="670" yMax="1521">
      <component glyphName="I.smcp" x="0" y="0" flags="0x204"/>
      <component glyphName="dotaccent" x="65" y="53" flags="0x4"/>
    </TTGlyph>
    <TTGlyph name="Igrave" xMin="-14" yMin="0" xMax="658" yMax="1833">
      <component glyphName="I" x="0" y="0" flags="0x204"/>
      <component glyphName="grave" x="-78" y="355" flags="0x4"/>
    </TTGlyph>
    <TTGlyph name="Igrave.smcp" xMin="14" yMin="0" xMax="670" yMax="1513">
      <component glyphName="I.smcp" x="0" y="0" flags="0x204"/>
      <component glyphName="grave" x="-50" y="35" flags="0x4"/>
    </TTGlyph>
    <TTGlyph name="Imacron" xMin="-37" yMin="0" xMax="694" yMax="1781">
      <component glyphName="I" x="0" y="0" flags="0x204"/>
      <component glyphName="macron" x="-183" y="324" flags="0x4"/>
    </TTGlyph>
    <TTGlyph name="Imacron.smcp" xMin="-9" yMin="0" xMax="722" yMax="1461">
      <component glyphName="I.smcp" x="0" y="0" flags="0x204"/>
      <component glyphName="macron" x="-155" y="4" flags="0x4"/>
    </TTGlyph>
    <TTGlyph name="Iogonek" xMin="55" yMin="-424" xMax="769" yMax="1456">
      <component glyphName="I" x="0" y="0" flags="0x204"/>
      <component glyphName="ogonek" x="296" y="0" flags="0x4"/>
    </TTGlyph>
    <TTGlyph name="Iogonek.smcp" xMin="67" yMin="-424" xMax="781" yMax="1165">
      <component glyphName="I.smcp" x="0" y="0" flags="0x204"/>
      <component glyphName="ogonek" x="308" y="0" flags="0x4"/>
    </TTGlyph>
    <TTGlyph name="Iota" xMin="55" yMin="0" xMax="658" yMax="1456">
      <component glyphName="I" x="0" y="0" flags="0x204"/>
    </TTGlyph>
    <TTGlyph name="Iotadieresis" xMin="-56" yMin="0" xMax="711" yMax="1804">
      <component glyphName="I" x="0" y="0" flags="0x204"/>
      <component glyphName="dieresis" x="-200" y="348" flags="0x4"/>
    </TTGlyph>
    <TTGlyph name="Iotatonos" xMin="-164" yMin="0" xMax="758" yMax="1636">
      <component glyphName="I" x="100" y="0" flags="0x4"/>
      <component glyphName="tonos" x="-293" y="2" flags="0x4"/>
    </TTGlyph>
    <TTGlyph name="Itilde" xMin="-44" yMin="0" xMax="705" yMax="1880">
      <component glyphName="I" x="0" y="0" flags="0x204"/>
      <component glyphName="tilde" x="-152" y="351" flags="0x4"/>
    </TTGlyph>
    <TTGlyph name="Itilde.smcp" xMin="-16" yMin="0" xMax="733" yMax="1560">
      <component glyphName="I.smcp" x="0" y="0" flags="0x204"/>
      <component glyphName="tilde" x="-124" y="31" flags="0x4"/>
    </TTGlyph>
    <TTGlyph name="J" xMin="30" yMin="-21" xMax="1165" yMax="1456">
      <contour>
        <pt x="1165" y="1456" on="1"/>
        <pt x="1165" y="1280" on="1"/>
        <pt x="1009" y="1250" on="1"/>
        <pt x="1009" y="437" on="1"/>
        <pt x="1009" y="226" on="0"/>
        <pt x="734" y="-21" on="0"/>
        <pt x="524" y="-21" on="1"/>
        <pt x="296" y="-21" on="0"/>
        <pt x="30" y="201" on="0"/>
        <pt x="35" y="417" on="1"/>
        <pt x="37" y="423" on="1"/>
        <pt x="321" y="423" on="1"/>
        <pt x="321" y="308" on="0"/>
        <pt x="431" y="203" on="0"/>
        <pt x="524" y="203" on="1"/>
        <pt x="605" y="203" on="0"/>
        <pt x="718" y="328" on="0"/>
        <pt x="718" y="437" on="1"/>
        <pt x="718" y="1250" on="1"/>
        <pt x="562" y="1280" on="1"/>
        <pt x="562" y="1456" on="1"/>
        <pt x="1009" y="1456" on="1"/>
      </contour>
    </TTGlyph>
    <TTGlyph name="J.smcp" xMin="40" yMin="-19" xMax="1098" yMax="1165">
      <contour>
        <pt x="1098" y="1165" on="1"/>
        <pt x="1098" y="989" on="1"/>
        <pt x="943" y="959" on="1"/>
        <pt x="943" y="383" on="1"/>
        <pt x="943" y="200" on="0"/>
        <pt x="694" y="-19" on="0"/>
        <pt x="499" y="-19" on="1"/>
        <pt x="288" y="-19" on="0"/>
        <pt x="40" y="177" on="0"/>
        <pt x="46" y="361" on="1"/>
        <pt x="48" y="367" on="1"/>
        <pt x="332" y="367" on="1"/>
        <pt x="332" y="285" on="0"/>
        <pt x="426" y="204" on="0"/>
        <pt x="499" y="204" on="1"/>
        <pt x="565" y="204" on="0"/>
        <pt x="651" y="301" on="0"/>
        <pt x="651" y="383" on="1"/>
        <pt x="651" y="959" on="1"/>
        <pt x="495" y="989" on="1"/>
        <pt x="495" y="1165" on="1"/>
        <pt x="943" y="1165" on="1"/>
      </contour>
    </TTGlyph>
    <TTGlyph name="Jcircumflex" xMin="30" yMin="-21" xMax="1239" yMax="1843">
      <component glyphName="J" x="0" y="0" flags="0x204"/>
      <component glyphName="circumflex" x="411" y="325" flags="0x4"/>
    </TTGlyph>
    <TTGlyph name="Jcircumflex.smcp" xMin="40" yMin="-19" xMax="1150" yMax="1524">
      <component glyphName="J.smcp" x="0" y="0" flags="0x204"/>
      <component glyphName="circumflex" x="322" y="6" flags="0x4"/>
    </TTGlyph>
    <TTGlyph name="K" xMin="56" yMin="0" xMax="1433" yMax="1456">
      <contour>
        <pt x="56" y="175" on="1"/>
        <pt x="211" y="205" on="1"/>
        <pt x="211" y="1250" on="1"/>
        <pt x="56" y="1280" on="1"/>
        <pt x="56" y="1456" on="1"/>
        <pt x="651" y="1456" on="1"/>
        <pt x="651" y="1280" on="1"/>
        <pt x="503" y="1250" on="1"/>
        <pt x="503" y="861" on="1"/>
        <pt x="630" y="861" on="1"/>
        <pt x="910" y="1268" on="1"/>
        <pt x="824" y="1280" on="1"/>
        <pt x="824" y="1456" on="1"/>
        <pt x="1401" y="1456" on="1"/>
        <pt x="1401" y="1280" on="1"/>
        <pt x="1243" y="1253" on="1"/>
        <pt x="885" y="775" on="1"/>
        <pt x="1287" y="200" on="1"/>
        <pt x="1433" y="175" on="1"/>
        <pt x="1433" y="0" on="1"/>
        <pt x="856" y="0" on="1"/>
        <pt x="856" y="175" on="1"/>
        <pt x="946" y="187" on="1"/>
        <pt x="666" y="608" on="1"/>
        <pt x="503" y="608" on="1"/>
        <pt x="503" y="205" on="1"/>
        <pt x="651" y="175" on="1"/>
        <pt x="651" y="0" on="1"/>
        <pt x="56" y="0" on="1"/>
      </contour>
    </TTGlyph>
    <TTGlyph name="K.smcp" xMin="44" yMin="0" xMax="1235" yMax="1165">
      <contour>
        <pt x="44" y="989" on="1"/>
        <pt x="44" y="1165" on="1"/>
        <pt x="607" y="1165" on="1"/>
        <pt x="607" y="989" on="1"/>
        <pt x="491" y="959" on="1"/>
        <pt x="491" y="694" on="1"/>
        <pt x="579" y="694" on="1"/>
        <pt x="751" y="978" on="1"/>
        <pt x="684" y="989" on="1"/>
        <pt x="684" y="1165" on="1"/>
        <pt x="1213" y="1165" on="1"/>
        <pt x="1213" y="989" on="1"/>
        <pt x="1096" y="963" on="1"/>
        <pt x="850" y="627" on="1"/>
        <pt x="1129" y="198" on="1"/>
        <pt x="1235" y="175" on="1"/>
        <pt x="1235" y="0" on="1"/>
        <pt x="703" y="0" on="1"/>
        <pt x="703" y="175" on="1"/>
        <pt x="763" y="185" on="1"/>
        <pt x="597" y="459" on="1"/>
        <pt x="491" y="459" on="1"/>
        <pt x="491" y="205" on="1"/>
        <pt x="607" y="175" on="1"/>
        <pt x="607" y="0" on="1"/>
        <pt x="44" y="0" on="1"/>
        <pt x="44" y="175" on="1"/>
        <pt x="200" y="205" on="1"/>
        <pt x="200" y="959" on="1"/>
      </contour>
    </TTGlyph>
    <TTGlyph name="Kappa" xMin="56" yMin="0" xMax="1433" yMax="1456">
      <component glyphName="K" x="0" y="0" flags="0x204"/>
    </TTGlyph>
    <TTGlyph name="Kcommaaccent" xMin="56" yMin="-602" xMax="1433" yMax="1456">
      <component glyphName="K" x="0" y="0" flags="0x204"/>
      <component glyphName="commaaccent" x="452" y="-358" flags="0x4"/>
    </TTGlyph>
    <TTGlyph name="Kcommaaccent.smcp" xMin="44" yMin="-609" xMax="1235" yMax="1165">
      <component glyphName="K.smcp" x="0" y="0" flags="0x204"/>
      <component glyphName="commaaccent" x="365" y="-365" flags="0x4"/>
    </TTGlyph>
    <TTGlyph name="L" xMin="56" yMin="0" xMax="1151" yMax="1456">
      <contour>
        <pt x="56" y="0" on="1"/>
        <pt x="56" y="175" on="1"/>
        <pt x="211" y="205" on="1"/>
        <pt x="211" y="1250" on="1"/>
        <pt x="56" y="1280" on="1"/>
        <pt x="56" y="1456" on="1"/>
        <pt x="211" y="1456" on="1"/>
        <pt x="503" y="1456" on="1"/>
        <pt x="659" y="1456" on="1"/>
        <pt x="659" y="1280" on="1"/>
        <pt x="503" y="1250" on="1"/>
        <pt x="503" y="224" on="1"/>
        <pt x="914" y="224" on="1"/>
        <pt x="928" y="407" on="1"/>
        <pt x="1151" y="407" on="1"/>
        <pt x="1151" y="0" on="1"/>
      </contour>
    </TTGlyph>
    <TTGlyph name="L.smcp" xMin="67" yMin="0" xMax="1047" yMax="1165">
      <contour>
        <pt x="67" y="0" on="1"/>
        <pt x="67" y="175" on="1"/>
        <pt x="223" y="205" on="1"/>
        <pt x="223" y="959" on="1"/>
        <pt x="67" y="989" on="1"/>
        <pt x="67" y="1165" on="1"/>
        <pt x="223" y="1165" on="1"/>
        <pt x="514" y="1165" on="1"/>
        <pt x="670" y="1165" on="1"/>
        <pt x="670" y="989" on="1"/>
        <pt x="514" y="959" on="1"/>
        <pt x="514" y="222" on="1"/>
        <pt x="813" y="222" on="1"/>
        <pt x="825" y="368" on="1"/>
        <pt x="1047" y="368" on="1"/>
        <pt x="1047" y="0" on="1"/>
      </contour>
    </TTGlyph>
    <TTGlyph name="Lacute" xMin="56" yMin="0" xMax="1151" yMax="1825">
      <component glyphName="L" x="0" y="0" flags="0x204"/>
      <component glyphName="acute" x="74" y="347" flags="0x4"/>
    </TTGlyph>
    <TTGlyph name="Lacute.smcp" xMin="67" yMin="0" xMax="1047" yMax="1495">
      <component glyphName="L.smcp" x="0" y="0" flags="0x204"/>
      <component glyphName="acute" x="101" y="17" flags="0x4"/>
    </TTGlyph>
    <TTGlyph name="Lambda" xMin="37" yMin="0" xMax="1444" yMax="1456">
      <contour>
        <pt x="37" y="175" on="1"/>
        <pt x="162" y="191" on="1"/>
        <pt x="591" y="1456" on="1"/>
        <pt x="890" y="1456" on="1"/>
        <pt x="1319" y="191" on="1"/>
        <pt x="1444" y="175" on="1"/>
        <pt x="1444" y="0" on="1"/>
        <pt x="923" y="0" on="1"/>
        <pt x="923" y="175" on="1"/>
        <pt x="1021" y="194" on="1"/>
        <pt x="744" y="1136" on="1"/>
        <pt x="738" y="1136" on="1"/>
        <pt x="459" y="194" on="1"/>
        <pt x="558" y="175" on="1"/>
        <pt x="558" y="0" on="1"/>
        <pt x="37" y="0" on="1"/>
      </contour>
    </TTGlyph>
    <TTGlyph name="Lcaron" xMin="56" yMin="0" xMax="1151" yMax="1456">
      <component glyphName="L" x="0" y="0" flags="0x204"/>
      <component glyphName="commaaccent" x="588" y="1183" flags="0x4"/>
    </TTGlyph>
    <TTGlyph name="Lcaron.smcp" xMin="67" yMin="0" xMax="1047" yMax="1165">
      <component glyphName="L.smcp" x="0" y="0" flags="0x204"/>
      <component glyphName="commaaccent" x="645" y="892" flags="0x4"/>
    </TTGlyph>
    <TTGlyph name="Lcommaaccent" xMin="56" yMin="-601" xMax="1151" yMax="1456">
      <component glyphName="L" x="0" y="0" flags="0x204"/>
      <component glyphName="commaaccent" x="378" y="-357" flags="0x4"/>
    </TTGlyph>
    <TTGlyph name="Lcommaaccent.smcp" xMin="67" yMin="-603" xMax="1047" yMax="1165">
      <component glyphName="L.smcp" x="0" y="0" flags="0x204"/>
      <component glyphName="commaaccent" x="246" y="-359" flags="0x4"/>
    </TTGlyph>
    <TTGlyph name="Ldot" xMin="56" yMin="0" xMax="1151" yMax="1456">
      <component glyphName="L" x="0" y="0" flags="0x204"/>
      <component glyphName="dotaccent" x="490" y="-536" flags="0x4"/>
    </TTGlyph>
    <TTGlyph name="Ldot.smcp" xMin="67" yMin="0" xMax="1047" yMax="1165">
      <component glyphName="L.smcp" x="0" y="0" flags="0x204"/>
      <component glyphName="dotaccent" x="517" y="-706" flags="0x4"/>
    </TTGlyph>
    <TTGlyph name="Lslash" xMin="56" yMin="0" xMax="1151" yMax="1456">
      <contour>
        <pt x="659" y="1280" on="1"/>
        <pt x="503" y="1250" on="1"/>
        <pt x="503" y="890" on="1"/>
        <pt x="723" y="954" on="1"/>
        <pt x="723" y="759" on="1"/>
        <pt x="503" y="695" on="1"/>
        <pt x="503" y="224" on="1"/>
        <pt x="914" y="224" on="1"/>
        <pt x="928" y="407" on="1"/>
        <pt x="1151" y="407" on="1"/>
        <pt x="1151" y="0" on="1"/>
        <pt x="56" y="0" on="1"/>
        <pt x="56" y="175" on="1"/>
        <pt x="211" y="205" on="1"/>
        <pt x="211" y="611" on="1"/>
        <pt x="73" y="572" on="1"/>
        <pt x="73" y="767" on="1"/>
        <pt x="211" y="806" on="1"/>
        <pt x="211" y="1250" on="1"/>
        <pt x="56" y="1280" on="1"/>
        <pt x="56" y="1456" on="1"/>
        <pt x="659" y="1456" on="1"/>
      </contour>
    </TTGlyph>
    <TTGlyph name="M" xMin="56" yMin="0" xMax="1881" yMax="1456">
      <contour>
        <pt x="1461" y="1077" on="1"/>
        <pt x="1455" y="1078" on="1"/>
        <pt x="1065" y="0" on="1"/>
        <pt x="869" y="0" on="1"/>
        <pt x="481" y="1074" on="1"/>
        <pt x="475" y="1073" on="1"/>
        <pt x="503" y="434" on="1"/>
        <pt x="503" y="205" on="1"/>
        <pt x="659" y="175" on="1"/>
        <pt x="659" y="0" on="1"/>
        <pt x="56" y="0" on="1"/>
        <pt x="56" y="175" on="1"/>
        <pt x="211" y="205" on="1"/>
        <pt x="211" y="1250" on="1"/>
        <pt x="56" y="1280" on="1"/>
        <pt x="56" y="1456" on="1"/>
        <pt x="211" y="1456" on="1"/>
        <pt x="592" y="1456" on="1"/>
        <pt x="963" y="383" on="1"/>
        <pt x="969" y="383" on="1"/>
        <pt x="1343" y="1456" on="1"/>
        <pt x="1881" y="1456" on="1"/>
        <pt x="1881" y="1280" on="1"/>
        <pt x="1725" y="1250" on="1"/>
        <pt x="1725" y="205" on="1"/>
        <pt x="1881" y="175" on="1"/>
        <pt x="1881" y="0" on="1"/>
        <pt x="1278" y="0" on="1"/>
        <pt x="1278" y="175" on="1"/>
        <pt x="1433" y="205" on="1"/>
        <pt x="1433" y="434" on="1"/>
      </contour>
    </TTGlyph>
    <TTGlyph name="M.smcp" xMin="67" yMin="0" xMax="1665" yMax="1165">
      <contour>
        <pt x="860" y="341" on="1"/>
        <pt x="866" y="341" on="1"/>
        <pt x="1129" y="1165" on="1"/>
        <pt x="1509" y="1165" on="1"/>
        <pt x="1665" y="1165" on="1"/>
        <pt x="1665" y="989" on="1"/>
        <pt x="1509" y="959" on="1"/>
        <pt x="1509" y="205" on="1"/>
        <pt x="1665" y="175" on="1"/>
        <pt x="1665" y="0" on="1"/>
        <pt x="1100" y="0" on="1"/>
        <pt x="1100" y="175" on="1"/>
        <pt x="1218" y="205" on="1"/>
        <pt x="1218" y="721" on="1"/>
        <pt x="1212" y="722" on="1"/>
        <pt x="961" y="0" on="1"/>
        <pt x="765" y="0" on="1"/>
        <pt x="520" y="707" on="1"/>
        <pt x="514" y="706" on="1"/>
        <pt x="514" y="205" on="1"/>
        <pt x="632" y="175" on="1"/>
        <pt x="632" y="0" on="1"/>
        <pt x="67" y="0" on="1"/>
        <pt x="67" y="175" on="1"/>
        <pt x="223" y="205" on="1"/>
        <pt x="223" y="959" on="1"/>
        <pt x="67" y="989" on="1"/>
        <pt x="67" y="1165" on="1"/>
        <pt x="223" y="1165" on="1"/>
        <pt x="599" y="1165" on="1"/>
      </contour>
    </TTGlyph>
    <TTGlyph name="Mu" xMin="56" yMin="0" xMax="1881" yMax="1456">
      <component glyphName="M" x="0" y="0" flags="0x204"/>
    </TTGlyph>
    <TTGlyph name="N" xMin="56" yMin="0" xMax="1544" yMax="1456">
      <contour>
        <pt x="1544" y="1456" on="1"/>
        <pt x="1544" y="1280" on="1"/>
        <pt x="1388" y="1250" on="1"/>
        <pt x="1388" y="0" on="1"/>
        <pt x="1097" y="0" on="1"/>
        <pt x="509" y="980" on="1"/>
        <pt x="503" y="979" on="1"/>
        <pt x="503" y="205" on="1"/>
        <pt x="659" y="175" on="1"/>
        <pt x="659" y="0" on="1"/>
        <pt x="56" y="0" on="1"/>
        <pt x="56" y="175" on="1"/>
        <pt x="211" y="205" on="1"/>
        <pt x="211" y="1250" on="1"/>
        <pt x="56" y="1280" on="1"/>
        <pt x="56" y="1456" on="1"/>
        <pt x="211" y="1456" on="1"/>
        <pt x="503" y="1456" on="1"/>
        <pt x="1091" y="476" on="1"/>
        <pt x="1097" y="477" on="1"/>
        <pt x="1097" y="1250" on="1"/>
        <pt x="941" y="1280" on="1"/>
        <pt x="941" y="1456" on="1"/>
        <pt x="1388" y="1456" on="1"/>
      </contour>
    </TTGlyph>
    <TTGlyph name="N.smcp" xMin="67" yMin="0" xMax="1422" yMax="1165">
      <contour>
        <pt x="1422" y="1165" on="1"/>
        <pt x="1422" y="989" on="1"/>
        <pt x="1266" y="959" on="1"/>
        <pt x="1266" y="0" on="1"/>
        <pt x="974" y="0" on="1"/>
        <pt x="520" y="719" on="1"/>
        <pt x="514" y="717" on="1"/>
        <pt x="514" y="205" on="1"/>
        <pt x="670" y="175" on="1"/>
        <pt x="670" y="0" on="1"/>
        <pt x="67" y="0" on="1"/>
        <pt x="67" y="175" on="1"/>
        <pt x="223" y="205" on="1"/>
        <pt x="223" y="959" on="1"/>
        <pt x="67" y="989" on="1"/>
        <pt x="67" y="1165" on="1"/>
        <pt x="223" y="1165" on="1"/>
        <pt x="514" y="1165" on="1"/>
        <pt x="968" y="449" on="1"/>
        <pt x="974" y="451" on="1"/>
        <pt x="974" y="959" on="1"/>
        <pt x="819" y="989" on="1"/>
        <pt x="819" y="1165" on="1"/>
        <pt x="1266" y="1165" on="1"/>
      </contour>
    </TTGlyph>
    <TTGlyph name="Nacute" xMin="56" yMin="0" xMax="1544" yMax="1826">
      <component glyphName="N" x="0" y="0" flags="0x204"/>
      <component glyphName="acute" x="528" y="348" flags="0x4"/>
    </TTGlyph>
    <TTGlyph name="Nacute.smcp" xMin="67" yMin="0" xMax="1422" yMax="1505">
      <component glyphName="N.smcp" x="0" y="0" flags="0x204"/>
      <component glyphName="acute" x="441" y="27" flags="0x4"/>
    </TTGlyph>
    <TTGlyph name="Ncaron" xMin="56" yMin="0" xMax="1544" yMax="1867">
      <component glyphName="N" x="0" y="0" flags="0x204"/>
      <component glyphName="caron" x="317" y="343" flags="0x4"/>
    </TTGlyph>
    <TTGlyph name="Ncaron.smcp" xMin="67" yMin="0" xMax="1422" yMax="1546">
      <component glyphName="N.smcp" x="0" y="0" flags="0x204"/>
      <component glyphName="caron" x="230" y="22" flags="0x4"/>
    </TTGlyph>
    <TTGlyph name="Ncommaaccent" xMin="56" yMin="-601" xMax="1544" yMax="1456">
      <component glyphName="N" x="0" y="0" flags="0x204"/>
      <component glyphName="commaaccent" x="516" y="-357" flags="0x4"/>
    </TTGlyph>
    <TTGlyph name="Ncommaaccent.smcp" xMin="67" yMin="-609" xMax="1422" yMax="1165">
      <component glyphName="N.smcp" x="0" y="0" flags="0x204"/>
      <component glyphName="commaaccent" x="471" y="-365" flags="0x4"/>
    </TTGlyph>
    <TTGlyph name="Ntilde" xMin="56" yMin="0" xMax="1544" yMax="1881">
      <component glyphName="N" x="0" y="0" flags="0x204"/>
      <component glyphName="tilde" x="293" y="352" flags="0x4"/>
    </TTGlyph>
    <TTGlyph name="Ntilde.smcp" xMin="67" yMin="0" xMax="1422" yMax="1560">
      <component glyphName="N.smcp" x="0" y="0" flags="0x204"/>
      <component glyphName="tilde" x="206" y="31" flags="0x4"/>
    </TTGlyph>
    <TTGlyph name="Nu" xMin="56" yMin="0" xMax="1544" yMax="1456">
      <component glyphName="N" x="0" y="0" flags="0x204"/>
    </TTGlyph>
    <TTGlyph name="O" xMin="67" yMin="-21" xMax="1387" yMax="1477">
      <contour>
        <pt x="1387" y="717" on="1"/>
        <pt x="1387" y="397" on="0"/>
        <pt x="1021" y="-21" on="0"/>
        <pt x="725" y="-21" on="1"/>
        <pt x="430" y="-21" on="0"/>
        <pt x="67" y="397" on="0"/>
        <pt x="67" y="717" on="1"/>
        <pt x="67" y="739" on="1"/>
        <pt x="67" y="1057" on="0"/>
        <pt x="429" y="1477" on="0"/>
        <pt x="724" y="1477" on="1"/>
        <pt x="1020" y="1477" on="0"/>
        <pt x="1387" y="1057" on="0"/>
        <pt x="1387" y="739" on="1"/>
      </contour>
      <contour>
        <pt x="1096" y="741" on="1"/>
        <pt x="1096" y="967" on="0"/>
        <pt x="908" y="1249" on="0"/>
        <pt x="724" y="1249" on="1"/>
        <pt x="540" y="1249" on="0"/>
        <pt x="359" y="969" on="0"/>
        <pt x="359" y="741" on="1"/>
        <pt x="359" y="717" on="1"/>
        <pt x="359" y="487" on="0"/>
        <pt x="542" y="206" on="0"/>
        <pt x="725" y="206" on="1"/>
        <pt x="910" y="206" on="0"/>
        <pt x="1096" y="487" on="0"/>
        <pt x="1096" y="717" on="1"/>
      </contour>
    </TTGlyph>
    <TTGlyph name="O.smcp" xMin="100" yMin="-19" xMax="1151" yMax="1181">
      <contour>
        <pt x="1151" y="496" on="1"/>
        <pt x="1151" y="267" on="0"/>
        <pt x="859" y="-19" on="0"/>
        <pt x="626" y="-19" on="1"/>
        <pt x="393" y="-19" on="0"/>
        <pt x="100" y="268" on="0"/>
        <pt x="100" y="496" on="1"/>
        <pt x="100" y="668" on="1"/>
        <pt x="100" y="895" on="0"/>
        <pt x="392" y="1181" on="0"/>
        <pt x="625" y="1181" on="1"/>
        <pt x="857" y="1181" on="0"/>
        <pt x="1151" y="895" on="0"/>
        <pt x="1151" y="668" on="1"/>
      </contour>
      <contour>
        <pt x="859" y="669" on="1"/>
        <pt x="859" y="796" on="0"/>
        <pt x="733" y="958" on="0"/>
        <pt x="625" y="958" on="1"/>
        <pt x="514" y="958" on="0"/>
        <pt x="391" y="797" on="0"/>
        <pt x="391" y="669" on="1"/>
        <pt x="391" y="496" on="1"/>
        <pt x="391" y="368" on="0"/>
        <pt x="515" y="204" on="0"/>
        <pt x="626" y="204" on="1"/>
        <pt x="734" y="204" on="0"/>
        <pt x="859" y="368" on="0"/>
        <pt x="859" y="496" on="1"/>
      </contour>
    </TTGlyph>
    <TTGlyph name="O.ss04" xMin="89" yMin="-21" xMax="1304" yMax="1477">
      <contour>
        <pt x="1304" y="597" on="1"/>
        <pt x="1304" y="328" on="0"/>
        <pt x="966" y="-21" on="0"/>
        <pt x="695" y="-21" on="1"/>
        <pt x="425" y="-21" on="0"/>
        <pt x="89" y="329" on="0"/>
        <pt x="89" y="597" on="1"/>
        <pt x="89" y="859" on="1"/>
        <pt x="89" y="1126" on="0"/>
        <pt x="424" y="1477" on="0"/>
        <pt x="693" y="1477" on="1"/>
        <pt x="964" y="1477" on="0"/>
        <pt x="1304" y="1126" on="0"/>
        <pt x="1304" y="859" on="1"/>
      </contour>
      <contour>
        <pt x="1013" y="861" on="1"/>
        <pt x="1013" y="1031" on="0"/>
        <pt x="843" y="1249" on="0"/>
        <pt x="693" y="1249" on="1"/>
        <pt x="545" y="1249" on="0"/>
        <pt x="380" y="1031" on="0"/>
        <pt x="380" y="861" on="1"/>
        <pt x="380" y="597" on="1"/>
        <pt x="380" y="424" on="0"/>
        <pt x="546" y="206" on="0"/>
        <pt x="695" y="206" on="1"/>
        <pt x="845" y="206" on="0"/>
        <pt x="1013" y="424" on="0"/>
        <pt x="1013" y="597" on="1"/>
      </contour>
    </TTGlyph>
    <TTGlyph name="OE" xMin="103" yMin="-21" xMax="1936" yMax="1477">
      <contour>
        <pt x="1724" y="640" on="1"/>
        <pt x="1231" y="640" on="1"/>
        <pt x="1231" y="224" on="1"/>
        <pt x="1701" y="224" on="1"/>
        <pt x="1714" y="398" on="1"/>
        <pt x="1936" y="398" on="1"/>
        <pt x="1936" y="0" on="1"/>
        <pt x="998" y="0" on="1"/>
        <pt x="906" y="-10" on="0"/>
        <pt x="777" y="-21" on="0"/>
        <pt x="710" y="-21" on="1"/>
        <pt x="440" y="-21" on="0"/>
        <pt x="103" y="311" on="0"/>
        <pt x="103" y="576" on="1"/>
        <pt x="103" y="880" on="1"/>
        <pt x="103" y="1145" on="0"/>
        <pt x="438" y="1477" on="0"/>
        <pt x="708" y="1477" on="1"/>
        <pt x="777" y="1477" on="0"/>
        <pt x="919" y="1465" on="0"/>
        <pt x="998" y="1456" on="1"/>
        <pt x="1934" y="1456" on="1"/>
        <pt x="1934" y="1057" on="1"/>
        <pt x="1710" y="1057" on="1"/>
        <pt x="1697" y="1231" on="1"/>
        <pt x="1231" y="1231" on="1"/>
        <pt x="1231" y="865" on="1"/>
        <pt x="1724" y="865" on="1"/>
      </contour>
      <contour>
        <pt x="710" y="204" on="1"/>
        <pt x="768" y="204" on="0"/>
        <pt x="883" y="213" on="0"/>
        <pt x="939" y="222" on="1"/>
        <pt x="939" y="1233" on="1"/>
        <pt x="880" y="1241" on="0"/>
        <pt x="765" y="1252" on="0"/>
        <pt x="708" y="1252" on="1"/>
        <pt x="560" y="1252" on="0"/>
        <pt x="394" y="1063" on="0"/>
        <pt x="394" y="882" on="1"/>
        <pt x="394" y="576" on="1"/>
        <pt x="394" y="394" on="0"/>
        <pt x="562" y="204" on="0"/>
      </contour>
    </TTGlyph>
    <TTGlyph name="Oacute" xMin="67" yMin="-21" xMax="1387" yMax="1825">
      <component glyphName="O" x="0" y="0" flags="0x204"/>
      <component glyphName="acute" x="469" y="347" flags="0x4"/>
    </TTGlyph>
    <TTGlyph name="Oacute.smcp" xMin="100" yMin="-19" xMax="1151" yMax="1497">
      <component glyphName="O.smcp" x="0" y="0" flags="0x204"/>
      <component glyphName="acute" x="368" y="19" flags="0x4"/>
    </TTGlyph>
    <TTGlyph name="Obreve" xMin="67" yMin="-21" xMax="1387" yMax="1882">
      <component glyphName="O" x="0" y="0" flags="0x204"/>
      <component glyphName="breve" x="273" y="426" flags="0x4"/>
    </TTGlyph>
    <TTGlyph name="Obreve.smcp" xMin="100" yMin="-19" xMax="1151" yMax="1554">
      <component glyphName="O.smcp" x="0" y="0" flags="0x204"/>
      <component glyphName="breve" x="172" y="98" flags="0x4"/>
    </TTGlyph>
    <TTGlyph name="Ocircumflex" xMin="67" yMin="-21" xMax="1387" yMax="1846">
      <component glyphName="O" x="0" y="0" flags="0x204"/>
      <component glyphName="circumflex" x="270" y="328" flags="0x4"/>
    </TTGlyph>
    <TTGlyph name="Ocircumflex.smcp" xMin="100" yMin="-19" xMax="1151" yMax="1518">
      <component glyphName="O.smcp" x="0" y="0" flags="0x204"/>
      <component glyphName="circumflex" x="169" y="0" flags="0x4"/>
    </TTGlyph>
    <TTGlyph name="Odieresis" xMin="67" yMin="-21" xMax="1387" yMax="1804">
      <component glyphName="O" x="0" y="0" flags="0x204"/>
      <component glyphName="dieresis" x="186" y="348" flags="0x4"/>
    </TTGlyph>
    <TTGlyph name="Odieresis.smcp" xMin="100" yMin="-19" xMax="1151" yMax="1476">
      <component glyphName="O.smcp" x="0" y="0" flags="0x204"/>
      <component glyphName="dieresis" x="85" y="20" flags="0x4"/>
    </TTGlyph>
    <TTGlyph name="Ograve" xMin="67" yMin="-21" xMax="1387" yMax="1833">
      <component glyphName="O" x="0" y="0" flags="0x204"/>
      <component glyphName="grave" x="308" y="355" flags="0x4"/>
    </TTGlyph>
    <TTGlyph name="Ograve.smcp" xMin="100" yMin="-19" xMax="1151" yMax="1505">
      <component glyphName="O.smcp" x="0" y="0" flags="0x204"/>
      <component glyphName="grave" x="207" y="27" flags="0x4"/>
    </TTGlyph>
    <TTGlyph name="Ohorn" xMin="71" yMin="-21" xMax="1449" yMax="1570">
      <contour>
        <pt x="1391" y="717" on="1"/>
        <pt x="1391" y="397" on="0"/>
        <pt x="1025" y="-21" on="0"/>
        <pt x="729" y="-21" on="1"/>
        <pt x="434" y="-21" on="0"/>
        <pt x="71" y="397" on="0"/>
        <pt x="71" y="717" on="1"/>
        <pt x="71" y="739" on="1"/>
        <pt x="71" y="1057" on="0"/>
        <pt x="433" y="1477" on="0"/>
        <pt x="728" y="1477" on="1"/>
        <pt x="858" y="1477" on="0"/>
        <pt x="1081" y="1389" on="0"/>
        <pt x="1167" y="1309" on="1"/>
        <pt x="1214" y="1336" on="0"/>
        <pt x="1254" y="1466" on="0"/>
        <pt x="1254" y="1570" on="1"/>
        <pt x="1449" y="1570" on="1"/>
        <pt x="1449" y="1423" on="0"/>
        <pt x="1363" y="1224" on="0"/>
        <pt x="1275" y="1176" on="1"/>
        <pt x="1331" y="1084" on="0"/>
        <pt x="1391" y="862" on="0"/>
        <pt x="1391" y="739" on="1"/>
      </contour>
      <contour>
        <pt x="1100" y="741" on="1"/>
        <pt x="1100" y="967" on="0"/>
        <pt x="912" y="1249" on="0"/>
        <pt x="728" y="1249" on="1"/>
        <pt x="544" y="1249" on="0"/>
        <pt x="363" y="969" on="0"/>
        <pt x="363" y="741" on="1"/>
        <pt x="363" y="717" on="1"/>
        <pt x="363" y="487" on="0"/>
        <pt x="546" y="206" on="0"/>
        <pt x="729" y="206" on="1"/>
        <pt x="914" y="206" on="0"/>
        <pt x="1100" y="487" on="0"/>
        <pt x="1100" y="717" on="1"/>
      </contour>
    </TTGlyph>
    <TTGlyph name="Ohungarumlaut" xMin="67" yMin="-21" xMax="1387" yMax="1866">
      <component glyphName="O" x="0" y="0" flags="0x204"/>
      <component glyphName="hungarumlaut" x="275" y="348" flags="0x4"/>
    </TTGlyph>
    <TTGlyph name="Ohungarumlaut.smcp" xMin="100" yMin="-19" xMax="1151" yMax="1538">
      <component glyphName="O.smcp" x="0" y="0" flags="0x204"/>
      <component glyphName="hungarumlaut" x="174" y="20" flags="0x4"/>
    </TTGlyph>
    <TTGlyph name="Omacron" xMin="67" yMin="-21" xMax="1387" yMax="1781">
      <component glyphName="O" x="0" y="0" flags="0x204"/>
      <component glyphName="macron" x="203" y="324" flags="0x4"/>
    </TTGlyph>
    <TTGlyph name="Omacron.smcp" xMin="100" yMin="-19" xMax="1151" yMax="1454">
      <component glyphName="O.smcp" x="0" y="0" flags="0x204"/>
      <component glyphName="macron" x="102" y="-3" flags="0x4"/>
    </TTGlyph>
    <TTGlyph name="Omega" xMin="76" yMin="0" xMax="1267" yMax="1477">
      <contour>
        <pt x="727" y="245" on="1"/>
        <pt x="829" y="279" on="0"/>
        <pt x="945" y="548" on="0"/>
        <pt x="945" y="791" on="1"/>
        <pt x="945" y="838" on="1"/>
        <pt x="945" y="1039" on="0"/>
        <pt x="800" y="1249" on="0"/>
        <pt x="670" y="1249" on="1"/>
        <pt x="542" y="1249" on="0"/>
        <pt x="399" y="1038" on="0"/>
        <pt x="399" y="838" on="1"/>
        <pt x="399" y="791" on="1"/>
        <pt x="399" y="546" on="0"/>
        <pt x="516" y="278" on="0"/>
        <pt x="622" y="245" on="1"/>
        <pt x="622" y="0" on="1"/>
        <pt x="118" y="0" on="1"/>
        <pt x="118" y="227" on="1"/>
        <pt x="374" y="227" on="1"/>
        <pt x="241" y="318" on="0"/>
        <pt x="76" y="620" on="0"/>
        <pt x="76" y="791" on="1"/>
        <pt x="76" y="836" on="1"/>
        <pt x="76" y="1118" on="0"/>
        <pt x="406" y="1477" on="0"/>
        <pt x="670" y="1477" on="1"/>
        <pt x="934" y="1477" on="0"/>
        <pt x="1267" y="1118" on="0"/>
        <pt x="1267" y="836" on="1"/>
        <pt x="1267" y="791" on="1"/>
        <pt x="1267" y="619" on="0"/>
        <pt x="1102" y="319" on="0"/>
        <pt x="971" y="227" on="1"/>
        <pt x="1232" y="227" on="1"/>
        <pt x="1232" y="0" on="1"/>
        <pt x="727" y="0" on="1"/>
      </contour>
    </TTGlyph>
    <TTGlyph name="Omegatonos" xMin="-59" yMin="0" xMax="1287" yMax="1634">
      <component glyphName="Omega" x="20" y="0" flags="0x4"/>
      <component glyphName="tonos" x="-188" y="0" flags="0x4"/>
    </TTGlyph>
    <TTGlyph name="Omicron" xMin="67" yMin="-21" xMax="1387" yMax="1477">
      <component glyphName="O" x="0" y="0" flags="0x204"/>
    </TTGlyph>
    <TTGlyph name="Omicrontonos" xMin="-24" yMin="-21" xMax="1407" yMax="1634">
      <component glyphName="O" x="20" y="0" flags="0x4"/>
      <component glyphName="tonos" x="-153" y="0" flags="0x4"/>
    </TTGlyph>
    <TTGlyph name="Oslash" xMin="72" yMin="-95" xMax="1392" yMax="1518">
      <contour>
        <pt x="1392" y="717" on="1"/>
        <pt x="1392" y="397" on="0"/>
        <pt x="1026" y="-21" on="0"/>
        <pt x="730" y="-21" on="1"/>
        <pt x="636" y="-21" on="0"/>
        <pt x="468" y="24" on="0"/>
        <pt x="397" y="68" on="1"/>
        <pt x="302" y="-95" on="1"/>
        <pt x="158" y="-95" on="1"/>
        <pt x="297" y="144" on="1"/>
        <pt x="189" y="244" on="0"/>
        <pt x="72" y="540" on="0"/>
        <pt x="72" y="717" on="1"/>
        <pt x="72" y="739" on="1"/>
        <pt x="72" y="1057" on="0"/>
        <pt x="434" y="1477" on="0"/>
        <pt x="729" y="1477" on="1"/>
        <pt x="812" y="1477" on="0"/>
        <pt x="964" y="1440" on="0"/>
        <pt x="1032" y="1405" on="1"/>
        <pt x="1098" y="1518" on="1"/>
        <pt x="1242" y="1518" on="1"/>
        <pt x="1136" y="1337" on="1"/>
        <pt x="1258" y="1236" on="0"/>
        <pt x="1392" y="925" on="0"/>
        <pt x="1392" y="739" on="1"/>
      </contour>
      <contour>
        <pt x="1101" y="741" on="1"/>
        <pt x="1101" y="853" on="0"/>
        <pt x="1053" y="1041" on="0"/>
        <pt x="1007" y="1103" on="1"/>
        <pt x="1001" y="1104" on="1"/>
        <pt x="519" y="277" on="1"/>
        <pt x="560" y="242" on="0"/>
        <pt x="665" y="206" on="0"/>
        <pt x="730" y="206" on="1"/>
        <pt x="915" y="206" on="0"/>
        <pt x="1101" y="487" on="0"/>
        <pt x="1101" y="717" on="1"/>
      </contour>
      <contour>
        <pt x="364" y="717" on="1"/>
        <pt x="364" y="617" on="0"/>
        <pt x="398" y="448" on="0"/>
        <pt x="433" y="389" on="1"/>
        <pt x="439" y="388" on="1"/>
        <pt x="912" y="1200" on="1"/>
        <pt x="873" y="1223" on="0"/>
        <pt x="781" y="1249" on="0"/>
        <pt x="729" y="1249" on="1"/>
        <pt x="545" y="1249" on="0"/>
        <pt x="364" y="969" on="0"/>
        <pt x="364" y="741" on="1"/>
      </contour>
    </TTGlyph>
    <TTGlyph name="Oslashacute" xMin="72" yMin="-95" xMax="1392" yMax="1825">
      <component glyphName="Oslash" x="0" y="0" flags="0x204"/>
      <component glyphName="acute" x="455" y="347" flags="0x4"/>
    </TTGlyph>
    <TTGlyph name="Otilde" xMin="67" yMin="-21" xMax="1387" yMax="1880">
      <component glyphName="O" x="0" y="0" flags="0x204"/>
      <component glyphName="tilde" x="234" y="351" flags="0x4"/>
    </TTGlyph>
    <TTGlyph name="Otilde.smcp" xMin="100" yMin="-19" xMax="1151" yMax="1552">
      <component glyphName="O.smcp" x="0" y="0" flags="0x204"/>
      <component glyphName="tilde" x="133" y="23" flags="0x4"/>
    </TTGlyph>
    <TTGlyph name="P" xMin="56" yMin="0" xMax="1288" yMax="1456">
      <contour>
        <pt x="749" y="1456" on="1"/>
        <pt x="999" y="1456" on="0"/>
        <pt x="1288" y="1199" on="0"/>
        <pt x="1288" y="991" on="1"/>
        <pt x="1288" y="782" on="0"/>
        <pt x="999" y="528" on="0"/>
        <pt x="749" y="528" on="1"/>
        <pt x="503" y="528" on="1"/>
        <pt x="503" y="205" on="1"/>
        <pt x="659" y="175" on="1"/>
        <pt x="659" y="0" on="1"/>
        <pt x="56" y="0" on="1"/>
        <pt x="56" y="175" on="1"/>
        <pt x="211" y="205" on="1"/>
        <pt x="211" y="1250" on="1"/>
        <pt x="56" y="1280" on="1"/>
        <pt x="56" y="1456" on="1"/>
        <pt x="211" y="1456" on="1"/>
      </contour>
      <contour>
        <pt x="503" y="753" on="1"/>
        <pt x="749" y="753" on="1"/>
        <pt x="871" y="753" on="0"/>
        <pt x="996" y="886" on="0"/>
        <pt x="996" y="989" on="1"/>
        <pt x="996" y="1094" on="0"/>
        <pt x="871" y="1231" on="0"/>
        <pt x="749" y="1231" on="1"/>
        <pt x="503" y="1231" on="1"/>
      </contour>
    </TTGlyph>
    <TTGlyph name="P.smcp" xMin="57" yMin="0" xMax="1207" yMax="1165">
      <contour>
        <pt x="716" y="1165" on="1"/>
        <pt x="938" y="1165" on="0"/>
        <pt x="1207" y="940" on="0"/>
        <pt x="1207" y="765" on="1"/>
        <pt x="1207" y="589" on="0"/>
        <pt x="938" y="365" on="0"/>
        <pt x="716" y="365" on="1"/>
        <pt x="504" y="365" on="1"/>
        <pt x="504" y="205" on="1"/>
        <pt x="660" y="175" on="1"/>
        <pt x="660" y="0" on="1"/>
        <pt x="57" y="0" on="1"/>
        <pt x="57" y="175" on="1"/>
        <pt x="213" y="205" on="1"/>
        <pt x="213" y="959" on="1"/>
        <pt x="57" y="989" on="1"/>
        <pt x="57" y="1165" on="1"/>
        <pt x="213" y="1165" on="1"/>
      </contour>
      <contour>
        <pt x="504" y="589" on="1"/>
        <pt x="716" y="589" on="1"/>
        <pt x="809" y="589" on="0"/>
        <pt x="916" y="691" on="0"/>
        <pt x="916" y="763" on="1"/>
        <pt x="916" y="836" on="0"/>
        <pt x="808" y="942" on="0"/>
        <pt x="716" y="942" on="1"/>
        <pt x="504" y="942" on="1"/>
      </contour>
    </TTGlyph>
    <TTGlyph name="Phi" xMin="55" yMin="0" xMax="1454" yMax="1456">
      <contour>
        <pt x="610" y="259" on="1"/>
        <pt x="362" y="265" on="0"/>
        <pt x="55" y="515" on="0"/>
        <pt x="55" y="718" on="1"/>
        <pt x="55" y="926" on="0"/>
        <pt x="363" y="1185" on="0"/>
        <pt x="610" y="1191" on="1"/>
        <pt x="610" y="1257" on="1"/>
        <pt x="455" y="1287" on="1"/>
        <pt x="455" y="1456" on="1"/>
        <pt x="902" y="1456" on="1"/>
        <pt x="1057" y="1456" on="1"/>
        <pt x="1057" y="1287" on="1"/>
        <pt x="902" y="1257" on="1"/>
        <pt x="902" y="1191" on="1"/>
        <pt x="1147" y="1184" on="0"/>
        <pt x="1454" y="927" on="0"/>
        <pt x="1454" y="720" on="1"/>
        <pt x="1454" y="517" on="0"/>
        <pt x="1147" y="265" on="0"/>
        <pt x="902" y="259" on="1"/>
        <pt x="902" y="198" on="1"/>
        <pt x="1057" y="168" on="1"/>
        <pt x="1057" y="0" on="1"/>
        <pt x="455" y="0" on="1"/>
        <pt x="455" y="168" on="1"/>
        <pt x="610" y="198" on="1"/>
      </contour>
      <contour>
        <pt x="341" y="718" on="1"/>
        <pt x="341" y="612" on="0"/>
        <pt x="484" y="491" on="0"/>
        <pt x="605" y="490" on="1"/>
        <pt x="610" y="492" on="1"/>
        <pt x="610" y="958" on="1"/>
        <pt x="605" y="960" on="1"/>
        <pt x="484" y="958" on="0"/>
        <pt x="341" y="830" on="0"/>
      </contour>
      <contour>
        <pt x="1168" y="720" on="1"/>
        <pt x="1168" y="831" on="0"/>
        <pt x="1027" y="958" on="0"/>
        <pt x="907" y="960" on="1"/>
        <pt x="902" y="958" on="1"/>
        <pt x="902" y="492" on="1"/>
        <pt x="907" y="490" on="1"/>
        <pt x="1026" y="491" on="0"/>
        <pt x="1168" y="613" on="0"/>
      </contour>
    </TTGlyph>
    <TTGlyph name="Pi" xMin="65" yMin="0" xMax="1553" yMax="1456">
      <contour>
        <pt x="65" y="175" on="1"/>
        <pt x="220" y="205" on="1"/>
        <pt x="220" y="1250" on="1"/>
        <pt x="65" y="1280" on="1"/>
        <pt x="65" y="1456" on="1"/>
        <pt x="1553" y="1456" on="1"/>
        <pt x="1553" y="1280" on="1"/>
        <pt x="1398" y="1250" on="1"/>
        <pt x="1398" y="205" on="1"/>
        <pt x="1553" y="175" on="1"/>
        <pt x="1553" y="0" on="1"/>
        <pt x="951" y="0" on="1"/>
        <pt x="951" y="175" on="1"/>
        <pt x="1106" y="205" on="1"/>
        <pt x="1106" y="1231" on="1"/>
        <pt x="512" y="1231" on="1"/>
        <pt x="512" y="205" on="1"/>
        <pt x="668" y="175" on="1"/>
        <pt x="668" y="0" on="1"/>
        <pt x="65" y="0" on="1"/>
      </contour>
    </TTGlyph>
    <TTGlyph name="Psi" xMin="55" yMin="0" xMax="1702" yMax="1456">
      <contour>
        <pt x="1168" y="1280" on="1"/>
        <pt x="1028" y="1250" on="1"/>
        <pt x="1028" y="621" on="1"/>
        <pt x="1034" y="620" on="1"/>
        <pt x="1149" y="635" on="0"/>
        <pt x="1269" y="817" on="0"/>
        <pt x="1269" y="979" on="1"/>
        <pt x="1269" y="1456" on="1"/>
        <pt x="1561" y="1456" on="1"/>
        <pt x="1702" y="1456" on="1"/>
        <pt x="1702" y="1280" on="1"/>
        <pt x="1561" y="1250" on="1"/>
        <pt x="1561" y="979" on="1"/>
        <pt x="1561" y="719" on="0"/>
        <pt x="1274" y="409" on="0"/>
        <pt x="1028" y="383" on="1"/>
        <pt x="1028" y="205" on="1"/>
        <pt x="1183" y="175" on="1"/>
        <pt x="1183" y="0" on="1"/>
        <pt x="581" y="0" on="1"/>
        <pt x="581" y="175" on="1"/>
        <pt x="736" y="205" on="1"/>
        <pt x="736" y="382" on="1"/>
        <pt x="486" y="404" on="0"/>
        <pt x="195" y="715" on="0"/>
        <pt x="195" y="979" on="1"/>
        <pt x="195" y="1250" on="1"/>
        <pt x="55" y="1280" on="1"/>
        <pt x="55" y="1456" on="1"/>
        <pt x="195" y="1456" on="1"/>
        <pt x="486" y="1456" on="1"/>
        <pt x="486" y="979" on="1"/>
        <pt x="486" y="821" on="0"/>
        <pt x="614" y="638" on="0"/>
        <pt x="730" y="620" on="1"/>
        <pt x="736" y="622" on="1"/>
        <pt x="736" y="1250" on="1"/>
        <pt x="596" y="1280" on="1"/>
        <pt x="596" y="1456" on="1"/>
        <pt x="736" y="1456" on="1"/>
        <pt x="1168" y="1456" on="1"/>
      </contour>
    </TTGlyph>
    <TTGlyph name="Q" xMin="67" yMin="-238" xMax="1437" yMax="1477">
      <contour>
        <pt x="1387" y="717" on="1"/>
        <pt x="1387" y="527" on="0"/>
        <pt x="1250" y="213" on="0"/>
        <pt x="1127" y="114" on="1"/>
        <pt x="1437" y="-79" on="1"/>
        <pt x="1231" y="-238" on="1"/>
        <pt x="882" y="-3" on="1"/>
        <pt x="843" y="-11" on="0"/>
        <pt x="764" y="-21" on="0"/>
        <pt x="725" y="-21" on="1"/>
        <pt x="430" y="-21" on="0"/>
        <pt x="67" y="397" on="0"/>
        <pt x="67" y="717" on="1"/>
        <pt x="67" y="739" on="1"/>
        <pt x="67" y="1057" on="0"/>
        <pt x="429" y="1477" on="0"/>
        <pt x="724" y="1477" on="1"/>
        <pt x="1020" y="1477" on="0"/>
        <pt x="1387" y="1057" on="0"/>
        <pt x="1387" y="739" on="1"/>
      </contour>
      <contour>
        <pt x="1096" y="741" on="1"/>
        <pt x="1096" y="967" on="0"/>
        <pt x="908" y="1249" on="0"/>
        <pt x="724" y="1249" on="1"/>
        <pt x="540" y="1249" on="0"/>
        <pt x="359" y="969" on="0"/>
        <pt x="359" y="741" on="1"/>
        <pt x="359" y="717" on="1"/>
        <pt x="359" y="487" on="0"/>
        <pt x="542" y="206" on="0"/>
        <pt x="725" y="206" on="1"/>
        <pt x="910" y="206" on="0"/>
        <pt x="1096" y="487" on="0"/>
        <pt x="1096" y="717" on="1"/>
      </contour>
    </TTGlyph>
    <TTGlyph name="Q.smcp" xMin="90" yMin="-213" xMax="1194" yMax="1181">
      <contour>
        <pt x="1141" y="496" on="1"/>
        <pt x="1141" y="369" on="0"/>
        <pt x="1046" y="163" on="0"/>
        <pt x="960" y="94" on="1"/>
        <pt x="1194" y="-68" on="1"/>
        <pt x="1005" y="-213" on="1"/>
        <pt x="730" y="-9" on="1"/>
        <pt x="701" y="-13" on="0"/>
        <pt x="644" y="-19" on="0"/>
        <pt x="616" y="-19" on="1"/>
        <pt x="383" y="-19" on="0"/>
        <pt x="90" y="268" on="0"/>
        <pt x="90" y="496" on="1"/>
        <pt x="90" y="668" on="1"/>
        <pt x="90" y="895" on="0"/>
        <pt x="382" y="1181" on="0"/>
        <pt x="615" y="1181" on="1"/>
        <pt x="847" y="1181" on="0"/>
        <pt x="1141" y="895" on="0"/>
        <pt x="1141" y="668" on="1"/>
      </contour>
      <contour>
        <pt x="850" y="669" on="1"/>
        <pt x="850" y="796" on="0"/>
        <pt x="723" y="958" on="0"/>
        <pt x="615" y="958" on="1"/>
        <pt x="504" y="958" on="0"/>
        <pt x="382" y="797" on="0"/>
        <pt x="382" y="669" on="1"/>
        <pt x="382" y="496" on="1"/>
        <pt x="382" y="367" on="0"/>
        <pt x="506" y="204" on="0"/>
        <pt x="616" y="204" on="1"/>
        <pt x="724" y="204" on="0"/>
        <pt x="850" y="368" on="0"/>
        <pt x="850" y="496" on="1"/>
      </contour>
    </TTGlyph>
    <TTGlyph name="R" xMin="56" yMin="0" xMax="1368" yMax="1456">
      <contour>
        <pt x="710" y="1456" on="1"/>
        <pt x="958" y="1456" on="0"/>
        <pt x="1240" y="1229" on="0"/>
        <pt x="1240" y="1029" on="1"/>
        <pt x="1240" y="919" on="0"/>
        <pt x="1122" y="757" on="0"/>
        <pt x="1008" y="707" on="1"/>
        <pt x="1137" y="669" on="0"/>
        <pt x="1250" y="492" on="0"/>
        <pt x="1250" y="361" on="1"/>
        <pt x="1250" y="287" on="1"/>
        <pt x="1250" y="239" on="0"/>
        <pt x="1288" y="186" on="0"/>
        <pt x="1332" y="181" on="1"/>
        <pt x="1368" y="176" on="1"/>
        <pt x="1368" y="0" on="1"/>
        <pt x="1217" y="0" on="1"/>
        <pt x="1074" y="0" on="0"/>
        <pt x="958" y="154" on="0"/>
        <pt x="958" y="276" on="1"/>
        <pt x="958" y="359" on="1"/>
        <pt x="958" y="465" on="0"/>
        <pt x="845" y="586" on="0"/>
        <pt x="742" y="589" on="1"/>
        <pt x="503" y="589" on="1"/>
        <pt x="503" y="205" on="1"/>
        <pt x="659" y="175" on="1"/>
        <pt x="659" y="0" on="1"/>
        <pt x="56" y="0" on="1"/>
        <pt x="56" y="175" on="1"/>
        <pt x="211" y="205" on="1"/>
        <pt x="211" y="1250" on="1"/>
        <pt x="56" y="1280" on="1"/>
        <pt x="56" y="1456" on="1"/>
        <pt x="211" y="1456" on="1"/>
      </contour>
      <contour>
        <pt x="503" y="814" on="1"/>
        <pt x="705" y="814" on="1"/>
        <pt x="827" y="814" on="0"/>
        <pt x="949" y="918" on="0"/>
        <pt x="949" y="1016" on="1"/>
        <pt x="949" y="1114" on="0"/>
        <pt x="828" y="1231" on="0"/>
        <pt x="710" y="1231" on="1"/>
        <pt x="503" y="1231" on="1"/>
      </contour>
    </TTGlyph>
    <TTGlyph name="R.smcp" xMin="36" yMin="0" xMax="1205" yMax="1165">
      <contour>
        <pt x="646" y="1165" on="1"/>
        <pt x="861" y="1165" on="0"/>
        <pt x="1116" y="975" on="0"/>
        <pt x="1116" y="812" on="1"/>
        <pt x="1116" y="716" on="0"/>
        <pt x="1012" y="576" on="0"/>
        <pt x="912" y="533" on="1"/>
        <pt x="1019" y="502" on="0"/>
        <pt x="1114" y="359" on="0"/>
        <pt x="1114" y="255" on="1"/>
        <pt x="1114" y="192" on="1"/>
        <pt x="1205" y="175" on="1"/>
        <pt x="1205" y="0" on="1"/>
        <pt x="885" y="0" on="1"/>
        <pt x="845" y="19" on="0"/>
        <pt x="823" y="123" on="0"/>
        <pt x="823" y="173" on="1"/>
        <pt x="823" y="254" on="1"/>
        <pt x="823" y="334" on="0"/>
        <pt x="737" y="418" on="0"/>
        <pt x="655" y="418" on="1"/>
        <pt x="476" y="418" on="1"/>
        <pt x="476" y="205" on="1"/>
        <pt x="631" y="175" on="1"/>
        <pt x="631" y="0" on="1"/>
        <pt x="36" y="0" on="1"/>
        <pt x="36" y="175" on="1"/>
        <pt x="184" y="205" on="1"/>
        <pt x="184" y="959" on="1"/>
        <pt x="36" y="989" on="1"/>
        <pt x="36" y="1165" on="1"/>
        <pt x="184" y="1165" on="1"/>
      </contour>
      <contour>
        <pt x="476" y="642" on="1"/>
        <pt x="646" y="642" on="1"/>
        <pt x="731" y="642" on="0"/>
        <pt x="823" y="722" on="0"/>
        <pt x="823" y="791" on="1"/>
        <pt x="823" y="856" on="0"/>
        <pt x="729" y="942" on="0"/>
        <pt x="646" y="942" on="1"/>
        <pt x="476" y="942" on="1"/>
      </contour>
    </TTGlyph>
    <TTGlyph name="Racute" xMin="56" yMin="0" xMax="1368" yMax="1826">
      <component glyphName="R" x="0" y="0" flags="0x204"/>
      <component glyphName="acute" x="411" y="348" flags="0x4"/>
    </TTGlyph>
    <TTGlyph name="Racute.smcp" xMin="36" yMin="0" xMax="1205" yMax="1503">
      <component glyphName="R.smcp" x="0" y="0" flags="0x204"/>
      <component glyphName="acute" x="341" y="25" flags="0x4"/>
    </TTGlyph>
    <TTGlyph name="Rcaron" xMin="56" yMin="0" xMax="1368" yMax="1867">
      <component glyphName="R" x="0" y="0" flags="0x204"/>
      <component glyphName="caron" x="200" y="343" flags="0x4"/>
    </TTGlyph>
    <TTGlyph name="Rcaron.smcp" xMin="36" yMin="0" xMax="1205" yMax="1544">
      <component glyphName="R.smcp" x="0" y="0" flags="0x204"/>
      <component glyphName="caron" x="130" y="20" flags="0x4"/>
    </TTGlyph>
    <TTGlyph name="Rcommaaccent" xMin="56" yMin="-607" xMax="1368" yMax="1456">
      <component glyphName="R" x="0" y="0" flags="0x204"/>
      <component glyphName="commaaccent" x="489" y="-363" flags="0x4"/>
    </TTGlyph>
    <TTGlyph name="Rcommaaccent.smcp" xMin="36" yMin="-603" xMax="1205" yMax="1165">
      <component glyphName="R.smcp" x="0" y="0" flags="0x204"/>
      <component glyphName="commaaccent" x="342" y="-359" flags="0x4"/>
    </TTGlyph>
    <TTGlyph name="Rho" xMin="56" yMin="0" xMax="1288" yMax="1456">
      <component glyphName="P" x="0" y="0" flags="0x204"/>
    </TTGlyph>
    <TTGlyph name="S" xMin="97" yMin="-21" xMax="1183" yMax="1476">
      <contour>
        <pt x="1162" y="991" on="1"/>
        <pt x="943" y="991" on="1"/>
        <pt x="905" y="1191" on="1"/>
        <pt x="867" y="1215" on="0"/>
        <pt x="721" y="1251" on="0"/>
        <pt x="639" y="1251" on="1"/>
        <pt x="519" y="1251" on="0"/>
        <pt x="388" y="1150" on="0"/>
        <pt x="388" y="1070" on="1"/>
        <pt x="388" y="996" on="0"/>
        <pt x="525" y="901" on="0"/>
        <pt x="693" y="848" on="1"/>
        <pt x="934" y="781" on="0"/>
        <pt x="1183" y="561" on="0"/>
        <pt x="1183" y="382" on="1"/>
        <pt x="1183" y="195" on="0"/>
        <pt x="887" y="-21" on="0"/>
        <pt x="645" y="-21" on="1"/>
        <pt x="472" y="-21" on="0"/>
        <pt x="193" y="89" on="0"/>
        <pt x="100" y="186" on="1"/>
        <pt x="100" y="490" on="1"/>
        <pt x="326" y="490" on="1"/>
        <pt x="357" y="283" on="1"/>
        <pt x="401" y="247" on="0"/>
        <pt x="552" y="200" on="0"/>
        <pt x="645" y="200" on="1"/>
        <pt x="765" y="200" on="0"/>
        <pt x="890" y="298" on="0"/>
        <pt x="890" y="380" on="1"/>
        <pt x="890" y="464" on="0"/>
        <pt x="771" y="566" on="0"/>
        <pt x="622" y="611" on="1"/>
        <pt x="363" y="686" on="0"/>
        <pt x="97" y="892" on="0"/>
        <pt x="97" y="1071" on="1"/>
        <pt x="97" y="1248" on="0"/>
        <pt x="397" y="1473" on="0"/>
        <pt x="624" y="1476" on="1"/>
        <pt x="792" y="1476" on="0"/>
        <pt x="1068" y="1374" on="0"/>
        <pt x="1162" y="1289" on="1"/>
      </contour>
    </TTGlyph>
    <TTGlyph name="S.smcp" xMin="67" yMin="-19" xMax="1057" yMax="1181">
      <contour>
        <pt x="766" y="322" on="1"/>
        <pt x="766" y="376" on="0"/>
        <pt x="671" y="448" on="0"/>
        <pt x="546" y="476" on="1"/>
        <pt x="317" y="520" on="0"/>
        <pt x="111" y="679" on="0"/>
        <pt x="111" y="840" on="1"/>
        <pt x="111" y="987" on="0"/>
        <pt x="360" y="1181" on="0"/>
        <pt x="571" y="1181" on="1"/>
        <pt x="791" y="1181" on="0"/>
        <pt x="1037" y="983" on="0"/>
        <pt x="1032" y="815" on="1"/>
        <pt x="1030" y="809" on="1"/>
        <pt x="748" y="809" on="1"/>
        <pt x="748" y="881" on="0"/>
        <pt x="665" y="959" on="0"/>
        <pt x="571" y="959" on="1"/>
        <pt x="482" y="959" on="0"/>
        <pt x="401" y="893" on="0"/>
        <pt x="401" y="842" on="1"/>
        <pt x="401" y="784" on="0"/>
        <pt x="491" y="716" on="0"/>
        <pt x="632" y="687" on="1"/>
        <pt x="847" y="643" on="0"/>
        <pt x="1057" y="481" on="0"/>
        <pt x="1057" y="326" on="1"/>
        <pt x="1057" y="170" on="0"/>
        <pt x="791" y="-19" on="0"/>
        <pt x="571" y="-19" on="1"/>
        <pt x="337" y="-19" on="0"/>
        <pt x="67" y="179" on="0"/>
        <pt x="73" y="351" on="1"/>
        <pt x="75" y="357" on="1"/>
        <pt x="357" y="357" on="1"/>
        <pt x="359" y="273" on="0"/>
        <pt x="472" y="203" on="0"/>
        <pt x="571" y="203" on="1"/>
        <pt x="671" y="203" on="0"/>
        <pt x="766" y="268" on="0"/>
      </contour>
    </TTGlyph>
    <TTGlyph name="S.ss03" xMin="54" yMin="-21" xMax="1183" yMax="1477">
      <contour>
        <pt x="890" y="380" on="1"/>
        <pt x="890" y="464" on="0"/>
        <pt x="771" y="566" on="0"/>
        <pt x="622" y="611" on="1"/>
        <pt x="363" y="686" on="0"/>
        <pt x="97" y="892" on="0"/>
        <pt x="97" y="1071" on="1"/>
        <pt x="97" y="1250" on="0"/>
        <pt x="402" y="1477" on="0"/>
        <pt x="638" y="1477" on="1"/>
        <pt x="879" y="1477" on="0"/>
        <pt x="1180" y="1222" on="0"/>
        <pt x="1175" y="1035" on="1"/>
        <pt x="1173" y="1029" on="1"/>
        <pt x="891" y="1029" on="1"/>
        <pt x="891" y="1130" on="0"/>
        <pt x="756" y="1255" on="0"/>
        <pt x="634" y="1255" on="1"/>
        <pt x="517" y="1255" on="0"/>
        <pt x="388" y="1151" on="0"/>
        <pt x="388" y="1070" on="1"/>
        <pt x="388" y="996" on="0"/>
        <pt x="525" y="901" on="0"/>
        <pt x="693" y="848" on="1"/>
        <pt x="934" y="781" on="0"/>
        <pt x="1183" y="561" on="0"/>
        <pt x="1183" y="382" on="1"/>
        <pt x="1183" y="195" on="0"/>
        <pt x="887" y="-21" on="0"/>
        <pt x="645" y="-21" on="1"/>
        <pt x="408" y="-21" on="0"/>
        <pt x="54" y="224" on="0"/>
        <pt x="59" y="445" on="1"/>
        <pt x="61" y="451" on="1"/>
        <pt x="344" y="451" on="1"/>
        <pt x="344" y="321" on="0"/>
        <pt x="503" y="200" on="0"/>
        <pt x="645" y="200" on="1"/>
        <pt x="765" y="200" on="0"/>
        <pt x="890" y="298" on="0"/>
      </contour>
    </TTGlyph>
    <TTGlyph name="Sacute" xMin="97" yMin="-21" xMax="1183" yMax="1825">
      <component glyphName="S" x="0" y="0" flags="0x204"/>
      <component glyphName="acute" x="375" y="347" flags="0x4"/>
    </TTGlyph>
    <TTGlyph name="Sacute.smcp" xMin="67" yMin="-19" xMax="1057" yMax="1504">
      <component glyphName="S.smcp" x="0" y="0" flags="0x204"/>
      <component glyphName="acute" x="317" y="26" flags="0x4"/>
    </TTGlyph>
    <TTGlyph name="Scaron" xMin="97" yMin="-21" xMax="1183" yMax="1866">
      <component glyphName="S" x="0" y="0" flags="0x204"/>
      <component glyphName="caron" x="164" y="342" flags="0x4"/>
    </TTGlyph>
    <TTGlyph name="Scaron.smcp" xMin="67" yMin="-19" xMax="1057" yMax="1545">
      <component glyphName="S.smcp" x="0" y="0" flags="0x204"/>
      <component glyphName="caron" x="106" y="21" flags="0x4"/>
    </TTGlyph>
    <TTGlyph name="Scedilla" xMin="97" yMin="-461" xMax="1183" yMax="1476">
      <component glyphName="S" x="0" y="0" flags="0x204"/>
      <component glyphName="cedilla" x="409" y="-2" flags="0x4"/>
    </TTGlyph>
    <TTGlyph name="Scedilla.smcp" xMin="67" yMin="-460" xMax="1057" yMax="1181">
      <component glyphName="S.smcp" x="0" y="0" flags="0x204"/>
      <component glyphName="cedilla" x="331" y="-1" flags="0x4"/>
    </TTGlyph>
    <TTGlyph name="Scircumflex" xMin="97" yMin="-21" xMax="1183" yMax="1846">
      <component glyphName="S" x="0" y="0" flags="0x204"/>
      <component glyphName="circumflex" x="176" y="328" flags="0x4"/>
    </TTGlyph>
    <TTGlyph name="Scircumflex.smcp" xMin="67" yMin="-19" xMax="1057" yMax="1525">
      <component glyphName="S.smcp" x="0" y="0" flags="0x204"/>
      <component glyphName="circumflex" x="118" y="7" flags="0x4"/>
    </TTGlyph>
    <TTGlyph name="Sigma" xMin="70" yMin="0" xMax="1140" yMax="1456">
      <contour>
        <pt x="70" y="0" on="1"/>
        <pt x="70" y="152" on="1"/>
        <pt x="512" y="733" on="1"/>
        <pt x="70" y="1305" on="1"/>
        <pt x="70" y="1456" on="1"/>
        <pt x="1113" y="1456" on="1"/>
        <pt x="1113" y="1087" on="1"/>
        <pt x="890" y="1087" on="1"/>
        <pt x="878" y="1231" on="1"/>
        <pt x="460" y="1231" on="1"/>
        <pt x="821" y="741" on="1"/>
        <pt x="821" y="724" on="1"/>
        <pt x="458" y="225" on="1"/>
        <pt x="905" y="225" on="1"/>
        <pt x="917" y="368" on="1"/>
        <pt x="1140" y="368" on="1"/>
        <pt x="1140" y="0" on="1"/>
      </contour>
    </TTGlyph>
    <TTGlyph name="T" xMin="40" yMin="0" xMax="1338" yMax="1456">
      <contour>
        <pt x="1338" y="1456" on="1"/>
        <pt x="1338" y="1068" on="1"/>
        <pt x="1114" y="1068" on="1"/>
        <pt x="1102" y="1231" on="1"/>
        <pt x="834" y="1231" on="1"/>
        <pt x="834" y="205" on="1"/>
        <pt x="990" y="175" on="1"/>
        <pt x="990" y="0" on="1"/>
        <pt x="386" y="0" on="1"/>
        <pt x="386" y="175" on="1"/>
        <pt x="542" y="205" on="1"/>
        <pt x="542" y="1231" on="1"/>
        <pt x="275" y="1231" on="1"/>
        <pt x="263" y="1068" on="1"/>
        <pt x="40" y="1068" on="1"/>
        <pt x="40" y="1456" on="1"/>
      </contour>
    </TTGlyph>
    <TTGlyph name="T.smcp" xMin="49" yMin="0" xMax="1189" yMax="1165">
      <contour>
        <pt x="1189" y="1165" on="1"/>
        <pt x="1189" y="796" on="1"/>
        <pt x="965" y="796" on="1"/>
        <pt x="953" y="942" on="1"/>
        <pt x="763" y="942" on="1"/>
        <pt x="763" y="205" on="1"/>
        <pt x="918" y="175" on="1"/>
        <pt x="918" y="0" on="1"/>
        <pt x="315" y="0" on="1"/>
        <pt x="315" y="175" on="1"/>
        <pt x="470" y="205" on="1"/>
        <pt x="470" y="942" on="1"/>
        <pt x="284" y="942" on="1"/>
        <pt x="273" y="796" on="1"/>
        <pt x="49" y="796" on="1"/>
        <pt x="49" y="1165" on="1"/>
      </contour>
    </TTGlyph>
    <TTGlyph name="Tau" xMin="40" yMin="0" xMax="1338" yMax="1456">
      <component glyphName="T" x="0" y="0" flags="0x204"/>
    </TTGlyph>
    <TTGlyph name="Tbar" xMin="40" yMin="0" xMax="1338" yMax="1456">
      <contour>
        <pt x="1338" y="1456" on="1"/>
        <pt x="1338" y="1068" on="1"/>
        <pt x="1114" y="1068" on="1"/>
        <pt x="1102" y="1231" on="1"/>
        <pt x="834" y="1231" on="1"/>
        <pt x="834" y="858" on="1"/>
        <pt x="1041" y="858" on="1"/>
        <pt x="1041" y="703" on="1"/>
        <pt x="834" y="703" on="1"/>
        <pt x="834" y="205" on="1"/>
        <pt x="990" y="175" on="1"/>
        <pt x="990" y="0" on="1"/>
        <pt x="386" y="0" on="1"/>
        <pt x="386" y="175" on="1"/>
        <pt x="542" y="205" on="1"/>
        <pt x="542" y="703" on="1"/>
        <pt x="340" y="703" on="1"/>
        <pt x="340" y="858" on="1"/>
        <pt x="542" y="858" on="1"/>
        <pt x="542" y="1231" on="1"/>
        <pt x="275" y="1231" on="1"/>
        <pt x="263" y="1068" on="1"/>
        <pt x="40" y="1068" on="1"/>
        <pt x="40" y="1456" on="1"/>
      </contour>
    </TTGlyph>
    <TTGlyph name="Tbar.smcp" xMin="49" yMin="0" xMax="1189" yMax="1165">
      <component glyphName="T.smcp" x="0" y="0" flags="0x204"/>
      <component glyphName="crossbar" x="128" y="-98" flags="0x4"/>
    </TTGlyph>
    <TTGlyph name="Tcaron" xMin="40" yMin="0" xMax="1338" yMax="1866">
      <component glyphName="T" x="0" y="0" flags="0x204"/>
      <component glyphName="caron" x="222" y="342" flags="0x4"/>
    </TTGlyph>
    <TTGlyph name="Tcaron.smcp" xMin="49" yMin="0" xMax="1189" yMax="1544">
      <component glyphName="T.smcp" x="0" y="0" flags="0x204"/>
      <component glyphName="caron" x="147" y="20" flags="0x4"/>
    </TTGlyph>
    <TTGlyph name="Tcommaaccent.smcp" xMin="49" yMin="-603" xMax="1189" yMax="1165">
      <component glyphName="T.smcp" x="0" y="0" flags="0x204"/>
      <component glyphName="commaaccent" x="348" y="-359" flags="0x4"/>
    </TTGlyph>
    <TTGlyph name="Theta" xMin="64" yMin="-21" xMax="1384" yMax="1477">
      <contour>
        <pt x="893" y="613" on="1"/>
        <pt x="513" y="613" on="1"/>
        <pt x="513" y="837" on="1"/>
        <pt x="893" y="837" on="1"/>
      </contour>
      <contour>
        <pt x="1384" y="717" on="1"/>
        <pt x="1384" y="397" on="0"/>
        <pt x="1018" y="-21" on="0"/>
        <pt x="722" y="-21" on="1"/>
        <pt x="427" y="-21" on="0"/>
        <pt x="64" y="397" on="0"/>
        <pt x="64" y="717" on="1"/>
        <pt x="64" y="739" on="1"/>
        <pt x="64" y="1057" on="0"/>
        <pt x="426" y="1477" on="0"/>
        <pt x="721" y="1477" on="1"/>
        <pt x="1017" y="1477" on="0"/>
        <pt x="1384" y="1057" on="0"/>
        <pt x="1384" y="739" on="1"/>
      </contour>
      <contour>
        <pt x="1093" y="741" on="1"/>
        <pt x="1093" y="967" on="0"/>
        <pt x="905" y="1249" on="0"/>
        <pt x="721" y="1249" on="1"/>
        <pt x="537" y="1249" on="0"/>
        <pt x="356" y="969" on="0"/>
        <pt x="356" y="741" on="1"/>
        <pt x="356" y="717" on="1"/>
        <pt x="356" y="487" on="0"/>
        <pt x="539" y="206" on="0"/>
        <pt x="722" y="206" on="1"/>
        <pt x="907" y="206" on="0"/>
        <pt x="1093" y="487" on="0"/>
        <pt x="1093" y="717" on="1"/>
      </contour>
    </TTGlyph>
    <TTGlyph name="Thorn" xMin="67" yMin="0" xMax="1274" yMax="1456">
      <contour>
        <pt x="67" y="175" on="1"/>
        <pt x="223" y="205" on="1"/>
        <pt x="223" y="1250" on="1"/>
        <pt x="67" y="1280" on="1"/>
        <pt x="67" y="1456" on="1"/>
        <pt x="515" y="1456" on="1"/>
        <pt x="671" y="1456" on="1"/>
        <pt x="671" y="1280" on="1"/>
        <pt x="515" y="1250" on="1"/>
        <pt x="515" y="1186" on="1"/>
        <pt x="736" y="1186" on="1"/>
        <pt x="990" y="1186" on="0"/>
        <pt x="1274" y="938" on="0"/>
        <pt x="1274" y="738" on="1"/>
        <pt x="1274" y="537" on="0"/>
        <pt x="990" y="289" on="0"/>
        <pt x="736" y="289" on="1"/>
        <pt x="515" y="289" on="1"/>
        <pt x="515" y="205" on="1"/>
        <pt x="671" y="175" on="1"/>
        <pt x="671" y="0" on="1"/>
        <pt x="67" y="0" on="1"/>
      </contour>
      <contour>
        <pt x="515" y="961" on="1"/>
        <pt x="515" y="514" on="1"/>
        <pt x="736" y="514" on="1"/>
        <pt x="859" y="514" on="0"/>
        <pt x="982" y="641" on="0"/>
        <pt x="982" y="736" on="1"/>
        <pt x="982" y="831" on="0"/>
        <pt x="859" y="961" on="0"/>
        <pt x="736" y="961" on="1"/>
      </contour>
    </TTGlyph>
    <TTGlyph name="U" xMin="39" yMin="-21" xMax="1517" yMax="1456">
      <contour>
        <pt x="642" y="1456" on="1"/>
        <pt x="642" y="1280" on="1"/>
        <pt x="486" y="1250" on="1"/>
        <pt x="486" y="490" on="1"/>
        <pt x="486" y="346" on="0"/>
        <pt x="641" y="203" on="0"/>
        <pt x="776" y="203" on="1"/>
        <pt x="913" y="203" on="0"/>
        <pt x="1069" y="345" on="0"/>
        <pt x="1069" y="490" on="1"/>
        <pt x="1069" y="1250" on="1"/>
        <pt x="914" y="1280" on="1"/>
        <pt x="914" y="1456" on="1"/>
        <pt x="1517" y="1456" on="1"/>
        <pt x="1517" y="1280" on="1"/>
        <pt x="1361" y="1250" on="1"/>
        <pt x="1361" y="490" on="1"/>
        <pt x="1361" y="245" on="0"/>
        <pt x="1038" y="-21" on="0"/>
        <pt x="776" y="-21" on="1"/>
        <pt x="515" y="-21" on="0"/>
        <pt x="194" y="245" on="0"/>
        <pt x="194" y="490" on="1"/>
        <pt x="194" y="1250" on="1"/>
        <pt x="39" y="1280" on="1"/>
        <pt x="39" y="1456" on="1"/>
        <pt x="194" y="1456" on="1"/>
        <pt x="486" y="1456" on="1"/>
      </contour>
    </TTGlyph>
    <TTGlyph name="U.smcp" xMin="29" yMin="-19" xMax="1322" yMax="1165">
      <contour>
        <pt x="601" y="1165" on="1"/>
        <pt x="601" y="989" on="1"/>
        <pt x="445" y="959" on="1"/>
        <pt x="445" y="413" on="1"/>
        <pt x="445" y="310" on="0"/>
        <pt x="564" y="204" on="0"/>
        <pt x="676" y="204" on="1"/>
        <pt x="788" y="204" on="0"/>
        <pt x="904" y="309" on="0"/>
        <pt x="904" y="413" on="1"/>
        <pt x="904" y="959" on="1"/>
        <pt x="748" y="989" on="1"/>
        <pt x="748" y="1165" on="1"/>
        <pt x="1196" y="1165" on="1"/>
        <pt x="1322" y="1165" on="1"/>
        <pt x="1322" y="989" on="1"/>
        <pt x="1196" y="959" on="1"/>
        <pt x="1196" y="413" on="1"/>
        <pt x="1196" y="209" on="0"/>
        <pt x="912" y="-19" on="0"/>
        <pt x="676" y="-19" on="1"/>
        <pt x="439" y="-19" on="0"/>
        <pt x="154" y="210" on="0"/>
        <pt x="154" y="413" on="1"/>
        <pt x="154" y="959" on="1"/>
        <pt x="29" y="989" on="1"/>
        <pt x="29" y="1165" on="1"/>
        <pt x="154" y="1165" on="1"/>
        <pt x="445" y="1165" on="1"/>
      </contour>
    </TTGlyph>
    <TTGlyph name="Uacute" xMin="39" yMin="-21" xMax="1517" yMax="1826">
      <component glyphName="U" x="0" y="0" flags="0x204"/>
      <component glyphName="acute" x="520" y="348" flags="0x4"/>
    </TTGlyph>
    <TTGlyph name="Uacute.smcp" xMin="29" yMin="-19" xMax="1322" yMax="1506">
      <component glyphName="U.smcp" x="0" y="0" flags="0x204"/>
      <component glyphName="acute" x="406" y="28" flags="0x4"/>
    </TTGlyph>
    <TTGlyph name="Ubreve" xMin="39" yMin="-21" xMax="1517" yMax="1883">
      <component glyphName="U" x="0" y="0" flags="0x204"/>
      <component glyphName="breve" x="324" y="427" flags="0x4"/>
    </TTGlyph>
    <TTGlyph name="Ubreve.smcp" xMin="29" yMin="-19" xMax="1322" yMax="1563">
      <component glyphName="U.smcp" x="0" y="0" flags="0x204"/>
      <component glyphName="breve" x="210" y="107" flags="0x4"/>
    </TTGlyph>
    <TTGlyph name="Ucircumflex" xMin="39" yMin="-21" xMax="1517" yMax="1847">
      <component glyphName="U" x="0" y="0" flags="0x204"/>
      <component glyphName="circumflex" x="321" y="329" flags="0x4"/>
    </TTGlyph>
    <TTGlyph name="Ucircumflex.smcp" xMin="29" yMin="-19" xMax="1322" yMax="1527">
      <component glyphName="U.smcp" x="0" y="0" flags="0x204"/>
      <component glyphName="circumflex" x="207" y="9" flags="0x4"/>
    </TTGlyph>
    <TTGlyph name="Udieresis" xMin="39" yMin="-21" xMax="1517" yMax="1805">
      <component glyphName="U" x="0" y="0" flags="0x204"/>
      <component glyphName="dieresis" x="237" y="349" flags="0x4"/>
    </TTGlyph>
    <TTGlyph name="Udieresis.smcp" xMin="29" yMin="-19" xMax="1322" yMax="1485">
      <component glyphName="U.smcp" x="0" y="0" flags="0x204"/>
      <component glyphName="dieresis" x="123" y="29" flags="0x4"/>
    </TTGlyph>
    <TTGlyph name="Ugrave" xMin="39" yMin="-21" xMax="1517" yMax="1834">
      <component glyphName="U" x="0" y="0" flags="0x204"/>
      <component glyphName="grave" x="359" y="356" flags="0x4"/>
    </TTGlyph>
    <TTGlyph name="Ugrave.smcp" xMin="29" yMin="-19" xMax="1322" yMax="1514">
      <component glyphName="U.smcp" x="0" y="0" flags="0x204"/>
      <component glyphName="grave" x="245" y="36" flags="0x4"/>
    </TTGlyph>
    <TTGlyph name="Uhorn" xMin="34" yMin="-21" xMax="1764" yMax="1492">
      <contour>
        <pt x="1357" y="1178" on="1"/>
        <pt x="1363" y="1177" on="1"/>
        <pt x="1491" y="1179" on="0"/>
        <pt x="1570" y="1328" on="0"/>
        <pt x="1570" y="1492" on="1"/>
        <pt x="1759" y="1492" on="1"/>
        <pt x="1761" y="1487" on="1"/>
        <pt x="1764" y="1258" on="0"/>
        <pt x="1580" y="1020" on="0"/>
        <pt x="1357" y="1012" on="1"/>
        <pt x="1357" y="490" on="1"/>
        <pt x="1357" y="245" on="0"/>
        <pt x="1033" y="-21" on="0"/>
        <pt x="771" y="-21" on="1"/>
        <pt x="510" y="-21" on="0"/>
        <pt x="189" y="245" on="0"/>
        <pt x="189" y="490" on="1"/>
        <pt x="189" y="1250" on="1"/>
        <pt x="34" y="1280" on="1"/>
        <pt x="34" y="1456" on="1"/>
        <pt x="189" y="1456" on="1"/>
        <pt x="482" y="1456" on="1"/>
        <pt x="637" y="1456" on="1"/>
        <pt x="637" y="1280" on="1"/>
        <pt x="482" y="1250" on="1"/>
        <pt x="482" y="490" on="1"/>
        <pt x="482" y="346" on="0"/>
        <pt x="636" y="203" on="0"/>
        <pt x="771" y="203" on="1"/>
        <pt x="908" y="203" on="0"/>
        <pt x="1064" y="345" on="0"/>
        <pt x="1064" y="490" on="1"/>
        <pt x="1064" y="1250" on="1"/>
        <pt x="909" y="1280" on="1"/>
        <pt x="909" y="1456" on="1"/>
        <pt x="1357" y="1456" on="1"/>
      </contour>
    </TTGlyph>
    <TTGlyph name="Uhungarumlaut" xMin="39" yMin="-21" xMax="1517" yMax="1867">
      <component glyphName="U" x="0" y="0" flags="0x204"/>
      <component glyphName="hungarumlaut" x="326" y="349" flags="0x4"/>
    </TTGlyph>
    <TTGlyph name="Uhungarumlaut.smcp" xMin="29" yMin="-19" xMax="1322" yMax="1547">
      <component glyphName="U.smcp" x="0" y="0" flags="0x204"/>
      <component glyphName="hungarumlaut" x="212" y="29" flags="0x4"/>
    </TTGlyph>
    <TTGlyph name="Umacron" xMin="39" yMin="-21" xMax="1517" yMax="1782">
      <component glyphName="U" x="0" y="0" flags="0x204"/>
      <component glyphName="macron" x="254" y="325" flags="0x4"/>
    </TTGlyph>
    <TTGlyph name="Umacron.smcp" xMin="29" yMin="-19" xMax="1322" yMax="1462">
      <component glyphName="U.smcp" x="0" y="0" flags="0x204"/>
      <component glyphName="macron" x="140" y="5" flags="0x4"/>
    </TTGlyph>
    <TTGlyph name="Uogonek" xMin="39" yMin="-426" xMax="1517" yMax="1456">
      <component glyphName="U" x="0" y="0" flags="0x204"/>
      <component glyphName="ogonek" x="512" y="-2" flags="0x4"/>
    </TTGlyph>
    <TTGlyph name="Uogonek.smcp" xMin="29" yMin="-425" xMax="1322" yMax="1165">
      <component glyphName="U.smcp" x="0" y="0" flags="0x204"/>
      <component glyphName="ogonek" x="412" y="-1" flags="0x4"/>
    </TTGlyph>
    <TTGlyph name="Upsilon" xMin="36" yMin="0" xMax="1359" yMax="1456">
      <component glyphName="Y" x="0" y="0" flags="0x204"/>
    </TTGlyph>
    <TTGlyph name="Upsilondieresis" xMin="36" yMin="0" xMax="1359" yMax="1805">
      <component glyphName="Y" x="0" y="0" flags="0x204"/>
      <component glyphName="dieresis" x="172" y="349" flags="0x4"/>
    </TTGlyph>
    <TTGlyph name="Upsilontonos" xMin="-170" yMin="0" xMax="1459" yMax="1631">
      <component glyphName="Y" x="100" y="0" flags="0x4"/>
      <component glyphName="tonos" x="-299" y="-3" flags="0x4"/>
    </TTGlyph>
    <TTGlyph name="Uring" xMin="39" yMin="-21" xMax="1517" yMax="1941">
      <component glyphName="U" x="0" y="0" flags="0x204"/>
      <component glyphName="ring" x="452" y="447" flags="0x4"/>
    </TTGlyph>
    <TTGlyph name="Uring.smcp" xMin="29" yMin="-19" xMax="1322" yMax="1621">
      <component glyphName="U.smcp" x="0" y="0" flags="0x204"/>
      <component glyphName="ring" x="338" y="127" flags="0x4"/>
    </TTGlyph>
    <TTGlyph name="Utilde" xMin="39" yMin="-21" xMax="1517" yMax="1881">
      <component glyphName="U" x="0" y="0" flags="0x204"/>
      <component glyphName="tilde" x="285" y="352" flags="0x4"/>
    </TTGlyph>
    <TTGlyph name="Utilde.smcp" xMin="29" yMin="-19" xMax="1322" yMax="1561">
      <component glyphName="U.smcp" x="0" y="0" flags="0x204"/>
      <component glyphName="tilde" x="171" y="32" flags="0x4"/>
    </TTGlyph>
    <TTGlyph name="V" xMin="34" yMin="0" xMax="1435" yMax="1456">
      <contour>
        <pt x="566" y="1280" on="1"/>
        <pt x="455" y="1260" on="1"/>
        <pt x="713" y="387" on="1"/>
        <pt x="731" y="307" on="1"/>
        <pt x="737" y="307" on="1"/>
        <pt x="754" y="385" on="1"/>
        <pt x="1013" y="1260" on="1"/>
        <pt x="903" y="1280" on="1"/>
        <pt x="903" y="1456" on="1"/>
        <pt x="1435" y="1456" on="1"/>
        <pt x="1435" y="1280" on="1"/>
        <pt x="1313" y="1264" on="1"/>
        <pt x="884" y="0" on="1"/>
        <pt x="584" y="0" on="1"/>
        <pt x="154" y="1264" on="1"/>
        <pt x="34" y="1280" on="1"/>
        <pt x="34" y="1456" on="1"/>
        <pt x="566" y="1456" on="1"/>
      </contour>
    </TTGlyph>
    <TTGlyph name="V.smcp" xMin="31" yMin="0" xMax="1277" yMax="1165">
      <contour>
        <pt x="538" y="989" on="1"/>
        <pt x="442" y="970" on="1"/>
        <pt x="642" y="312" on="1"/>
        <pt x="650" y="274" on="1"/>
        <pt x="656" y="274" on="1"/>
        <pt x="663" y="307" on="1"/>
        <pt x="866" y="970" on="1"/>
        <pt x="770" y="989" on="1"/>
        <pt x="770" y="1165" on="1"/>
        <pt x="1277" y="1165" on="1"/>
        <pt x="1277" y="989" on="1"/>
        <pt x="1162" y="973" on="1"/>
        <pt x="812" y="0" on="1"/>
        <pt x="496" y="0" on="1"/>
        <pt x="145" y="973" on="1"/>
        <pt x="31" y="989" on="1"/>
        <pt x="31" y="1165" on="1"/>
        <pt x="538" y="1165" on="1"/>
      </contour>
    </TTGlyph>
    <TTGlyph name="W" xMin="29" yMin="0" xMax="1942" yMax="1456">
      <contour>
        <pt x="1942" y="1280" on="1"/>
        <pt x="1822" y="1265" on="1"/>
        <pt x="1527" y="0" on="1"/>
        <pt x="1256" y="0" on="1"/>
        <pt x="989" y="961" on="1"/>
        <pt x="983" y="961" on="1"/>
        <pt x="716" y="0" on="1"/>
        <pt x="445" y="0" on="1"/>
        <pt x="148" y="1265" on="1"/>
        <pt x="29" y="1280" on="1"/>
        <pt x="29" y="1456" on="1"/>
        <pt x="565" y="1456" on="1"/>
        <pt x="565" y="1280" on="1"/>
        <pt x="432" y="1257" on="1"/>
        <pt x="599" y="459" on="1"/>
        <pt x="605" y="458" on="1"/>
        <pt x="878" y="1456" on="1"/>
        <pt x="1093" y="1456" on="1"/>
        <pt x="1368" y="458" on="1"/>
        <pt x="1374" y="459" on="1"/>
        <pt x="1540" y="1257" on="1"/>
        <pt x="1407" y="1280" on="1"/>
        <pt x="1407" y="1456" on="1"/>
        <pt x="1942" y="1456" on="1"/>
      </contour>
    </TTGlyph>
    <TTGlyph name="W.smcp" xMin="18" yMin="0" xMax="1590" yMax="1165">
      <contour>
        <pt x="1590" y="989" on="1"/>
        <pt x="1500" y="976" on="1"/>
        <pt x="1270" y="0" on="1"/>
        <pt x="986" y="0" on="1"/>
        <pt x="805" y="680" on="1"/>
        <pt x="799" y="680" on="1"/>
        <pt x="622" y="0" on="1"/>
        <pt x="337" y="0" on="1"/>
        <pt x="108" y="976" on="1"/>
        <pt x="18" y="989" on="1"/>
        <pt x="18" y="1165" on="1"/>
        <pt x="524" y="1165" on="1"/>
        <pt x="524" y="989" on="1"/>
        <pt x="404" y="966" on="1"/>
        <pt x="497" y="445" on="1"/>
        <pt x="503" y="445" on="1"/>
        <pt x="684" y="1165" on="1"/>
        <pt x="925" y="1165" on="1"/>
        <pt x="1103" y="450" on="1"/>
        <pt x="1109" y="450" on="1"/>
        <pt x="1203" y="966" on="1"/>
        <pt x="1084" y="989" on="1"/>
        <pt x="1084" y="1165" on="1"/>
        <pt x="1590" y="1165" on="1"/>
      </contour>
    </TTGlyph>
    <TTGlyph name="Wacute" xMin="29" yMin="0" xMax="1942" yMax="1826">
      <component glyphName="W" x="0" y="0" flags="0x204"/>
      <component glyphName="acute" x="705" y="348" flags="0x4"/>
    </TTGlyph>
    <TTGlyph name="Wcircumflex" xMin="29" yMin="0" xMax="1942" yMax="1847">
      <component glyphName="W" x="0" y="0" flags="0x204"/>
      <component glyphName="circumflex" x="506" y="329" flags="0x4"/>
    </TTGlyph>
    <TTGlyph name="Wcircumflex.smcp" xMin="18" yMin="0" xMax="1590" yMax="1524">
      <component glyphName="W.smcp" x="0" y="0" flags="0x204"/>
      <component glyphName="circumflex" x="345" y="6" flags="0x4"/>
    </TTGlyph>
    <TTGlyph name="Wdieresis" xMin="29" yMin="0" xMax="1942" yMax="1805">
      <component glyphName="W" x="0" y="0" flags="0x204"/>
      <component glyphName="dieresis" x="422" y="349" flags="0x4"/>
    </TTGlyph>
    <TTGlyph name="Wgrave" xMin="29" yMin="0" xMax="1942" yMax="1834">
      <component glyphName="W" x="0" y="0" flags="0x204"/>
      <component glyphName="grave" x="544" y="356" flags="0x4"/>
    </TTGlyph>
    <TTGlyph name="X" xMin="33" yMin="0" xMax="1404" yMax="1456">
      <contour>
        <pt x="33" y="175" on="1"/>
        <pt x="156" y="199" on="1"/>
        <pt x="541" y="734" on="1"/>
        <pt x="166" y="1255" on="1"/>
        <pt x="44" y="1280" on="1"/>
        <pt x="44" y="1456" on="1"/>
        <pt x="603" y="1456" on="1"/>
        <pt x="603" y="1280" on="1"/>
        <pt x="484" y="1267" on="1"/>
        <pt x="709" y="910" on="1"/>
        <pt x="935" y="1267" on="1"/>
        <pt x="818" y="1280" on="1"/>
        <pt x="818" y="1456" on="1"/>
        <pt x="1379" y="1456" on="1"/>
        <pt x="1379" y="1280" on="1"/>
        <pt x="1257" y="1255" on="1"/>
        <pt x="882" y="734" on="1"/>
        <pt x="1275" y="200" on="1"/>
        <pt x="1404" y="175" on="1"/>
        <pt x="1404" y="0" on="1"/>
        <pt x="831" y="0" on="1"/>
        <pt x="831" y="175" on="1"/>
        <pt x="947" y="187" on="1"/>
        <pt x="713" y="555" on="1"/>
        <pt x="478" y="187" on="1"/>
        <pt x="595" y="175" on="1"/>
        <pt x="595" y="0" on="1"/>
        <pt x="33" y="0" on="1"/>
      </contour>
    </TTGlyph>
    <TTGlyph name="X.smcp" xMin="29" yMin="0" xMax="1210" yMax="1165">
      <contour>
        <pt x="29" y="175" on="1"/>
        <pt x="167" y="197" on="1"/>
        <pt x="409" y="588" on="1"/>
        <pt x="171" y="966" on="1"/>
        <pt x="31" y="989" on="1"/>
        <pt x="31" y="1165" on="1"/>
        <pt x="537" y="1165" on="1"/>
        <pt x="537" y="1002" on="1"/>
        <pt x="487" y="992" on="1"/>
        <pt x="617" y="780" on="1"/>
        <pt x="749" y="992" on="1"/>
        <pt x="701" y="1002" on="1"/>
        <pt x="701" y="1165" on="1"/>
        <pt x="1209" y="1165" on="1"/>
        <pt x="1209" y="989" on="1"/>
        <pt x="1069" y="966" on="1"/>
        <pt x="831" y="588" on="1"/>
        <pt x="1072" y="197" on="1"/>
        <pt x="1210" y="175" on="1"/>
        <pt x="1210" y="0" on="1"/>
        <pt x="704" y="0" on="1"/>
        <pt x="704" y="162" on="1"/>
        <pt x="755" y="172" on="1"/>
        <pt x="620" y="393" on="1"/>
        <pt x="486" y="172" on="1"/>
        <pt x="537" y="162" on="1"/>
        <pt x="537" y="0" on="1"/>
        <pt x="29" y="0" on="1"/>
      </contour>
    </TTGlyph>
    <TTGlyph name="Xi" xMin="63" yMin="0" xMax="1194" yMax="1456">
      <contour>
        <pt x="63" y="368" on="1"/>
        <pt x="286" y="368" on="1"/>
        <pt x="297" y="224" on="1"/>
        <pt x="959" y="224" on="1"/>
        <pt x="971" y="368" on="1"/>
        <pt x="1194" y="368" on="1"/>
        <pt x="1194" y="0" on="1"/>
        <pt x="63" y="0" on="1"/>
      </contour>
      <contour>
        <pt x="1154" y="1456" on="1"/>
        <pt x="1154" y="1087" on="1"/>
        <pt x="930" y="1087" on="1"/>
        <pt x="918" y="1231" on="1"/>
        <pt x="320" y="1231" on="1"/>
        <pt x="309" y="1087" on="1"/>
        <pt x="85" y="1087" on="1"/>
        <pt x="85" y="1456" on="1"/>
      </contour>
      <contour>
        <pt x="313" y="849" on="1"/>
        <pt x="943" y="849" on="1"/>
        <pt x="943" y="632" on="1"/>
        <pt x="313" y="632" on="1"/>
      </contour>
    </TTGlyph>
    <TTGlyph name="Y" xMin="36" yMin="0" xMax="1359" yMax="1456">
      <contour>
        <pt x="587" y="1280" on="1"/>
        <pt x="468" y="1263" on="1"/>
        <pt x="694" y="785" on="1"/>
        <pt x="700" y="785" on="1"/>
        <pt x="926" y="1263" on="1"/>
        <pt x="808" y="1280" on="1"/>
        <pt x="808" y="1456" on="1"/>
        <pt x="1359" y="1456" on="1"/>
        <pt x="1359" y="1280" on="1"/>
        <pt x="1235" y="1260" on="1"/>
        <pt x="839" y="512" on="1"/>
        <pt x="839" y="205" on="1"/>
        <pt x="995" y="175" on="1"/>
        <pt x="995" y="0" on="1"/>
        <pt x="392" y="0" on="1"/>
        <pt x="392" y="175" on="1"/>
        <pt x="548" y="205" on="1"/>
        <pt x="548" y="527" on="1"/>
        <pt x="159" y="1260" on="1"/>
        <pt x="36" y="1280" on="1"/>
        <pt x="36" y="1456" on="1"/>
        <pt x="587" y="1456" on="1"/>
      </contour>
    </TTGlyph>
    <TTGlyph name="Y.smcp" xMin="23" yMin="0" xMax="1185" yMax="1165">
      <contour>
        <pt x="533" y="989" on="1"/>
        <pt x="463" y="975" on="1"/>
        <pt x="601" y="665" on="1"/>
        <pt x="607" y="665" on="1"/>
        <pt x="746" y="975" on="1"/>
        <pt x="675" y="989" on="1"/>
        <pt x="675" y="1165" on="1"/>
        <pt x="1185" y="1165" on="1"/>
        <pt x="1185" y="989" on="1"/>
        <pt x="1043" y="968" on="1"/>
        <pt x="747" y="409" on="1"/>
        <pt x="747" y="205" on="1"/>
        <pt x="902" y="175" on="1"/>
        <pt x="902" y="0" on="1"/>
        <pt x="300" y="0" on="1"/>
        <pt x="300" y="175" on="1"/>
        <pt x="455" y="205" on="1"/>
        <pt x="455" y="420" on="1"/>
        <pt x="165" y="968" on="1"/>
        <pt x="23" y="989" on="1"/>
        <pt x="23" y="1165" on="1"/>
        <pt x="533" y="1165" on="1"/>
      </contour>
    </TTGlyph>
    <TTGlyph name="Yacute" xMin="36" yMin="0" xMax="1359" yMax="1826">
      <component glyphName="Y" x="0" y="0" flags="0x204"/>
      <component glyphName="acute" x="455" y="348" flags="0x4"/>
    </TTGlyph>
    <TTGlyph name="Yacute.smcp" xMin="23" yMin="0" xMax="1185" yMax="1503">
      <component glyphName="Y.smcp" x="0" y="0" flags="0x204"/>
      <component glyphName="acute" x="339" y="25" flags="0x4"/>
    </TTGlyph>
    <TTGlyph name="Ycircumflex" xMin="36" yMin="0" xMax="1359" yMax="1847">
      <component glyphName="Y" x="0" y="0" flags="0x204"/>
      <component glyphName="circumflex" x="256" y="329" flags="0x4"/>
    </TTGlyph>
    <TTGlyph name="Ycircumflex.smcp" xMin="23" yMin="0" xMax="1185" yMax="1524">
      <component glyphName="Y.smcp" x="0" y="0" flags="0x204"/>
      <component glyphName="circumflex" x="140" y="6" flags="0x4"/>
    </TTGlyph>
    <TTGlyph name="Ydieresis" xMin="36" yMin="0" xMax="1359" yMax="1805">
      <component glyphName="Y" x="0" y="0" flags="0x204"/>
      <component glyphName="dieresis" x="172" y="349" flags="0x4"/>
    </TTGlyph>
    <TTGlyph name="Ydieresis.smcp" xMin="23" yMin="0" xMax="1185" yMax="1482">
      <component glyphName="Y.smcp" x="0" y="0" flags="0x204"/>
      <component glyphName="dieresis" x="56" y="26" flags="0x4"/>
    </TTGlyph>
    <TTGlyph name="Ygrave" xMin="36" yMin="0" xMax="1359" yMax="1834">
      <component glyphName="Y" x="0" y="0" flags="0x204"/>
      <component glyphName="grave" x="294" y="356" flags="0x4"/>
    </TTGlyph>
    <TTGlyph name="Z" xMin="74" yMin="0" xMax="1183" yMax="1456">
      <contour>
        <pt x="1143" y="1456" on="1"/>
        <pt x="1143" y="1310" on="1"/>
        <pt x="430" y="224" on="1"/>
        <pt x="937" y="224" on="1"/>
        <pt x="961" y="400" on="1"/>
        <pt x="1183" y="400" on="1"/>
        <pt x="1161" y="0" on="1"/>
        <pt x="74" y="0" on="1"/>
        <pt x="74" y="152" on="1"/>
        <pt x="784" y="1231" on="1"/>
        <pt x="321" y="1231" on="1"/>
        <pt x="298" y="1055" on="1"/>
        <pt x="75" y="1055" on="1"/>
        <pt x="97" y="1456" on="1"/>
      </contour>
    </TTGlyph>
    <TTGlyph name="Z.smcp" xMin="79" yMin="0" xMax="1036" yMax="1165">
      <contour>
        <pt x="79" y="0" on="1"/>
        <pt x="79" y="122" on="1"/>
        <pt x="651" y="942" on="1"/>
        <pt x="347" y="942" on="1"/>
        <pt x="336" y="796" on="1"/>
        <pt x="113" y="796" on="1"/>
        <pt x="113" y="1165" on="1"/>
        <pt x="1029" y="1165" on="1"/>
        <pt x="1029" y="1048" on="1"/>
        <pt x="454" y="222" on="1"/>
        <pt x="802" y="222" on="1"/>
        <pt x="814" y="368" on="1"/>
        <pt x="1036" y="368" on="1"/>
        <pt x="1036" y="0" on="1"/>
      </contour>
    </TTGlyph>
    <TTGlyph name="Zacute" xMin="74" yMin="0" xMax="1183" yMax="1827">
      <component glyphName="Z" x="0" y="0" flags="0x204"/>
      <component glyphName="acute" x="356" y="349" flags="0x4"/>
    </TTGlyph>
    <TTGlyph name="Zacute.smcp" xMin="79" yMin="0" xMax="1036" yMax="1504">
      <component glyphName="Z.smcp" x="0" y="0" flags="0x204"/>
      <component glyphName="acute" x="303" y="26" flags="0x4"/>
    </TTGlyph>
    <TTGlyph name="Zcaron" xMin="74" yMin="0" xMax="1183" yMax="1868">
      <component glyphName="Z" x="0" y="0" flags="0x204"/>
      <component glyphName="caron" x="145" y="344" flags="0x4"/>
    </TTGlyph>
    <TTGlyph name="Zcaron.smcp" xMin="79" yMin="0" xMax="1036" yMax="1545">
      <component glyphName="Z.smcp" x="0" y="0" flags="0x204"/>
      <component glyphName="caron" x="92" y="21" flags="0x4"/>
    </TTGlyph>
    <TTGlyph name="Zdotaccent" xMin="74" yMin="0" xMax="1183" yMax="1843">
      <component glyphName="Z" x="0" y="0" flags="0x204"/>
      <component glyphName="dotaccent" x="311" y="375" flags="0x4"/>
    </TTGlyph>
    <TTGlyph name="Zdotaccent.smcp" xMin="79" yMin="0" xMax="1036" yMax="1520">
      <component glyphName="Z.smcp" x="0" y="0" flags="0x204"/>
      <component glyphName="dotaccent" x="258" y="52" flags="0x4"/>
    </TTGlyph>
    <TTGlyph name="Zeta" xMin="74" yMin="0" xMax="1183" yMax="1456">
      <component glyphName="Z" x="0" y="0" flags="0x204"/>
    </TTGlyph>
    <TTGlyph name="a" xMin="74" yMin="-21" xMax="1089" yMax="1102">
      <contour>
        <pt x="752" y="0" on="1"/>
        <pt x="740" y="27" on="0"/>
        <pt x="722" y="84" on="0"/>
        <pt x="717" y="113" on="1"/>
        <pt x="665" y="53" on="0"/>
        <pt x="516" y="-21" on="0"/>
        <pt x="420" y="-21" on="1"/>
        <pt x="261" y="-21" on="0"/>
        <pt x="74" y="152" on="0"/>
        <pt x="74" y="301" on="1"/>
        <pt x="74" y="453" on="0"/>
        <pt x="318" y="619" on="0"/>
        <pt x="554" y="619" on="1"/>
        <pt x="703" y="619" on="1"/>
        <pt x="703" y="725" on="1"/>
        <pt x="703" y="803" on="0"/>
        <pt x="613" y="889" on="0"/>
        <pt x="525" y="889" on="1"/>
        <pt x="475" y="889" on="0"/>
        <pt x="397" y="866" on="0"/>
        <pt x="373" y="850" on="1"/>
        <pt x="354" y="734" on="1"/>
        <pt x="134" y="734" on="1"/>
        <pt x="135" y="974" on="1"/>
        <pt x="215" y="1028" on="0"/>
        <pt x="422" y="1102" on="0"/>
        <pt x="544" y="1102" on="1"/>
        <pt x="745" y="1102" on="0"/>
        <pt x="996" y="905" on="0"/>
        <pt x="996" y="723" on="1"/>
        <pt x="996" y="276" on="1"/>
        <pt x="996" y="251" on="0"/>
        <pt x="997" y="207" on="0"/>
        <pt x="1000" y="187" on="1"/>
        <pt x="1089" y="175" on="1"/>
        <pt x="1089" y="0" on="1"/>
      </contour>
      <contour>
        <pt x="499" y="195" on="1"/>
        <pt x="565" y="195" on="0"/>
        <pt x="673" y="252" on="0"/>
        <pt x="703" y="295" on="1"/>
        <pt x="703" y="460" on="1"/>
        <pt x="554" y="460" on="1"/>
        <pt x="461" y="460" on="0"/>
        <pt x="365" y="373" on="0"/>
        <pt x="365" y="312" on="1"/>
        <pt x="365" y="257" on="0"/>
        <pt x="436" y="195" on="0"/>
      </contour>
    </TTGlyph>
    <TTGlyph name="a.ss03" xMin="74" yMin="-21" xMax="1104" yMax="1102">
      <contour>
        <pt x="752" y="0" on="1"/>
        <pt x="740" y="27" on="0"/>
        <pt x="722" y="84" on="0"/>
        <pt x="717" y="113" on="1"/>
        <pt x="665" y="53" on="0"/>
        <pt x="516" y="-21" on="0"/>
        <pt x="420" y="-21" on="1"/>
        <pt x="261" y="-21" on="0"/>
        <pt x="74" y="156" on="0"/>
        <pt x="74" y="305" on="1"/>
        <pt x="74" y="464" on="0"/>
        <pt x="319" y="639" on="0"/>
        <pt x="554" y="639" on="1"/>
        <pt x="703" y="639" on="1"/>
        <pt x="703" y="725" on="1"/>
        <pt x="703" y="803" on="0"/>
        <pt x="620" y="889" on="0"/>
        <pt x="540" y="889" on="1"/>
        <pt x="468" y="889" on="0"/>
        <pt x="389" y="820" on="0"/>
        <pt x="389" y="759" on="1"/>
        <pt x="108" y="760" on="1"/>
        <pt x="106" y="766" on="1"/>
        <pt x="99" y="903" on="0"/>
        <pt x="353" y="1102" on="0"/>
        <pt x="559" y="1102" on="1"/>
        <pt x="754" y="1102" on="0"/>
        <pt x="996" y="905" on="0"/>
        <pt x="996" y="723" on="1"/>
        <pt x="996" y="276" on="1"/>
        <pt x="996" y="251" on="0"/>
        <pt x="997" y="208" on="0"/>
        <pt x="1000" y="188" on="1"/>
        <pt x="1104" y="175" on="1"/>
        <pt x="1104" y="0" on="1"/>
      </contour>
      <contour>
        <pt x="499" y="195" on="1"/>
        <pt x="565" y="195" on="0"/>
        <pt x="673" y="252" on="0"/>
        <pt x="703" y="295" on="1"/>
        <pt x="703" y="474" on="1"/>
        <pt x="554" y="474" on="1"/>
        <pt x="460" y="474" on="0"/>
        <pt x="365" y="382" on="0"/>
        <pt x="365" y="315" on="1"/>
        <pt x="365" y="261" on="0"/>
        <pt x="437" y="195" on="0"/>
      </contour>
    </TTGlyph>
    <TTGlyph name="aacute" xMin="74" yMin="-21" xMax="1089" yMax="1502">
      <component glyphName="a" x="0" y="0" flags="0x204"/>
      <component glyphName="acute" x="316" y="24" flags="0x4"/>
    </TTGlyph>
    <TTGlyph name="abreve" xMin="74" yMin="-21" xMax="1089" yMax="1559">
      <component glyphName="a" x="0" y="0" flags="0x204"/>
      <component glyphName="breve" x="120" y="103" flags="0x4"/>
    </TTGlyph>
    <TTGlyph name="acircumflex" xMin="74" yMin="-21" xMax="1089" yMax="1523">
      <component glyphName="a" x="0" y="0" flags="0x204"/>
      <component glyphName="circumflex" x="117" y="5" flags="0x4"/>
    </TTGlyph>
    <TTGlyph name="acute" xMin="82" yMin="1212" xMax="592" yMax="1478">
      <contour>
        <pt x="281" y="1478" on="1"/>
        <pt x="590" y="1478" on="1"/>
        <pt x="592" y="1472" on="1"/>
        <pt x="316" y="1212" on="1"/>
        <pt x="82" y="1212" on="1"/>
      </contour>
    </TTGlyph>
    <TTGlyph name="acutecomb" xMin="93" yMin="1202" xMax="458" yMax="1516">
      <contour>
        <pt x="228" y="1516" on="1"/>
        <pt x="458" y="1516" on="1"/>
        <pt x="267" y="1202" on="1"/>
        <pt x="93" y="1202" on="1"/>
      </contour>
    </TTGlyph>
    <TTGlyph name="adieresis" xMin="74" yMin="-21" xMax="1089" yMax="1481">
      <component glyphName="a" x="0" y="0" flags="0x204"/>
      <component glyphName="dieresis" x="33" y="25" flags="0x4"/>
    </TTGlyph>
    <TTGlyph name="ae" xMin="73" yMin="-21" xMax="1704" yMax="1102">
      <contour>
        <pt x="1273" y="-21" on="1"/>
        <pt x="1144" y="-21" on="0"/>
        <pt x="943" y="60" on="0"/>
        <pt x="876" y="136" on="1"/>
        <pt x="816" y="68" on="0"/>
        <pt x="613" y="-21" on="0"/>
        <pt x="474" y="-21" on="1"/>
        <pt x="282" y="-21" on="0"/>
        <pt x="73" y="160" on="0"/>
        <pt x="73" y="317" on="1"/>
        <pt x="73" y="476" on="0"/>
        <pt x="327" y="648" on="0"/>
        <pt x="570" y="648" on="1"/>
        <pt x="751" y="648" on="1"/>
        <pt x="751" y="707" on="1"/>
        <pt x="751" y="786" on="0"/>
        <pt x="669" y="877" on="0"/>
        <pt x="595" y="877" on="1"/>
        <pt x="514" y="877" on="0"/>
        <pt x="422" y="802" on="0"/>
        <pt x="422" y="746" on="1"/>
        <pt x="139" y="764" on="1"/>
        <pt x="137" y="770" on="1"/>
        <pt x="131" y="914" on="0"/>
        <pt x="386" y="1102" on="0"/>
        <pt x="598" y="1102" on="1"/>
        <pt x="700" y="1102" on="0"/>
        <pt x="868" y="1047" on="0"/>
        <pt x="927" y="995" on="1"/>
        <pt x="988" y="1047" on="0"/>
        <pt x="1151" y="1102" on="0"/>
        <pt x="1250" y="1102" on="1"/>
        <pt x="1462" y="1102" on="0"/>
        <pt x="1704" y="838" on="0"/>
        <pt x="1704" y="612" on="1"/>
        <pt x="1704" y="454" on="1"/>
        <pt x="1054" y="454" on="1"/>
        <pt x="1052" y="448" on="1"/>
        <pt x="1056" y="336" on="0"/>
        <pt x="1180" y="203" on="0"/>
        <pt x="1304" y="203" on="1"/>
        <pt x="1396" y="203" on="0"/>
        <pt x="1520" y="243" on="0"/>
        <pt x="1598" y="284" on="1"/>
        <pt x="1675" y="100" on="1"/>
        <pt x="1613" y="52" on="0"/>
        <pt x="1399" y="-21" on="0"/>
      </contour>
      <contour>
        <pt x="530" y="185" on="1"/>
        <pt x="588" y="185" on="0"/>
        <pt x="714" y="246" on="0"/>
        <pt x="751" y="288" on="1"/>
        <pt x="751" y="464" on="1"/>
        <pt x="572" y="464" on="1"/>
        <pt x="474" y="464" on="0"/>
        <pt x="365" y="376" on="0"/>
        <pt x="365" y="313" on="1"/>
        <pt x="365" y="254" on="0"/>
        <pt x="448" y="185" on="0"/>
      </contour>
      <contour>
        <pt x="1250" y="877" on="1"/>
        <pt x="1155" y="877" on="0"/>
        <pt x="1061" y="754" on="0"/>
        <pt x="1054" y="649" on="1"/>
        <pt x="1056" y="644" on="1"/>
        <pt x="1418" y="644" on="1"/>
        <pt x="1418" y="672" on="1"/>
        <pt x="1418" y="766" on="0"/>
        <pt x="1333" y="877" on="0"/>
      </contour>
    </TTGlyph>
    <TTGlyph name="aeacute" xMin="73" yMin="-21" xMax="1704" yMax="1503">
      <component glyphName="ae" x="0" y="0" flags="0x204"/>
      <component glyphName="acute" x="609" y="25" flags="0x4"/>
    </TTGlyph>
    <TTGlyph name="agrave" xMin="74" yMin="-21" xMax="1089" yMax="1510">
      <component glyphName="a" x="0" y="0" flags="0x204"/>
      <component glyphName="grave" x="155" y="32" flags="0x4"/>
    </TTGlyph>
    <TTGlyph name="alpha" xMin="98" yMin="-21" xMax="1174" yMax="1102">
      <contour>
        <pt x="1057" y="1081" on="1"/>
        <pt x="1057" y="345" on="1"/>
        <pt x="1057" y="270" on="0"/>
        <pt x="1092" y="210" on="0"/>
        <pt x="1128" y="210" on="1"/>
        <pt x="1134" y="210" on="0"/>
        <pt x="1145" y="212" on="0"/>
        <pt x="1149" y="214" on="1"/>
        <pt x="1174" y="5" on="1"/>
        <pt x="1143" y="-10" on="0"/>
        <pt x="1086" y="-21" on="0"/>
        <pt x="1048" y="-21" on="1"/>
        <pt x="957" y="-21" on="0"/>
        <pt x="829" y="60" on="0"/>
        <pt x="797" y="143" on="1"/>
        <pt x="749" y="63" on="0"/>
        <pt x="612" y="-21" on="0"/>
        <pt x="520" y="-21" on="1"/>
        <pt x="320" y="-21" on="0"/>
        <pt x="98" y="271" on="0"/>
        <pt x="98" y="511" on="1"/>
        <pt x="98" y="532" on="1"/>
        <pt x="98" y="788" on="0"/>
        <pt x="320" y="1102" on="0"/>
        <pt x="522" y="1102" on="1"/>
        <pt x="606" y="1102" on="0"/>
        <pt x="735" y="1025" on="0"/>
        <pt x="782" y="954" on="1"/>
        <pt x="804" y="1081" on="1"/>
      </contour>
      <contour>
        <pt x="391" y="511" on="1"/>
        <pt x="391" y="368" on="0"/>
        <pt x="486" y="203" on="0"/>
        <pt x="593" y="203" on="1"/>
        <pt x="653" y="203" on="0"/>
        <pt x="738" y="255" on="0"/>
        <pt x="766" y="304" on="1"/>
        <pt x="765" y="312" on="0"/>
        <pt x="765" y="331" on="0"/>
        <pt x="765" y="345" on="1"/>
        <pt x="765" y="769" on="1"/>
        <pt x="737" y="821" on="0"/>
        <pt x="653" y="877" on="0"/>
        <pt x="595" y="877" on="1"/>
        <pt x="489" y="877" on="0"/>
        <pt x="391" y="686" on="0"/>
        <pt x="391" y="532" on="1"/>
      </contour>
    </TTGlyph>
    <TTGlyph name="alpha.alt" xMin="86" yMin="-21" xMax="1130" yMax="1102">
      <contour>
        <pt x="847" y="164" on="1"/>
        <pt x="794" y="74" on="0"/>
        <pt x="633" y="-21" on="0"/>
        <pt x="522" y="-21" on="1"/>
        <pt x="315" y="-21" on="0"/>
        <pt x="86" y="271" on="0"/>
        <pt x="86" y="511" on="1"/>
        <pt x="86" y="532" on="1"/>
        <pt x="86" y="788" on="0"/>
        <pt x="315" y="1102" on="0"/>
        <pt x="524" y="1102" on="1"/>
        <pt x="632" y="1102" on="0"/>
        <pt x="789" y="1006" on="0"/>
        <pt x="842" y="916" on="1"/>
        <pt x="866" y="1082" on="1"/>
        <pt x="1123" y="1082" on="1"/>
        <pt x="1015" y="540" on="1"/>
        <pt x="1130" y="0" on="1"/>
        <pt x="873" y="0" on="1"/>
      </contour>
      <contour>
        <pt x="378" y="511" on="1"/>
        <pt x="378" y="368" on="0"/>
        <pt x="473" y="203" on="0"/>
        <pt x="580" y="203" on="1"/>
        <pt x="679" y="203" on="0"/>
        <pt x="779" y="369" on="0"/>
        <pt x="788" y="498" on="1"/>
        <pt x="788" y="559" on="1"/>
        <pt x="781" y="697" on="0"/>
        <pt x="680" y="877" on="0"/>
        <pt x="582" y="877" on="1"/>
        <pt x="476" y="877" on="0"/>
        <pt x="378" y="686" on="0"/>
        <pt x="378" y="532" on="1"/>
      </contour>
    </TTGlyph>
    <TTGlyph name="alphatonos" xMin="98" yMin="-21" xMax="1174" yMax="1619">
      <component glyphName="alpha" x="0" y="0" flags="0x204"/>
      <component glyphName="tonos" x="405" y="-15" flags="0x4"/>
    </TTGlyph>
    <TTGlyph name="amacron" xMin="74" yMin="-21" xMax="1089" yMax="1458">
      <component glyphName="a" x="0" y="0" flags="0x204"/>
      <component glyphName="macron" x="50" y="1" flags="0x4"/>
    </TTGlyph>
    <TTGlyph name="ampersand" xMin="45" yMin="-21" xMax="1292" yMax="1477">
      <contour>
        <pt x="45" y="392" on="1"/>
        <pt x="45" y="510" on="0"/>
        <pt x="175" y="681" on="0"/>
        <pt x="308" y="774" on="1"/>
        <pt x="240" y="866" on="0"/>
        <pt x="173" y="1018" on="0"/>
        <pt x="173" y="1097" on="1"/>
        <pt x="173" y="1270" on="0"/>
        <pt x="389" y="1477" on="0"/>
        <pt x="570" y="1477" on="1"/>
        <pt x="729" y="1477" on="0"/>
        <pt x="928" y="1280" on="0"/>
        <pt x="928" y="1140" on="1"/>
        <pt x="928" y="1042" on="0"/>
        <pt x="830" y="880" on="0"/>
        <pt x="745" y="819" on="1"/>
        <pt x="652" y="753" on="1"/>
        <pt x="928" y="431" on="1"/>
        <pt x="964" y="491" on="0"/>
        <pt x="1004" y="631" on="0"/>
        <pt x="1004" y="709" on="1"/>
        <pt x="1222" y="709" on="1"/>
        <pt x="1222" y="571" on="0"/>
        <pt x="1154" y="339" on="0"/>
        <pt x="1084" y="249" on="1"/>
        <pt x="1292" y="5" on="1"/>
        <pt x="1290" y="0" on="1"/>
        <pt x="966" y="0" on="1"/>
        <pt x="889" y="89" on="1"/>
        <pt x="804" y="34" on="0"/>
        <pt x="624" y="-21" on="0"/>
        <pt x="521" y="-21" on="1"/>
        <pt x="303" y="-21" on="0"/>
        <pt x="45" y="208" on="0"/>
      </contour>
      <contour>
        <pt x="536" y="203" on="1"/>
        <pt x="589" y="203" on="0"/>
        <pt x="695" y="230" on="0"/>
        <pt x="744" y="257" on="1"/>
        <pt x="444" y="605" on="1"/>
        <pt x="425" y="592" on="1"/>
        <pt x="374" y="544" on="0"/>
        <pt x="337" y="453" on="0"/>
        <pt x="337" y="407" on="1"/>
        <pt x="337" y="318" on="0"/>
        <pt x="447" y="203" on="0"/>
      </contour>
      <contour>
        <pt x="434" y="1100" on="1"/>
        <pt x="434" y="1057" on="0"/>
        <pt x="477" y="966" on="0"/>
        <pt x="520" y="911" on="1"/>
        <pt x="606" y="967" on="1"/>
        <pt x="662" y="1003" on="0"/>
        <pt x="701" y="1079" on="0"/>
        <pt x="701" y="1124" on="1"/>
        <pt x="701" y="1174" on="0"/>
        <pt x="628" y="1252" on="0"/>
        <pt x="569" y="1252" on="1"/>
        <pt x="504" y="1252" on="0"/>
        <pt x="434" y="1165" on="0"/>
      </contour>
    </TTGlyph>
    <TTGlyph name="anoteleia" xMin="145" yMin="568" xMax="437" yMax="828">
      <component glyphName="periodcentered" x="0" y="0" flags="0x204"/>
    </TTGlyph>
    <TTGlyph name="aogonek" xMin="74" yMin="-424" xMax="1200" yMax="1102">
      <component glyphName="a" x="0" y="0" flags="0x204"/>
      <component glyphName="ogonek" x="727" y="0" flags="0x4"/>
    </TTGlyph>
    <TTGlyph name="approxequal" xMin="117" yMin="234" xMax="1091" yMax="1027">
      <contour>
        <pt x="127" y="877" on="1"/>
        <pt x="174" y="945" on="0"/>
        <pt x="298" y="1023" on="0"/>
        <pt x="363" y="1023" on="1"/>
        <pt x="433" y="1024" on="0"/>
        <pt x="526" y="992" on="0"/>
        <pt x="612" y="950" on="1"/>
        <pt x="686" y="912" on="0"/>
        <pt x="778" y="881" on="0"/>
        <pt x="845" y="881" on="1"/>
        <pt x="909" y="881" on="0"/>
        <pt x="1033" y="958" on="0"/>
        <pt x="1081" y="1027" on="1"/>
        <pt x="1091" y="814" on="1"/>
        <pt x="1043" y="745" on="0"/>
        <pt x="919" y="668" on="0"/>
        <pt x="855" y="668" on="1"/>
        <pt x="788" y="668" on="0"/>
        <pt x="696" y="699" on="0"/>
        <pt x="622" y="737" on="1"/>
        <pt x="536" y="779" on="0"/>
        <pt x="443" y="811" on="0"/>
        <pt x="373" y="810" on="1"/>
        <pt x="308" y="810" on="0"/>
        <pt x="184" y="732" on="0"/>
        <pt x="137" y="664" on="1"/>
      </contour>
      <contour>
        <pt x="117" y="447" on="1"/>
        <pt x="164" y="515" on="0"/>
        <pt x="288" y="593" on="0"/>
        <pt x="353" y="593" on="1"/>
        <pt x="423" y="594" on="0"/>
        <pt x="516" y="562" on="0"/>
        <pt x="602" y="520" on="1"/>
        <pt x="676" y="482" on="0"/>
        <pt x="768" y="451" on="0"/>
        <pt x="835" y="451" on="1"/>
        <pt x="899" y="451" on="0"/>
        <pt x="1023" y="528" on="0"/>
        <pt x="1071" y="597" on="1"/>
        <pt x="1081" y="384" on="1"/>
        <pt x="1033" y="315" on="0"/>
        <pt x="909" y="238" on="0"/>
        <pt x="845" y="238" on="1"/>
        <pt x="778" y="238" on="0"/>
        <pt x="686" y="269" on="0"/>
        <pt x="612" y="307" on="1"/>
        <pt x="526" y="349" on="0"/>
        <pt x="433" y="381" on="0"/>
        <pt x="363" y="380" on="1"/>
        <pt x="298" y="380" on="0"/>
        <pt x="174" y="302" on="0"/>
        <pt x="127" y="234" on="1"/>
      </contour>
    </TTGlyph>
    <TTGlyph name="aring" xMin="74" yMin="-21" xMax="1089" yMax="1617">
      <component glyphName="a" x="0" y="0" flags="0x204"/>
      <component glyphName="ring" x="248" y="123" flags="0x4"/>
    </TTGlyph>
    <TTGlyph name="aringacute" xMin="74" yMin="-21" xMax="1089" yMax="1691">
      <component glyphName="a" x="0" y="0" flags="0x204"/>
      <component glyphName="ringacute" x="252" y="-29" flags="0x4"/>
    </TTGlyph>
    <TTGlyph name="asciicircum" xMin="45" yMin="729" xMax="855" yMax="1456">
      <contour>
        <pt x="276" y="729" on="1"/>
        <pt x="45" y="729" on="1"/>
        <pt x="344" y="1456" on="1"/>
        <pt x="556" y="1456" on="1"/>
        <pt x="855" y="729" on="1"/>
        <pt x="624" y="729" on="1"/>
        <pt x="459" y="1142" on="1"/>
        <pt x="451" y="1176" on="1"/>
        <pt x="445" y="1176" on="1"/>
        <pt x="438" y="1142" on="1"/>
      </contour>
    </TTGlyph>
    <TTGlyph name="asciitilde" xMin="100" yMin="378" xMax="1214" yMax="825">
      <contour>
        <pt x="1214" y="758" on="1"/>
        <pt x="1214" y="597" on="0"/>
        <pt x="1037" y="378" on="0"/>
        <pt x="902" y="378" on="1"/>
        <pt x="817" y="378" on="0"/>
        <pt x="673" y="441" on="0"/>
        <pt x="595" y="511" on="1"/>
        <pt x="545" y="555" on="0"/>
        <pt x="469" y="595" on="0"/>
        <pt x="425" y="595" on="1"/>
        <pt x="373" y="595" on="0"/>
        <pt x="301" y="493" on="0"/>
        <pt x="301" y="422" on="1"/>
        <pt x="100" y="448" on="1"/>
        <pt x="100" y="610" on="0"/>
        <pt x="273" y="825" on="0"/>
        <pt x="410" y="825" on="1"/>
        <pt x="493" y="825" on="0"/>
        <pt x="644" y="758" on="0"/>
        <pt x="719" y="692" on="1"/>
        <pt x="768" y="647" on="0"/>
        <pt x="844" y="608" on="0"/>
        <pt x="887" y="608" on="1"/>
        <pt x="938" y="608" on="0"/>
        <pt x="1012" y="712" on="0"/>
        <pt x="1012" y="785" on="1"/>
      </contour>
    </TTGlyph>
    <TTGlyph name="asterisk" xMin="34" yMin="579" xMax="885" yMax="1456">
      <contour>
        <pt x="336" y="966" on="1"/>
        <pt x="34" y="1055" on="1"/>
        <pt x="91" y="1232" on="1"/>
        <pt x="388" y="1109" on="1"/>
        <pt x="370" y="1456" on="1"/>
        <pt x="558" y="1456" on="1"/>
        <pt x="538" y="1103" on="1"/>
        <pt x="829" y="1223" on="1"/>
        <pt x="885" y="1043" on="1"/>
        <pt x="579" y="954" on="1"/>
        <pt x="779" y="689" on="1"/>
        <pt x="628" y="579" on="1"/>
        <pt x="453" y="869" on="1"/>
        <pt x="280" y="588" on="1"/>
        <pt x="128" y="694" on="1"/>
      </contour>
    </TTGlyph>
    <TTGlyph name="at" xMin="50" yMin="-453" xMax="1747" yMax="1418">
      <contour>
        <pt x="1731" y="513" on="1"/>
        <pt x="1722" y="295" on="0"/>
        <pt x="1484" y="-21" on="0"/>
        <pt x="1247" y="-21" on="1"/>
        <pt x="1169" y="-21" on="0"/>
        <pt x="1055" y="67" on="0"/>
        <pt x="1031" y="146" on="1"/>
        <pt x="987" y="64" on="0"/>
        <pt x="856" y="-18" on="0"/>
        <pt x="768" y="-18" on="1"/>
        <pt x="627" y="-18" on="0"/>
        <pt x="476" y="220" on="0"/>
        <pt x="495" y="416" on="1"/>
        <pt x="520" y="670" on="0"/>
        <pt x="758" y="976" on="0"/>
        <pt x="927" y="976" on="1"/>
        <pt x="1043" y="976" on="0"/>
        <pt x="1183" y="924" on="0"/>
        <pt x="1268" y="870" on="1"/>
        <pt x="1265" y="866" on="1"/>
        <pt x="1270" y="866" on="1"/>
        <pt x="1219" y="293" on="1"/>
        <pt x="1212" y="199" on="0"/>
        <pt x="1254" y="128" on="0"/>
        <pt x="1290" y="128" on="1"/>
        <pt x="1405" y="128" on="0"/>
        <pt x="1544" y="346" on="0"/>
        <pt x="1552" y="513" on="1"/>
        <pt x="1568" y="867" on="0"/>
        <pt x="1263" y="1262" on="0"/>
        <pt x="944" y="1262" on="1"/>
        <pt x="640" y="1262" on="0"/>
        <pt x="279" y="836" on="0"/>
        <pt x="264" y="478" on="1"/>
        <pt x="246" y="123" on="0"/>
        <pt x="573" y="-287" on="0"/>
        <pt x="879" y="-287" on="1"/>
        <pt x="964" y="-287" on="0"/>
        <pt x="1145" y="-247" on="0"/>
        <pt x="1210" y="-217" on="1"/>
        <pt x="1248" y="-364" on="1"/>
        <pt x="1181" y="-406" on="0"/>
        <pt x="974" y="-453" on="0"/>
        <pt x="875" y="-453" on="1"/>
        <pt x="479" y="-453" on="0"/>
        <pt x="50" y="45" on="0"/>
        <pt x="67" y="478" on="1"/>
        <pt x="85" y="905" on="0"/>
        <pt x="559" y="1418" on="0"/>
        <pt x="948" y="1418" on="1"/>
        <pt x="1335" y="1418" on="0"/>
        <pt x="1747" y="933" on="0"/>
      </contour>
      <contour>
        <pt x="721" y="416" on="1"/>
        <pt x="711" y="289" on="0"/>
        <pt x="768" y="158" on="0"/>
        <pt x="832" y="158" on="1"/>
        <pt x="888" y="158" on="0"/>
        <pt x="979" y="211" on="0"/>
        <pt x="1015" y="281" on="1"/>
        <pt x="1015" y="283" on="0"/>
        <pt x="1016" y="291" on="0"/>
        <pt x="1016" y="293" on="1"/>
        <pt x="1060" y="789" on="1"/>
        <pt x="1037" y="796" on="0"/>
        <pt x="990" y="804" on="0"/>
        <pt x="966" y="804" on="1"/>
        <pt x="855" y="804" on="0"/>
        <pt x="739" y="611" on="0"/>
      </contour>
    </TTGlyph>
    <TTGlyph name="atilde" xMin="74" yMin="-21" xMax="1089" yMax="1557">
      <component glyphName="a" x="0" y="0" flags="0x204"/>
      <component glyphName="tilde" x="81" y="28" flags="0x4"/>
    </TTGlyph>
    <TTGlyph name="b" xMin="-22" yMin="-21" xMax="1109" yMax="1560">
      <contour>
        <pt x="1109" y="511" on="1"/>
        <pt x="1109" y="269" on="0"/>
        <pt x="893" y="-21" on="0"/>
        <pt x="689" y="-21" on="1"/>
        <pt x="594" y="-21" on="0"/>
        <pt x="454" y="58" on="0"/>
        <pt x="406" y="133" on="1"/>
        <pt x="385" y="0" on="1"/>
        <pt x="133" y="0" on="1"/>
        <pt x="133" y="1354" on="1"/>
        <pt x="-22" y="1384" on="1"/>
        <pt x="-22" y="1560" on="1"/>
        <pt x="424" y="1560" on="1"/>
        <pt x="424" y="967" on="1"/>
        <pt x="471" y="1032" on="0"/>
        <pt x="602" y="1102" on="0"/>
        <pt x="687" y="1102" on="1"/>
        <pt x="893" y="1102" on="0"/>
        <pt x="1109" y="791" on="0"/>
        <pt x="1109" y="532" on="1"/>
      </contour>
      <contour>
        <pt x="818" y="532" on="1"/>
        <pt x="818" y="690" on="0"/>
        <pt x="725" y="875" on="0"/>
        <pt x="613" y="875" on="1"/>
        <pt x="545" y="875" on="0"/>
        <pt x="451" y="818" on="0"/>
        <pt x="424" y="765" on="1"/>
        <pt x="424" y="308" on="1"/>
        <pt x="451" y="258" on="0"/>
        <pt x="546" y="206" on="0"/>
        <pt x="615" y="206" on="1"/>
        <pt x="728" y="206" on="0"/>
        <pt x="818" y="365" on="0"/>
        <pt x="818" y="511" on="1"/>
      </contour>
    </TTGlyph>
    <TTGlyph name="backslash" xMin="12" yMin="-125" xMax="908" yMax="1456">
      <contour>
        <pt x="12" y="1456" on="1"/>
        <pt x="300" y="1456" on="1"/>
        <pt x="908" y="-125" on="1"/>
        <pt x="620" y="-125" on="1"/>
      </contour>
    </TTGlyph>
    <TTGlyph name="bar" xMin="132" yMin="-270" xMax="307" yMax="1456">
      <contour>
        <pt x="307" y="-270" on="1"/>
        <pt x="132" y="-270" on="1"/>
        <pt x="132" y="1456" on="1"/>
        <pt x="307" y="1456" on="1"/>
      </contour>
    </TTGlyph>
    <TTGlyph name="beta" xMin="126" yMin="-403" xMax="1144" yMax="1477">
      <contour>
        <pt x="597" y="1477" on="1"/>
        <pt x="807" y="1477" on="0"/>
        <pt x="1066" y="1262" on="0"/>
        <pt x="1066" y="1082" on="1"/>
        <pt x="1066" y="985" on="0"/>
        <pt x="970" y="824" on="0"/>
        <pt x="885" y="775" on="1"/>
        <pt x="1009" y="732" on="0"/>
        <pt x="1144" y="546" on="0"/>
        <pt x="1144" y="415" on="1"/>
        <pt x="1144" y="208" on="0"/>
        <pt x="905" y="-21" on="0"/>
        <pt x="698" y="-21" on="1"/>
        <pt x="625" y="-21" on="0"/>
        <pt x="479" y="16" on="0"/>
        <pt x="418" y="54" on="1"/>
        <pt x="418" y="-403" on="1"/>
        <pt x="126" y="-403" on="1"/>
        <pt x="126" y="1037" on="1"/>
        <pt x="126" y="1230" on="0"/>
        <pt x="399" y="1477" on="0"/>
      </contour>
      <contour>
        <pt x="593" y="859" on="1"/>
        <pt x="687" y="859" on="0"/>
        <pt x="775" y="964" on="0"/>
        <pt x="775" y="1063" on="1"/>
        <pt x="775" y="1142" on="0"/>
        <pt x="682" y="1252" on="0"/>
        <pt x="597" y="1252" on="1"/>
        <pt x="518" y="1252" on="0"/>
        <pt x="418" y="1133" on="0"/>
        <pt x="418" y="1037" on="1"/>
        <pt x="418" y="264" on="1"/>
        <pt x="457" y="234" on="0"/>
        <pt x="565" y="203" on="0"/>
        <pt x="632" y="203" on="1"/>
        <pt x="733" y="203" on="0"/>
        <pt x="853" y="324" on="0"/>
        <pt x="853" y="418" on="1"/>
        <pt x="853" y="526" on="0"/>
        <pt x="741" y="653" on="0"/>
        <pt x="639" y="653" on="1"/>
        <pt x="543" y="653" on="1"/>
        <pt x="543" y="859" on="1"/>
      </contour>
    </TTGlyph>
    <TTGlyph name="braceleft" xMin="39" yMin="-360" xMax="633" yMax="1597">
      <contour>
        <pt x="577" y="-360" on="1"/>
        <pt x="382" y="-305" on="0"/>
        <pt x="217" y="-65" on="0"/>
        <pt x="217" y="106" on="1"/>
        <pt x="217" y="309" on="1"/>
        <pt x="217" y="408" on="0"/>
        <pt x="130" y="518" on="0"/>
        <pt x="39" y="518" on="1"/>
        <pt x="39" y="719" on="1"/>
        <pt x="130" y="719" on="0"/>
        <pt x="217" y="828" on="0"/>
        <pt x="217" y="929" on="1"/>
        <pt x="217" y="1132" on="1"/>
        <pt x="217" y="1303" on="0"/>
        <pt x="382" y="1542" on="0"/>
        <pt x="577" y="1597" on="1"/>
        <pt x="633" y="1440" on="1"/>
        <pt x="547" y="1409" on="0"/>
        <pt x="478" y="1250" on="0"/>
        <pt x="478" y="1132" on="1"/>
        <pt x="478" y="929" on="1"/>
        <pt x="478" y="825" on="0"/>
        <pt x="388" y="664" on="0"/>
        <pt x="298" y="619" on="1"/>
        <pt x="388" y="572" on="0"/>
        <pt x="478" y="411" on="0"/>
        <pt x="478" y="309" on="1"/>
        <pt x="478" y="106" on="1"/>
        <pt x="478" y="-12" on="0"/>
        <pt x="547" y="-171" on="0"/>
        <pt x="633" y="-202" on="1"/>
      </contour>
    </TTGlyph>
    <TTGlyph name="braceright" xMin="11" yMin="-360" xMax="604" yMax="1597">
      <contour>
        <pt x="11" y="-202" on="1"/>
        <pt x="95" y="-171" on="0"/>
        <pt x="165" y="-12" on="0"/>
        <pt x="165" y="106" on="1"/>
        <pt x="165" y="309" on="1"/>
        <pt x="165" y="413" on="0"/>
        <pt x="257" y="573" on="0"/>
        <pt x="351" y="618" on="1"/>
        <pt x="257" y="663" on="0"/>
        <pt x="165" y="824" on="0"/>
        <pt x="165" y="929" on="1"/>
        <pt x="165" y="1132" on="1"/>
        <pt x="165" y="1250" on="0"/>
        <pt x="95" y="1409" on="0"/>
        <pt x="11" y="1440" on="1"/>
        <pt x="67" y="1597" on="1"/>
        <pt x="261" y="1542" on="0"/>
        <pt x="427" y="1303" on="0"/>
        <pt x="427" y="1132" on="1"/>
        <pt x="427" y="929" on="1"/>
        <pt x="427" y="828" on="0"/>
        <pt x="513" y="719" on="0"/>
        <pt x="604" y="719" on="1"/>
        <pt x="604" y="518" on="1"/>
        <pt x="513" y="518" on="0"/>
        <pt x="427" y="408" on="0"/>
        <pt x="427" y="309" on="1"/>
        <pt x="427" y="106" on="1"/>
        <pt x="427" y="-65" on="0"/>
        <pt x="261" y="-305" on="0"/>
        <pt x="67" y="-360" on="1"/>
      </contour>
    </TTGlyph>
    <TTGlyph name="bracketleft" xMin="139" yMin="-336" xMax="572" yMax="1691">
      <contour>
        <pt x="572" y="1475" on="1"/>
        <pt x="431" y="1475" on="1"/>
        <pt x="431" y="-120" on="1"/>
        <pt x="572" y="-120" on="1"/>
        <pt x="572" y="-336" on="1"/>
        <pt x="139" y="-336" on="1"/>
        <pt x="139" y="1691" on="1"/>
        <pt x="572" y="1691" on="1"/>
      </contour>
    </TTGlyph>
    <TTGlyph name="bracketright" xMin="11" yMin="-336" xMax="445" yMax="1691">
      <contour>
        <pt x="11" y="1691" on="1"/>
        <pt x="445" y="1691" on="1"/>
        <pt x="445" y="-336" on="1"/>
        <pt x="11" y="-336" on="1"/>
        <pt x="11" y="-120" on="1"/>
        <pt x="154" y="-120" on="1"/>
        <pt x="154" y="1475" on="1"/>
        <pt x="11" y="1475" on="1"/>
      </contour>
    </TTGlyph>
    <TTGlyph name="breve" xMin="100" yMin="1162" xMax="792" yMax="1456">
      <contour>
        <pt x="785" y="1456" on="1"/>
        <pt x="787" y="1450" on="1"/>
        <pt x="792" y="1323" on="0"/>
        <pt x="605" y="1162" on="0"/>
        <pt x="447" y="1162" on="1"/>
        <pt x="288" y="1162" on="0"/>
        <pt x="100" y="1323" on="0"/>
        <pt x="106" y="1450" on="1"/>
        <pt x="108" y="1456" on="1"/>
        <pt x="306" y="1456" on="1"/>
        <pt x="306" y="1398" on="0"/>
        <pt x="374" y="1322" on="0"/>
        <pt x="447" y="1322" on="1"/>
        <pt x="518" y="1322" on="0"/>
        <pt x="586" y="1397" on="0"/>
        <pt x="586" y="1456" on="1"/>
      </contour>
    </TTGlyph>
    <TTGlyph name="breveacutecomb" xMin="104" yMin="1225" xMax="795" yMax="1650">
      <contour>
        <pt x="788" y="1456" on="1"/>
        <pt x="789" y="1450" on="1"/>
        <pt x="795" y="1351" on="0"/>
        <pt x="608" y="1225" on="0"/>
        <pt x="450" y="1225" on="1"/>
        <pt x="291" y="1225" on="0"/>
        <pt x="104" y="1351" on="0"/>
        <pt x="111" y="1450" on="1"/>
        <pt x="112" y="1456" on="1"/>
        <pt x="294" y="1456" on="1"/>
        <pt x="294" y="1407" on="0"/>
        <pt x="369" y="1344" on="0"/>
        <pt x="450" y="1344" on="1"/>
        <pt x="529" y="1344" on="0"/>
        <pt x="605" y="1407" on="0"/>
        <pt x="605" y="1456" on="1"/>
      </contour>
      <contour>
        <pt x="493" y="1650" on="1"/>
        <pt x="690" y="1650" on="1"/>
        <pt x="692" y="1645" on="1"/>
        <pt x="522" y="1461" on="1"/>
        <pt x="370" y="1461" on="1"/>
      </contour>
    </TTGlyph>
    <TTGlyph name="brevegravecomb" xMin="92" yMin="1162" xMax="803" yMax="1716">
      <contour>
        <pt x="796" y="1456" on="1"/>
        <pt x="798" y="1450" on="1"/>
        <pt x="803" y="1323" on="0"/>
        <pt x="610" y="1162" on="0"/>
        <pt x="448" y="1162" on="1"/>
        <pt x="284" y="1162" on="0"/>
        <pt x="92" y="1323" on="0"/>
        <pt x="98" y="1450" on="1"/>
        <pt x="100" y="1456" on="1"/>
        <pt x="296" y="1456" on="1"/>
        <pt x="296" y="1403" on="0"/>
        <pt x="371" y="1335" on="0"/>
        <pt x="448" y="1335" on="1"/>
        <pt x="524" y="1335" on="0"/>
        <pt x="598" y="1403" on="0"/>
        <pt x="598" y="1456" on="1"/>
      </contour>
      <contour>
        <pt x="582" y="1499" on="1"/>
        <pt x="354" y="1499" on="1"/>
        <pt x="152" y="1710" on="1"/>
        <pt x="155" y="1716" on="1"/>
        <pt x="424" y="1716" on="1"/>
      </contour>
    </TTGlyph>
    <TTGlyph name="brevehookcomb" xMin="104" yMin="1227" xMax="799" yMax="1801">
      <contour>
        <pt x="608" y="1456" on="1"/>
        <pt x="608" y="1408" on="0"/>
        <pt x="531" y="1348" on="0"/>
        <pt x="453" y="1348" on="1"/>
        <pt x="371" y="1348" on="0"/>
        <pt x="296" y="1408" on="0"/>
        <pt x="296" y="1456" on="1"/>
        <pt x="113" y="1456" on="1"/>
        <pt x="111" y="1450" on="1"/>
        <pt x="104" y="1351" on="0"/>
        <pt x="292" y="1227" on="0"/>
        <pt x="453" y="1227" on="1"/>
        <pt x="613" y="1227" on="0"/>
        <pt x="799" y="1351" on="0"/>
        <pt x="793" y="1450" on="1"/>
        <pt x="792" y="1456" on="1"/>
      </contour>
      <contour>
        <pt x="357" y="1485" on="1"/>
        <pt x="341" y="1594" on="1"/>
        <pt x="412" y="1597" on="0"/>
        <pt x="473" y="1619" on="0"/>
        <pt x="468" y="1641" on="1"/>
        <pt x="468" y="1647" on="1"/>
        <pt x="473" y="1674" on="0"/>
        <pt x="403" y="1698" on="0"/>
        <pt x="337" y="1698" on="1"/>
        <pt x="344" y="1801" on="1"/>
        <pt x="510" y="1801" on="0"/>
        <pt x="686" y="1721" on="0"/>
        <pt x="686" y="1651" on="1"/>
        <pt x="686" y="1601" on="0"/>
        <pt x="602" y="1545" on="0"/>
        <pt x="540" y="1539" on="1"/>
        <pt x="539" y="1485" on="1"/>
      </contour>
    </TTGlyph>
    <TTGlyph name="brevetildecomb" xMin="103" yMin="1222" xMax="792" yMax="1762">
      <contour>
        <pt x="785" y="1456" on="1"/>
        <pt x="786" y="1450" on="1"/>
        <pt x="792" y="1350" on="0"/>
        <pt x="606" y="1222" on="0"/>
        <pt x="448" y="1222" on="1"/>
        <pt x="290" y="1222" on="0"/>
        <pt x="103" y="1350" on="0"/>
        <pt x="110" y="1450" on="1"/>
        <pt x="112" y="1456" on="1"/>
        <pt x="294" y="1456" on="1"/>
        <pt x="294" y="1407" on="0"/>
        <pt x="367" y="1347" on="0"/>
        <pt x="448" y="1347" on="1"/>
        <pt x="527" y="1347" on="0"/>
        <pt x="602" y="1408" on="0"/>
        <pt x="602" y="1456" on="1"/>
      </contour>
      <contour>
        <pt x="740" y="1728" on="1"/>
        <pt x="740" y="1654" on="0"/>
        <pt x="645" y="1547" on="0"/>
        <pt x="576" y="1547" on="1"/>
        <pt x="520" y="1547" on="0"/>
        <pt x="381" y="1615" on="0"/>
        <pt x="342" y="1615" on="1"/>
        <pt x="313" y="1615" on="0"/>
        <pt x="275" y="1565" on="0"/>
        <pt x="275" y="1529" on="1"/>
        <pt x="154" y="1562" on="1"/>
        <pt x="154" y="1635" on="0"/>
        <pt x="247" y="1744" on="0"/>
        <pt x="318" y="1744" on="1"/>
        <pt x="361" y="1744" on="0"/>
        <pt x="510" y="1677" on="0"/>
        <pt x="552" y="1677" on="1"/>
        <pt x="579" y="1677" on="0"/>
        <pt x="618" y="1726" on="0"/>
        <pt x="618" y="1762" on="1"/>
      </contour>
    </TTGlyph>
    <TTGlyph name="brokenbar" xMin="134" yMin="-270" xMax="395" yMax="1456">
      <contour>
        <pt x="134" y="-270" on="1"/>
        <pt x="134" y="525" on="1"/>
        <pt x="395" y="525" on="1"/>
        <pt x="395" y="-270" on="1"/>
      </contour>
      <contour>
        <pt x="395" y="698" on="1"/>
        <pt x="134" y="698" on="1"/>
        <pt x="134" y="1456" on="1"/>
        <pt x="395" y="1456" on="1"/>
      </contour>
    </TTGlyph>
    <TTGlyph name="bullet" xMin="120" yMin="491" xMax="596" yMax="1034">
      <contour>
        <pt x="120" y="806" on="1"/>
        <pt x="120" y="906" on="0"/>
        <pt x="249" y="1034" on="0"/>
        <pt x="357" y="1034" on="1"/>
        <pt x="467" y="1034" on="0"/>
        <pt x="596" y="907" on="0"/>
        <pt x="596" y="806" on="1"/>
        <pt x="596" y="716" on="1"/>
        <pt x="596" y="615" on="0"/>
        <pt x="467" y="491" on="0"/>
        <pt x="358" y="491" on="1"/>
        <pt x="249" y="491" on="0"/>
        <pt x="120" y="615" on="0"/>
        <pt x="120" y="716" on="1"/>
      </contour>
    </TTGlyph>
    <TTGlyph name="c" xMin="67" yMin="-21" xMax="1014" yMax="1102">
      <contour>
        <pt x="571" y="203" on="1"/>
        <pt x="649" y="203" on="0"/>
        <pt x="743" y="294" on="0"/>
        <pt x="743" y="370" on="1"/>
        <pt x="1007" y="370" on="1"/>
        <pt x="1010" y="364" on="1"/>
        <pt x="1014" y="200" on="0"/>
        <pt x="760" y="-21" on="0"/>
        <pt x="571" y="-21" on="1"/>
        <pt x="329" y="-21" on="0"/>
        <pt x="67" y="285" on="0"/>
        <pt x="67" y="525" on="1"/>
        <pt x="67" y="555" on="1"/>
        <pt x="67" y="794" on="0"/>
        <pt x="336" y="1102" on="0"/>
        <pt x="585" y="1102" on="1"/>
        <pt x="716" y="1102" on="0"/>
        <pt x="924" y="1024" on="0"/>
        <pt x="993" y="953" on="1"/>
        <pt x="997" y="664" on="1"/>
        <pt x="760" y="664" on="1"/>
        <pt x="712" y="833" on="1"/>
        <pt x="690" y="852" on="0"/>
        <pt x="626" y="877" on="0"/>
        <pt x="585" y="877" on="1"/>
        <pt x="461" y="877" on="0"/>
        <pt x="359" y="697" on="0"/>
        <pt x="359" y="555" on="1"/>
        <pt x="359" y="525" on="1"/>
        <pt x="359" y="380" on="0"/>
        <pt x="453" y="203" on="0"/>
      </contour>
    </TTGlyph>
    <TTGlyph name="c.ss03" xMin="80" yMin="-21" xMax="1027" yMax="1102">
      <contour>
        <pt x="584" y="203" on="1"/>
        <pt x="662" y="203" on="0"/>
        <pt x="755" y="294" on="0"/>
        <pt x="755" y="370" on="1"/>
        <pt x="1020" y="370" on="1"/>
        <pt x="1023" y="364" on="1"/>
        <pt x="1027" y="200" on="0"/>
        <pt x="772" y="-21" on="0"/>
        <pt x="584" y="-21" on="1"/>
        <pt x="341" y="-21" on="0"/>
        <pt x="80" y="285" on="0"/>
        <pt x="80" y="525" on="1"/>
        <pt x="80" y="555" on="1"/>
        <pt x="80" y="794" on="0"/>
        <pt x="341" y="1102" on="0"/>
        <pt x="582" y="1102" on="1"/>
        <pt x="782" y="1102" on="0"/>
        <pt x="1027" y="874" on="0"/>
        <pt x="1023" y="688" on="1"/>
        <pt x="1021" y="682" on="1"/>
        <pt x="755" y="682" on="1"/>
        <pt x="755" y="766" on="0"/>
        <pt x="663" y="877" on="0"/>
        <pt x="582" y="877" on="1"/>
        <pt x="466" y="877" on="0"/>
        <pt x="371" y="697" on="0"/>
        <pt x="371" y="555" on="1"/>
        <pt x="371" y="525" on="1"/>
        <pt x="371" y="380" on="0"/>
        <pt x="466" y="203" on="0"/>
      </contour>
    </TTGlyph>
    <TTGlyph name="cacute" xMin="67" yMin="-21" xMax="1014" yMax="1502">
      <component glyphName="c" x="0" y="0" flags="0x204"/>
      <component glyphName="acute" x="317" y="24" flags="0x4"/>
    </TTGlyph>
    <TTGlyph name="caron" xMin="69" yMin="1252" xMax="830" yMax="1524">
      <contour>
        <pt x="450" y="1384" on="1"/>
        <pt x="582" y="1524" on="1"/>
        <pt x="830" y="1524" on="1"/>
        <pt x="830" y="1507" on="1"/>
        <pt x="550" y="1252" on="1"/>
        <pt x="350" y="1252" on="1"/>
        <pt x="69" y="1508" on="1"/>
        <pt x="69" y="1524" on="1"/>
        <pt x="318" y="1524" on="1"/>
      </contour>
    </TTGlyph>
    <TTGlyph name="ccaron" xMin="67" yMin="-21" xMax="1014" yMax="1543">
      <component glyphName="c" x="0" y="0" flags="0x204"/>
      <component glyphName="caron" x="106" y="19" flags="0x4"/>
    </TTGlyph>
    <TTGlyph name="ccedilla" xMin="67" yMin="-461" xMax="1014" yMax="1102">
      <component glyphName="c" x="0" y="0" flags="0x204"/>
      <component glyphName="cedilla" x="323" y="-2" flags="0x4"/>
    </TTGlyph>
    <TTGlyph name="ccircumflex" xMin="67" yMin="-21" xMax="1014" yMax="1523">
      <component glyphName="c" x="0" y="0" flags="0x204"/>
      <component glyphName="circumflex" x="118" y="5" flags="0x4"/>
    </TTGlyph>
    <TTGlyph name="cedilla" xMin="83" yMin="-459" xMax="472" yMax="6">
      <contour>
        <pt x="333" y="6" on="1"/>
        <pt x="322" y="-51" on="1"/>
        <pt x="386" y="-62" on="0"/>
        <pt x="472" y="-144" on="0"/>
        <pt x="472" y="-224" on="1"/>
        <pt x="472" y="-331" on="0"/>
        <pt x="289" y="-459" on="0"/>
        <pt x="121" y="-459" on="1"/>
        <pt x="114" y="-298" on="1"/>
        <pt x="165" y="-298" on="0"/>
        <pt x="225" y="-257" on="0"/>
        <pt x="225" y="-215" on="1"/>
        <pt x="225" y="-174" on="0"/>
        <pt x="161" y="-141" on="0"/>
        <pt x="83" y="-136" on="1"/>
        <pt x="114" y="6" on="1"/>
      </contour>
    </TTGlyph>
    <TTGlyph name="cent" xMin="80" yMin="-245" xMax="1027" yMax="1318">
      <contour>
        <pt x="584" y="203" on="1"/>
        <pt x="662" y="203" on="0"/>
        <pt x="756" y="294" on="0"/>
        <pt x="756" y="370" on="1"/>
        <pt x="1021" y="370" on="1"/>
        <pt x="1024" y="364" on="1"/>
        <pt x="1027" y="220" on="0"/>
        <pt x="825" y="9" on="0"/>
        <pt x="667" y="-14" on="1"/>
        <pt x="667" y="-245" on="1"/>
        <pt x="467" y="-245" on="1"/>
        <pt x="467" y="-10" on="1"/>
        <pt x="279" y="26" on="0"/>
        <pt x="80" y="317" on="0"/>
        <pt x="80" y="525" on="1"/>
        <pt x="80" y="555" on="1"/>
        <pt x="80" y="758" on="0"/>
        <pt x="280" y="1049" on="0"/>
        <pt x="467" y="1089" on="1"/>
        <pt x="467" y="1318" on="1"/>
        <pt x="667" y="1318" on="1"/>
        <pt x="667" y="1099" on="1"/>
        <pt x="774" y="1089" on="0"/>
        <pt x="946" y="1014" on="0"/>
        <pt x="1006" y="953" on="1"/>
        <pt x="1010" y="664" on="1"/>
        <pt x="773" y="664" on="1"/>
        <pt x="725" y="833" on="1"/>
        <pt x="703" y="852" on="0"/>
        <pt x="639" y="877" on="0"/>
        <pt x="598" y="877" on="1"/>
        <pt x="474" y="877" on="0"/>
        <pt x="372" y="697" on="0"/>
        <pt x="372" y="555" on="1"/>
        <pt x="372" y="525" on="1"/>
        <pt x="372" y="380" on="0"/>
        <pt x="466" y="203" on="0"/>
      </contour>
    </TTGlyph>
    <TTGlyph name="chi" xMin="32" yMin="0" xMax="1162" yMax="1082">
      <contour>
        <pt x="32" y="175" on="1"/>
        <pt x="133" y="191" on="1"/>
        <pt x="425" y="543" on="1"/>
        <pt x="143" y="889" on="1"/>
        <pt x="42" y="906" on="1"/>
        <pt x="42" y="1082" on="1"/>
        <pt x="332" y="1081" on="1"/>
        <pt x="604" y="701" on="1"/>
        <pt x="755" y="901" on="1"/>
        <pt x="654" y="913" on="1"/>
        <pt x="654" y="1082" on="1"/>
        <pt x="1143" y="1082" on="1"/>
        <pt x="1143" y="906" on="1"/>
        <pt x="1045" y="889" on="1"/>
        <pt x="767" y="548" on="1"/>
        <pt x="1060" y="191" on="1"/>
        <pt x="1162" y="175" on="1"/>
        <pt x="1162" y="0" on="1"/>
        <pt x="877" y="0" on="1"/>
        <pt x="585" y="391" on="1"/>
        <pt x="427" y="179" on="1"/>
        <pt x="514" y="168" on="1"/>
        <pt x="514" y="0" on="1"/>
        <pt x="32" y="0" on="1"/>
      </contour>
    </TTGlyph>
    <TTGlyph name="circumflex" xMin="90" yMin="1252" xMax="828" yMax="1518">
      <contour>
        <pt x="828" y="1275" on="1"/>
        <pt x="828" y="1252" on="1"/>
        <pt x="611" y="1252" on="1"/>
        <pt x="456" y="1398" on="1"/>
        <pt x="302" y="1252" on="1"/>
        <pt x="90" y="1252" on="1"/>
        <pt x="90" y="1278" on="1"/>
        <pt x="372" y="1518" on="1"/>
        <pt x="541" y="1518" on="1"/>
      </contour>
    </TTGlyph>
    <TTGlyph name="circumflexacutecomb" xMin="89" yMin="1259" xMax="1131" yMax="1669">
      <contour>
        <pt x="366" y="1493" on="1"/>
        <pt x="529" y="1493" on="1"/>
        <pt x="808" y="1265" on="1"/>
        <pt x="806" y="1259" on="1"/>
        <pt x="599" y="1259" on="1"/>
        <pt x="448" y="1389" on="1"/>
        <pt x="297" y="1259" on="1"/>
        <pt x="91" y="1259" on="1"/>
        <pt x="89" y="1265" on="1"/>
      </contour>
      <contour>
        <pt x="904" y="1669" on="1"/>
        <pt x="1129" y="1669" on="1"/>
        <pt x="1131" y="1664" on="1"/>
        <pt x="908" y="1398" on="1"/>
        <pt x="741" y="1398" on="1"/>
      </contour>
    </TTGlyph>
    <TTGlyph name="circumflexgravecomb" xMin="-38" yMin="1252" xMax="1004" yMax="1662">
      <contour>
        <pt x="1004" y="1258" on="1"/>
        <pt x="1002" y="1252" on="1"/>
        <pt x="795" y="1252" on="1"/>
        <pt x="644" y="1382" on="1"/>
        <pt x="493" y="1252" on="1"/>
        <pt x="287" y="1252" on="1"/>
        <pt x="285" y="1258" on="1"/>
        <pt x="563" y="1486" on="1"/>
        <pt x="726" y="1486" on="1"/>
      </contour>
      <contour>
        <pt x="351" y="1391" on="1"/>
        <pt x="184" y="1391" on="1"/>
        <pt x="-38" y="1657" on="1"/>
        <pt x="-36" y="1662" on="1"/>
        <pt x="188" y="1662" on="1"/>
      </contour>
    </TTGlyph>
    <TTGlyph name="circumflexhookcomb" xMin="92" yMin="1259" xMax="1005" yMax="1730">
      <contour>
        <pt x="538" y="1493" on="1"/>
        <pt x="365" y="1493" on="1"/>
        <pt x="92" y="1265" on="1"/>
        <pt x="94" y="1259" on="1"/>
        <pt x="293" y="1259" on="1"/>
        <pt x="452" y="1399" on="1"/>
        <pt x="610" y="1259" on="1"/>
        <pt x="809" y="1259" on="1"/>
        <pt x="811" y="1265" on="1"/>
      </contour>
      <contour>
        <pt x="724" y="1388" on="1"/>
        <pt x="711" y="1504" on="1"/>
        <pt x="773" y="1507" on="0"/>
        <pt x="826" y="1531" on="0"/>
        <pt x="822" y="1556" on="1"/>
        <pt x="822" y="1562" on="1"/>
        <pt x="826" y="1592" on="0"/>
        <pt x="764" y="1619" on="0"/>
        <pt x="707" y="1619" on="1"/>
        <pt x="714" y="1730" on="1"/>
        <pt x="855" y="1730" on="0"/>
        <pt x="1005" y="1643" on="0"/>
        <pt x="1005" y="1566" on="1"/>
        <pt x="1005" y="1511" on="0"/>
        <pt x="932" y="1450" on="0"/>
        <pt x="879" y="1443" on="1"/>
        <pt x="879" y="1388" on="1"/>
      </contour>
    </TTGlyph>
    <TTGlyph name="circumflextildecomb" xMin="92" yMin="1259" xMax="811" yMax="1737">
      <contour>
        <pt x="811" y="1265" on="1"/>
        <pt x="809" y="1259" on="1"/>
        <pt x="610" y="1259" on="1"/>
        <pt x="452" y="1389" on="1"/>
        <pt x="293" y="1259" on="1"/>
        <pt x="94" y="1259" on="1"/>
        <pt x="92" y="1265" on="1"/>
        <pt x="373" y="1486" on="1"/>
        <pt x="531" y="1486" on="1"/>
      </contour>
      <contour>
        <pt x="710" y="1701" on="1"/>
        <pt x="710" y="1639" on="0"/>
        <pt x="634" y="1545" on="0"/>
        <pt x="575" y="1545" on="1"/>
        <pt x="528" y="1545" on="0"/>
        <pt x="397" y="1610" on="0"/>
        <pt x="363" y="1610" on="1"/>
        <pt x="339" y="1610" on="0"/>
        <pt x="311" y="1568" on="0"/>
        <pt x="311" y="1539" on="1"/>
        <pt x="210" y="1567" on="1"/>
        <pt x="210" y="1629" on="0"/>
        <pt x="284" y="1725" on="0"/>
        <pt x="343" y="1725" on="1"/>
        <pt x="380" y="1725" on="0"/>
        <pt x="521" y="1661" on="0"/>
        <pt x="555" y="1661" on="1"/>
        <pt x="577" y="1661" on="0"/>
        <pt x="608" y="1707" on="0"/>
        <pt x="608" y="1737" on="1"/>
      </contour>
    </TTGlyph>
    <TTGlyph name="colon" xMin="91" yMin="0" xMax="382" yMax="1081">
      <component glyphName="period" x="-38" y="0" flags="0x4"/>
      <component glyphName="period" x="-38" y="825" flags="0x4"/>
    </TTGlyph>
    <TTGlyph name="comma" xMin="58" yMin="-364" xMax="401" yMax="243">
      <contour>
        <pt x="400" y="39" on="1"/>
        <pt x="400" y="-63" on="0"/>
        <pt x="285" y="-291" on="0"/>
        <pt x="202" y="-364" on="1"/>
        <pt x="58" y="-286" on="1"/>
        <pt x="97" y="-216" on="0"/>
        <pt x="139" y="-67" on="0"/>
        <pt x="139" y="25" on="1"/>
        <pt x="139" y="243" on="1"/>
        <pt x="401" y="243" on="1"/>
      </contour>
    </TTGlyph>
    <TTGlyph name="commaaccent" xMin="81" yMin="-244" xMax="375" yMax="272">
      <contour>
        <pt x="375" y="152" on="1"/>
        <pt x="375" y="47" on="0"/>
        <pt x="290" y="-172" on="0"/>
        <pt x="225" y="-244" on="1"/>
        <pt x="81" y="-166" on="1"/>
        <pt x="121" y="-95" on="0"/>
        <pt x="162" y="46" on="0"/>
        <pt x="162" y="139" on="1"/>
        <pt x="162" y="272" on="1"/>
        <pt x="375" y="272" on="1"/>
      </contour>
    </TTGlyph>
    <TTGlyph name="commaaccentrotate" xMin="137" yMin="1104" xMax="411" yMax="1539">
      <contour>
        <pt x="137" y="1279" on="1"/>
        <pt x="251" y="1539" on="1"/>
        <pt x="411" y="1539" on="1"/>
        <pt x="375" y="1269" on="1"/>
        <pt x="375" y="1104" on="1"/>
        <pt x="137" y="1104" on="1"/>
      </contour>
    </TTGlyph>
    <TTGlyph name="copyright" xMin="74" yMin="-21" xMax="1494" yMax="1476">
      <contour>
        <pt x="1097" y="596" on="1"/>
        <pt x="1099" y="590" on="1"/>
        <pt x="1103" y="439" on="0"/>
        <pt x="927" y="282" on="0"/>
        <pt x="770" y="282" on="1"/>
        <pt x="610" y="282" on="0"/>
        <pt x="421" y="494" on="0"/>
        <pt x="421" y="669" on="1"/>
        <pt x="421" y="788" on="1"/>
        <pt x="421" y="961" on="0"/>
        <pt x="610" y="1175" on="0"/>
        <pt x="770" y="1175" on="1"/>
        <pt x="927" y="1175" on="0"/>
        <pt x="1104" y="1016" on="0"/>
        <pt x="1100" y="867" on="1"/>
        <pt x="1098" y="861" on="1"/>
        <pt x="950" y="861" on="1"/>
        <pt x="950" y="955" on="0"/>
        <pt x="860" y="1040" on="0"/>
        <pt x="770" y="1040" on="1"/>
        <pt x="676" y="1040" on="0"/>
        <pt x="576" y="902" on="0"/>
        <pt x="576" y="789" on="1"/>
        <pt x="576" y="669" on="1"/>
        <pt x="576" y="554" on="0"/>
        <pt x="676" y="417" on="0"/>
        <pt x="770" y="417" on="1"/>
        <pt x="860" y="417" on="0"/>
        <pt x="949" y="500" on="0"/>
        <pt x="949" y="596" on="1"/>
      </contour>
      <contour>
        <pt x="196" y="729" on="1"/>
        <pt x="196" y="465" on="0"/>
        <pt x="539" y="104" on="0"/>
        <pt x="784" y="104" on="1"/>
        <pt x="1028" y="104" on="0"/>
        <pt x="1371" y="465" on="0"/>
        <pt x="1371" y="729" on="1"/>
        <pt x="1371" y="992" on="0"/>
        <pt x="1028" y="1351" on="0"/>
        <pt x="784" y="1351" on="1"/>
        <pt x="538" y="1351" on="0"/>
        <pt x="196" y="992" on="0"/>
      </contour>
      <contour>
        <pt x="74" y="729" on="1"/>
        <pt x="74" y="1044" on="0"/>
        <pt x="488" y="1476" on="0"/>
        <pt x="784" y="1476" on="1"/>
        <pt x="1079" y="1476" on="0"/>
        <pt x="1494" y="1044" on="0"/>
        <pt x="1494" y="729" on="1"/>
        <pt x="1494" y="413" on="0"/>
        <pt x="1078" y="-21" on="0"/>
        <pt x="784" y="-21" on="1"/>
        <pt x="488" y="-21" on="0"/>
        <pt x="74" y="413" on="0"/>
      </contour>
    </TTGlyph>
    <TTGlyph name="crossbar" xMin="135" yMin="661" xMax="836" yMax="816">
      <contour>
        <pt x="836" y="661" on="1"/>
        <pt x="135" y="661" on="1"/>
        <pt x="135" y="816" on="1"/>
        <pt x="836" y="816" on="1"/>
      </contour>
    </TTGlyph>
    <TTGlyph name="currency" xMin="82" yMin="-27" xMax="1348" yMax="1265">
      <contour>
        <pt x="1074" y="107" on="1"/>
        <pt x="997" y="46" on="0"/>
        <pt x="812" y="-20" on="0"/>
        <pt x="712" y="-20" on="1"/>
        <pt x="611" y="-20" on="0"/>
        <pt x="427" y="45" on="0"/>
        <pt x="352" y="106" on="1"/>
        <pt x="223" y="-26" on="1"/>
        <pt x="82" y="118" on="1"/>
        <pt x="217" y="255" on="1"/>
        <pt x="168" y="331" on="0"/>
        <pt x="117" y="510" on="0"/>
        <pt x="117" y="608" on="1"/>
        <pt x="117" y="709" on="0"/>
        <pt x="173" y="894" on="0"/>
        <pt x="226" y="973" on="1"/>
        <pt x="82" y="1120" on="1"/>
        <pt x="223" y="1264" on="1"/>
        <pt x="365" y="1119" on="1"/>
        <pt x="439" y="1174" on="0"/>
        <pt x="615" y="1234" on="0"/>
        <pt x="712" y="1234" on="1"/>
        <pt x="808" y="1234" on="0"/>
        <pt x="986" y="1173" on="0"/>
        <pt x="1061" y="1117" on="1"/>
        <pt x="1206" y="1265" on="1"/>
        <pt x="1348" y="1120" on="1"/>
        <pt x="1200" y="969" on="1"/>
        <pt x="1251" y="891" on="0"/>
        <pt x="1307" y="708" on="0"/>
        <pt x="1307" y="608" on="1"/>
        <pt x="1307" y="511" on="0"/>
        <pt x="1256" y="334" on="0"/>
        <pt x="1209" y="259" on="1"/>
        <pt x="1348" y="118" on="1"/>
        <pt x="1206" y="-27" on="1"/>
      </contour>
      <contour>
        <pt x="302" y="608" on="1"/>
        <pt x="302" y="424" on="0"/>
        <pt x="541" y="169" on="0"/>
        <pt x="712" y="169" on="1"/>
        <pt x="882" y="169" on="0"/>
        <pt x="1121" y="423" on="0"/>
        <pt x="1121" y="608" on="1"/>
        <pt x="1121" y="791" on="0"/>
        <pt x="882" y="1045" on="0"/>
        <pt x="712" y="1045" on="1"/>
        <pt x="541" y="1045" on="0"/>
        <pt x="302" y="791" on="0"/>
      </contour>
    </TTGlyph>
    <TTGlyph name="cyrillicbreve" xMin="100" yMin="1162" xMax="792" yMax="1456">
      <component glyphName="breve" x="0" y="0" flags="0x204"/>
    </TTGlyph>
    <TTGlyph name="cyrillichook" xMin="-28" yMin="-369" xMax="462" yMax="156">
      <contour>
        <pt x="462" y="156" on="1"/>
        <pt x="462" y="-19" on="1"/>
        <pt x="462" y="-187" on="0"/>
        <pt x="279" y="-369" on="0"/>
        <pt x="115" y="-369" on="1"/>
        <pt x="75" y="-369" on="0"/>
        <pt x="8" y="-361" on="0"/>
        <pt x="-28" y="-352" on="1"/>
        <pt x="-14" y="-129" on="1"/>
        <pt x="7" y="-135" on="0"/>
        <pt x="57" y="-141" on="0"/>
        <pt x="85" y="-141" on="1"/>
        <pt x="125" y="-141" on="0"/>
        <pt x="170" y="-79" on="0"/>
        <pt x="170" y="-19" on="1"/>
        <pt x="170" y="156" on="1"/>
      </contour>
    </TTGlyph>
    <TTGlyph name="cyrillichookleft" xMin="-9" yMin="-417" xMax="433" yMax="63">
      <contour>
        <pt x="253" y="63" on="1"/>
        <pt x="344" y="11" on="0"/>
        <pt x="433" y="-128" on="0"/>
        <pt x="433" y="-203" on="1"/>
        <pt x="433" y="-304" on="0"/>
        <pt x="290" y="-417" on="0"/>
        <pt x="180" y="-417" on="1"/>
        <pt x="117" y="-417" on="0"/>
        <pt x="26" y="-391" on="0"/>
        <pt x="-9" y="-373" on="1"/>
        <pt x="25" y="-219" on="1"/>
        <pt x="47" y="-227" on="0"/>
        <pt x="94" y="-239" on="0"/>
        <pt x="124" y="-239" on="1"/>
        <pt x="177" y="-239" on="0"/>
        <pt x="214" y="-196" on="0"/>
        <pt x="214" y="-169" on="1"/>
        <pt x="214" y="-122" on="0"/>
        <pt x="166" y="-51" on="0"/>
        <pt x="116" y="0" on="1"/>
      </contour>
    </TTGlyph>
    <TTGlyph name="cyrillictic" xMin="131" yMin="-361" xMax="423" yMax="162">
      <contour>
        <pt x="423" y="-361" on="1"/>
        <pt x="131" y="-361" on="1"/>
        <pt x="131" y="162" on="1"/>
        <pt x="423" y="162" on="1"/>
      </contour>
    </TTGlyph>
    <TTGlyph name="d" xMin="67" yMin="-21" xMax="1182" yMax="1560">
      <contour>
        <pt x="767" y="132" on="1"/>
        <pt x="716" y="57" on="0"/>
        <pt x="577" y="-21" on="0"/>
        <pt x="488" y="-21" on="1"/>
        <pt x="288" y="-21" on="0"/>
        <pt x="67" y="271" on="0"/>
        <pt x="67" y="511" on="1"/>
        <pt x="67" y="532" on="1"/>
        <pt x="67" y="788" on="0"/>
        <pt x="289" y="1102" on="0"/>
        <pt x="490" y="1102" on="1"/>
        <pt x="571" y="1102" on="0"/>
        <pt x="701" y="1031" on="0"/>
        <pt x="750" y="966" on="1"/>
        <pt x="750" y="1354" on="1"/>
        <pt x="594" y="1384" on="1"/>
        <pt x="594" y="1560" on="1"/>
        <pt x="750" y="1560" on="1"/>
        <pt x="1042" y="1560" on="1"/>
        <pt x="1042" y="205" on="1"/>
        <pt x="1182" y="175" on="1"/>
        <pt x="1182" y="0" on="1"/>
        <pt x="789" y="0" on="1"/>
      </contour>
      <contour>
        <pt x="359" y="511" on="1"/>
        <pt x="359" y="369" on="0"/>
        <pt x="454" y="206" on="0"/>
        <pt x="562" y="206" on="1"/>
        <pt x="626" y="206" on="0"/>
        <pt x="720" y="258" on="0"/>
        <pt x="750" y="307" on="1"/>
        <pt x="750" y="766" on="1"/>
        <pt x="720" y="818" on="0"/>
        <pt x="627" y="875" on="0"/>
        <pt x="564" y="875" on="1"/>
        <pt x="457" y="875" on="0"/>
        <pt x="359" y="685" on="0"/>
        <pt x="359" y="532" on="1"/>
      </contour>
    </TTGlyph>
    <TTGlyph name="dagger" xMin="49" yMin="0" xMax="1038" yMax="1456">
      <contour>
        <pt x="1038" y="850" on="1"/>
        <pt x="687" y="850" on="1"/>
        <pt x="687" y="0" on="1"/>
        <pt x="395" y="0" on="1"/>
        <pt x="395" y="850" on="1"/>
        <pt x="49" y="850" on="1"/>
        <pt x="49" y="1082" on="1"/>
        <pt x="395" y="1082" on="1"/>
        <pt x="395" y="1456" on="1"/>
        <pt x="687" y="1456" on="1"/>
        <pt x="687" y="1082" on="1"/>
        <pt x="1038" y="1082" on="1"/>
      </contour>
    </TTGlyph>
    <TTGlyph name="daggerdbl" xMin="69" yMin="-416" xMax="1058" yMax="1456">
      <contour>
        <pt x="1058" y="0" on="1"/>
        <pt x="707" y="0" on="1"/>
        <pt x="707" y="-416" on="1"/>
        <pt x="414" y="-416" on="1"/>
        <pt x="414" y="0" on="1"/>
        <pt x="69" y="0" on="1"/>
        <pt x="69" y="224" on="1"/>
        <pt x="414" y="224" on="1"/>
        <pt x="414" y="856" on="1"/>
        <pt x="69" y="856" on="1"/>
        <pt x="69" y="1082" on="1"/>
        <pt x="414" y="1082" on="1"/>
        <pt x="414" y="1456" on="1"/>
        <pt x="707" y="1456" on="1"/>
        <pt x="707" y="1082" on="1"/>
        <pt x="1058" y="1082" on="1"/>
        <pt x="1058" y="856" on="1"/>
        <pt x="707" y="856" on="1"/>
        <pt x="707" y="224" on="1"/>
        <pt x="1058" y="224" on="1"/>
      </contour>
    </TTGlyph>
    <TTGlyph name="dasiaoxia" xMin="114" yMin="1135" xMax="714" yMax="1495">
      <contour>
        <pt x="392" y="1160" on="1"/>
        <pt x="503" y="1477" on="1"/>
        <pt x="714" y="1477" on="1"/>
        <pt x="714" y="1456" on="1"/>
        <pt x="484" y="1137" on="1"/>
        <pt x="392" y="1137" on="1"/>
      </contour>
      <contour>
        <pt x="114" y="1228" on="1"/>
        <pt x="114" y="1316" on="0"/>
        <pt x="204" y="1456" on="0"/>
        <pt x="281" y="1495" on="1"/>
        <pt x="364" y="1411" on="1"/>
        <pt x="322" y="1379" on="0"/>
        <pt x="287" y="1286" on="0"/>
        <pt x="287" y="1222" on="1"/>
        <pt x="287" y="1135" on="1"/>
        <pt x="114" y="1135" on="1"/>
      </contour>
    </TTGlyph>
    <TTGlyph name="dcaron" xMin="67" yMin="-21" xMax="1398" yMax="1560">
      <component glyphName="d" x="0" y="0" flags="0x4"/>
      <component glyphName="commaaccent" x="1023" y="1287" flags="0x4"/>
    </TTGlyph>
    <TTGlyph name="dcroat" xMin="67" yMin="-21" xMax="1240" yMax="1560">
      <contour>
        <pt x="767" y="132" on="1"/>
        <pt x="716" y="57" on="0"/>
        <pt x="577" y="-21" on="0"/>
        <pt x="488" y="-21" on="1"/>
        <pt x="288" y="-21" on="0"/>
        <pt x="67" y="271" on="0"/>
        <pt x="67" y="511" on="1"/>
        <pt x="67" y="532" on="1"/>
        <pt x="67" y="788" on="0"/>
        <pt x="289" y="1102" on="0"/>
        <pt x="490" y="1102" on="1"/>
        <pt x="571" y="1102" on="0"/>
        <pt x="701" y="1031" on="0"/>
        <pt x="750" y="966" on="1"/>
        <pt x="750" y="1132" on="1"/>
        <pt x="539" y="1132" on="1"/>
        <pt x="539" y="1287" on="1"/>
        <pt x="750" y="1287" on="1"/>
        <pt x="750" y="1354" on="1"/>
        <pt x="594" y="1384" on="1"/>
        <pt x="594" y="1560" on="1"/>
        <pt x="1042" y="1560" on="1"/>
        <pt x="1042" y="1287" on="1"/>
        <pt x="1240" y="1287" on="1"/>
        <pt x="1240" y="1132" on="1"/>
        <pt x="1042" y="1132" on="1"/>
        <pt x="1042" y="205" on="1"/>
        <pt x="1182" y="175" on="1"/>
        <pt x="1182" y="0" on="1"/>
        <pt x="789" y="0" on="1"/>
      </contour>
      <contour>
        <pt x="359" y="511" on="1"/>
        <pt x="359" y="369" on="0"/>
        <pt x="454" y="206" on="0"/>
        <pt x="562" y="206" on="1"/>
        <pt x="626" y="206" on="0"/>
        <pt x="720" y="258" on="0"/>
        <pt x="750" y="307" on="1"/>
        <pt x="750" y="766" on="1"/>
        <pt x="720" y="818" on="0"/>
        <pt x="627" y="875" on="0"/>
        <pt x="564" y="875" on="1"/>
        <pt x="457" y="875" on="0"/>
        <pt x="359" y="685" on="0"/>
        <pt x="359" y="532" on="1"/>
      </contour>
    </TTGlyph>
    <TTGlyph name="degree" xMin="106" yMin="932" xMax="646" yMax="1477">
      <contour>
        <pt x="106" y="1203" on="1"/>
        <pt x="106" y="1315" on="0"/>
        <pt x="266" y="1477" on="0"/>
        <pt x="378" y="1477" on="1"/>
        <pt x="488" y="1477" on="0"/>
        <pt x="646" y="1315" on="0"/>
        <pt x="646" y="1203" on="1"/>
        <pt x="646" y="1089" on="0"/>
        <pt x="489" y="932" on="0"/>
        <pt x="378" y="932" on="1"/>
        <pt x="265" y="932" on="0"/>
        <pt x="106" y="1090" on="0"/>
      </contour>
      <contour>
        <pt x="253" y="1203" on="1"/>
        <pt x="253" y="1150" on="0"/>
        <pt x="326" y="1079" on="0"/>
        <pt x="378" y="1079" on="1"/>
        <pt x="430" y="1079" on="0"/>
        <pt x="500" y="1149" on="0"/>
        <pt x="500" y="1203" on="1"/>
        <pt x="500" y="1257" on="0"/>
        <pt x="429" y="1331" on="0"/>
        <pt x="378" y="1331" on="1"/>
        <pt x="326" y="1331" on="0"/>
        <pt x="253" y="1257" on="0"/>
      </contour>
    </TTGlyph>
</ttFont>
